SplineFontDB: 3.0
FontName: FiraCode-Italic
FullName: Fira Code Italic
FamilyName: Fira Code
Weight: Regular
Copyright: Digitized data copyright (c) 2012-2014, The Mozilla Foundation and Telefonica S.A.
Version: 003.111
ItalicAngle: -8
UnderlinePosition: -100
UnderlineWidth: 50
Ascent: 785
Descent: 215
InvalidEm: 0
sfntRevision: 0x00031c6a
LayerCount: 2
Layer: 0 0 "Back" 1
Layer: 1 0 "Fore" 0
XUID: [1021 606 1918075594 12908]
StyleMap: 0x0001
FSType: 8
OS2Version: 3
OS2_WeightWidthSlopeOnly: 0
OS2_UseTypoMetrics: 0
CreationTime: 1419166449
ModificationTime: 1529764957
PfmFamily: 81
TTFWeight: 400
TTFWidth: 5
LineGap: 0
VLineGap: 0
Panose: 0 0 5 9 0 0 0 0 0 0
OS2TypoAscent: 785
OS2TypoAOffset: 0
OS2TypoDescent: -215
OS2TypoDOffset: 0
OS2TypoLinegap: 400
OS2WinAscent: 985
OS2WinAOffset: 0
OS2WinDescent: 215
OS2WinDOffset: 0
HheadAscent: 985
HheadAOffset: 0
HheadDescent: -215
HheadDOffset: 0
OS2SubXSize: 650
OS2SubYSize: 600
OS2SubXOff: -11
OS2SubYOff: 75
OS2SupXSize: 650
OS2SupYSize: 600
OS2SupXOff: 49
OS2SupYOff: 350
OS2StrikeYSize: 50
OS2StrikeYPos: 315
OS2CapHeight: 688
OS2XHeight: 526
OS2Vendor: 'CTDB'
OS2CodePages: 6000009f.00000000
OS2UnicodeRanges: 00000287.02003801.00000000.00000000
Lookup: 1 0 0 "" { } []
Lookup: 260 0 0 "'mark' Mark Positioning lookup 0" { "'mark' Mark Positioning lookup 0 subtable"  } ['mark' ('DFLT' <'dflt' > 'cyrl' <'dflt' > 'grek' <'dflt' > 'latn' <'dflt' > ) ]
Lookup: 260 0 0 "'mark' Mark Positioning lookup 1" { "'mark' Mark Positioning lookup 1 subtable"  } ['mark' ('DFLT' <'dflt' > 'cyrl' <'dflt' > 'grek' <'dflt' > 'latn' <'dflt' > ) ]
Lookup: 260 0 0 "'mark' Mark Positioning lookup 2" { "'mark' Mark Positioning lookup 2 subtable"  } ['mark' ('DFLT' <'dflt' > 'cyrl' <'dflt' > 'grek' <'dflt' > 'latn' <'dflt' > ) ]
Lookup: 262 256 0 "'mkmk' Mark to Mark lookup 3" { "'mkmk' Mark to Mark lookup 3 subtable"  } ['mkmk' ('DFLT' <'dflt' > 'cyrl' <'dflt' > 'grek' <'dflt' > 'latn' <'dflt' > ) ]
MarkAttachClasses: 2

StartChar: .notdef
Encoding: 1114112 -1 0
Width: 600
Flags: MW
HStem: -350 52<66 377 66 424> 48 72<249 265> 149 108<254 275> 403 48<299.5 335> 998 52<248 559 248 248>
VStem: 359 52
LayerCount: 2
Fore
SplineSet
621 1050 m 1
 424 -350 l 1
 4 -350 l 1
 201 1050 l 1
 621 1050 l 1
559 998 m 1
 248 998 l 1
 66 -298 l 1
 377 -298 l 1
 559 998 l 1
294 170 m 2
 292 155 280 149 270 149 c 0
 255 149 243 161 245 176 c 2
 254 257 l 1
 327 261 351 284 359 339 c 0
 364 376 359 403 311 403 c 0
 288 403 273 399 257 390 c 0
 250 389 246 389 244 389 c 0
 227 389 217 402 220 417 c 0
 223 442 276 451 313 451 c 0
 401 451 420 393 411 331 c 0
 402 263 371 228 303 218 c 1
 294 170 l 2
223 90 m 0xfc
 225 108 240 120 258 120 c 0
 280 120 294 102 291 80 c 0
 289 61 274 48 256 48 c 0
 234 48 219 67 223 90 c 0xfc
EndSplineSet
EndChar

StartChar: A
Encoding: 65 65 2
Width: 600
GlyphClass: 2
Flags: MW
HStem: 173 77<153 406 187 406 187 418> 611 78<348 348>
VStem: -21 566<0 0>
AnchorPoint: "Anchor-8" 0 0 basechar 0
AnchorPoint: "Anchor-7" 316 689 basechar 0
AnchorPoint: "Anchor-6" 420 689 basechar 0
LayerCount: 2
Fore
SplineSet
153 173 m 1
 76 0 l 1
 -21 0 l 1
 299 689 l 1
 419 689 l 1
 545 0 l 1
 447 0 l 1
 418 173 l 1
 153 173 l 1
406 250 m 1
 348 611 l 1
 187 250 l 1
 406 250 l 1
EndSplineSet
EndChar

StartChar: Aacute
Encoding: 193 193 3
Width: 600
GlyphClass: 2
Flags: MW
HStem: 173 77<153 406 187 406 187 418> 611 78<348 348>
VStem: -21 566<0 0>
AnchorPoint: "Anchor-8" 0 0 basechar 0
AnchorPoint: "Anchor-7" 316 689 basechar 0
AnchorPoint: "Anchor-6" 420 689 basechar 0
LayerCount: 2
Fore
SplineSet
501 834 m 1
 276 755 l 1
 258 804 l 1
 472 911 l 1
 501 834 l 1
153 173 m 1
 76 0 l 1
 -21 0 l 1
 299 689 l 1
 419 689 l 1
 545 0 l 1
 447 0 l 1
 418 173 l 1
 153 173 l 1
406 250 m 1
 348 611 l 1
 187 250 l 1
 406 250 l 1
EndSplineSet
EndChar

StartChar: Abreve
Encoding: 258 258 4
Width: 600
GlyphClass: 2
Flags: MW
HStem: 173 77<153 406 187 406 187 418> 611 78<348 348> 758 70<350.5 397.5 350.5 410.5>
VStem: -21 566<0 0>
AnchorPoint: "Anchor-8" 0 0 basechar 0
AnchorPoint: "Anchor-7" 316 689 basechar 0
AnchorPoint: "Anchor-6" 420 689 basechar 0
LayerCount: 2
Fore
SplineSet
371 758 m 0
 289 758 233 810 235 884 c 1
 296 892 l 1
 305 852 328 828 373 828 c 0
 422 828 458 856 478 896 c 1
 537 878 l 1
 519 804 450 758 371 758 c 0
153 173 m 1
 76 0 l 1
 -21 0 l 1
 299 689 l 1
 419 689 l 1
 545 0 l 1
 447 0 l 1
 418 173 l 1
 153 173 l 1
406 250 m 1
 348 611 l 1
 187 250 l 1
 406 250 l 1
EndSplineSet
EndChar

StartChar: Acircumflex
Encoding: 194 194 5
Width: 600
GlyphClass: 2
Flags: MW
HStem: 173 77<153 406 187 406 187 418> 611 78<348 348>
VStem: -21 566<0 0>
AnchorPoint: "Anchor-8" 0 0 basechar 0
AnchorPoint: "Anchor-7" 316 689 basechar 0
AnchorPoint: "Anchor-6" 420 689 basechar 0
LayerCount: 2
Fore
SplineSet
542 804 m 1
 498 759 l 1
 382 840 l 1
 245 759 l 1
 210 804 l 1
 360 914 l 1
 421 914 l 1
 542 804 l 1
153 173 m 1
 76 0 l 1
 -21 0 l 1
 299 689 l 1
 419 689 l 1
 545 0 l 1
 447 0 l 1
 418 173 l 1
 153 173 l 1
406 250 m 1
 348 611 l 1
 187 250 l 1
 406 250 l 1
EndSplineSet
EndChar

StartChar: Adieresis
Encoding: 196 196 6
Width: 600
GlyphClass: 2
Flags: MW
HStem: 173 77<153 406 187 406 187 418> 611 78<348 348> 767 113<225.5 248 435 457.5>
VStem: 179 114 389 114
AnchorPoint: "Anchor-8" 0 0 basechar 0
AnchorPoint: "Anchor-7" 316 689 basechar 0
AnchorPoint: "Anchor-6" 404 822 basechar 0
LayerCount: 2
Fore
SplineSet
233 767 m 0
 198 767 175 794 179 828 c 0
 184 859 210 880 241 880 c 0
 275 880 298 853 293 818 c 0
 289 788 263 767 233 767 c 0
442 767 m 0
 408 767 385 794 389 828 c 0
 394 859 420 880 450 880 c 0
 485 880 508 853 503 818 c 0
 499 788 473 767 442 767 c 0
153 173 m 1
 76 0 l 1
 -21 0 l 1
 299 689 l 1
 419 689 l 1
 545 0 l 1
 447 0 l 1
 418 173 l 1
 153 173 l 1
406 250 m 1
 348 611 l 1
 187 250 l 1
 406 250 l 1
EndSplineSet
EndChar

StartChar: Agrave
Encoding: 192 192 7
Width: 600
GlyphClass: 2
Flags: MW
HStem: 173 77<153 406 187 406 187 418> 611 78<348 348>
VStem: -21 566<0 0>
AnchorPoint: "Anchor-8" 0 0 basechar 0
AnchorPoint: "Anchor-7" 316 689 basechar 0
AnchorPoint: "Anchor-6" 420 689 basechar 0
LayerCount: 2
Fore
SplineSet
494 804 m 1
 461 755 l 1
 262 837 l 1
 320 914 l 1
 494 804 l 1
153 173 m 1
 76 0 l 1
 -21 0 l 1
 299 689 l 1
 419 689 l 1
 545 0 l 1
 447 0 l 1
 418 173 l 1
 153 173 l 1
406 250 m 1
 348 611 l 1
 187 250 l 1
 406 250 l 1
EndSplineSet
EndChar

StartChar: Amacron
Encoding: 256 256 8
Width: 600
GlyphClass: 2
Flags: MW
HStem: 173 77<153 406 187 406 187 418> 611 78<348 348> 794 69<201 483 210 474>
VStem: -21 566<0 0>
AnchorPoint: "Anchor-8" 0 0 basechar 0
AnchorPoint: "Anchor-7" 316 689 basechar 0
AnchorPoint: "Anchor-6" 420 689 basechar 0
LayerCount: 2
Fore
SplineSet
201 794 m 1
 210 863 l 1
 483 863 l 1
 474 794 l 1
 201 794 l 1
153 173 m 1
 76 0 l 1
 -21 0 l 1
 299 689 l 1
 419 689 l 1
 545 0 l 1
 447 0 l 1
 418 173 l 1
 153 173 l 1
406 250 m 1
 348 611 l 1
 187 250 l 1
 406 250 l 1
EndSplineSet
EndChar

StartChar: Aogonek
Encoding: 260 260 9
Width: 600
GlyphClass: 2
Flags: MW
HStem: -232 70<387.5 406> 173 77<187 406 187 418 153 406> 611 78<348 348>
VStem: 280 81
AnchorPoint: "Anchor-8" 0 0 basechar 0
AnchorPoint: "Anchor-7" 316 689 basechar 0
AnchorPoint: "Anchor-6" 420 689 basechar 0
LayerCount: 2
Fore
SplineSet
503 -1 m 1
 395 -45 367 -81 361 -119 c 0
 357 -147 368 -162 407 -162 c 0
 430 -162 447 -159 471 -154 c 1
 456 -226 l 1
 436 -230 418 -232 394 -232 c 0
 315 -232 272 -186 280 -126 c 0
 289 -63 340 -16 444 20 c 1
 418 173 l 1
 153 173 l 1
 76 0 l 1
 -21 0 l 1
 299 689 l 1
 419 689 l 1
 545 0 l 1
 503 0 l 1
 503 -1 l 1
406 250 m 1
 348 611 l 1
 187 250 l 1
 406 250 l 1
EndSplineSet
EndChar

StartChar: Aring
Encoding: 197 197 10
Width: 600
GlyphClass: 2
Flags: MW
HStem: 173 77<153 406 187 406 187 418> 611 78<348 348> 737 49<318 350.5 318 366.5> 898 50<339 371.5>
VStem: 231 60 398 60
AnchorPoint: "Anchor-8" 0 0 basechar 0
AnchorPoint: "Anchor-7" 316 689 basechar 0
AnchorPoint: "Anchor-6" 420 689 basechar 0
LayerCount: 2
Fore
SplineSet
355 948 m 0
 424 948 466 898 458 837 c 0
 450 781 399 737 334 737 c 0
 265 737 223 787 231 847 c 0
 239 904 290 948 355 948 c 0
356 898 m 0
 322 898 296 874 291 837 c 0
 286 804 303 786 333 786 c 0
 368 786 393 810 398 847 c 0
 403 880 387 898 356 898 c 0
153 173 m 1
 76 0 l 1
 -21 0 l 1
 299 689 l 1
 419 689 l 1
 545 0 l 1
 447 0 l 1
 418 173 l 1
 153 173 l 1
406 250 m 1
 348 611 l 1
 187 250 l 1
 406 250 l 1
EndSplineSet
EndChar

StartChar: Atilde
Encoding: 195 195 11
Width: 600
GlyphClass: 2
Flags: MW
HStem: 173 77<153 406 187 406 187 418> 611 78<348 348> 770 70<382.5 409 382.5 417.5> 818 70<275 301.5>
VStem: -21 566<0 0>
AnchorPoint: "Anchor-8" 0 0 basechar 0
AnchorPoint: "Anchor-7" 316 689 basechar 0
AnchorPoint: "Anchor-6" 420 689 basechar 0
LayerCount: 2
Fore
SplineSet
390 770 m 0xa8
 330 770 316 818 287 818 c 0
 263 818 247 800 227 772 c 1
 172 802 l 1
 198 849 239 888 294 888 c 0x98
 356 888 368 840 397 840 c 0
 421 840 438 858 458 886 c 1
 513 857 l 1
 486 810 445 770 390 770 c 0xa8
153 173 m 1
 76 0 l 1
 -21 0 l 1
 299 689 l 1
 419 689 l 1xe8
 545 0 l 1
 447 0 l 1
 418 173 l 1
 153 173 l 1
406 250 m 1
 348 611 l 1
 187 250 l 1
 406 250 l 1
EndSplineSet
EndChar

StartChar: AE
Encoding: 198 198 12
Width: 600
GlyphClass: 2
Flags: MW
HStem: 0 75<412 570> 173 77<118 310 151 310 151 315> 312 75<395 564 395 395> 614 75<374 604 374 374>
VStem: 301 81.5 320.5 83
AnchorPoint: "Anchor-8" 0 0 basechar 0
AnchorPoint: "Anchor-7" 0 0 basechar 0
AnchorPoint: "Anchor-6" 480 689 basechar 0
LayerCount: 2
Fore
SplineSet
118 173 m 1xf8
 48 0 l 1
 -50 0 l 1
 246 689 l 1
 626 689 l 1
 604 614 l 1
 374 614 l 1
 391 387 l 1xf8
 574 387 l 1
 564 312 l 1
 395 312 l 1
 412 75 l 1
 581 75 l 1
 570 0 l 1
 326 0 l 1
 315 173 l 1xf4
 118 173 l 1xf8
310 250 m 1
 292 616 l 1
 151 250 l 1
 310 250 l 1
EndSplineSet
EndChar

StartChar: AEacute
Encoding: 508 508 13
Width: 600
GlyphClass: 2
Flags: MW
HStem: 0 75<412 570> 173 77<118 310 151 310 151 315> 312 75<395 564 395 395> 614 75<374 604 374 374>
VStem: 301 81.5 320.5 83
AnchorPoint: "Anchor-8" 0 0 basechar 0
AnchorPoint: "Anchor-7" 0 0 basechar 0
AnchorPoint: "Anchor-6" 480 689 basechar 0
LayerCount: 2
Fore
SplineSet
561 834 m 1xf8
 336 755 l 1
 318 804 l 1
 532 911 l 1
 561 834 l 1xf8
118 173 m 1
 48 0 l 1
 -50 0 l 1
 246 689 l 1
 626 689 l 1
 604 614 l 1
 374 614 l 1
 391 387 l 1xf8
 574 387 l 1
 564 312 l 1
 395 312 l 1
 412 75 l 1
 581 75 l 1
 570 0 l 1
 326 0 l 1
 315 173 l 1xf4
 118 173 l 1
310 250 m 1
 292 616 l 1
 151 250 l 1
 310 250 l 1
EndSplineSet
EndChar

StartChar: B
Encoding: 66 66 14
Width: 600
GlyphClass: 2
Flags: MW
HStem: 0 77<161 247> 322 76<206 309 206 309 195 309> 614 75<236 325 325 335 236 236>
VStem: 55 494.97
LayerCount: 2
Fore
SplineSet
533 192 m 0
 512 43 376 0 247 0 c 2
 55 0 l 1
 152 689 l 1
 325 689 l 2
 448 689 567 647 548 510 c 0
 536 424 469 379 399 364 c 1
 471 352 550 310 533 192 c 0
451 514 m 0
 462 588 417 614 335 614 c 2
 236 614 l 1
 206 398 l 1
 309 398 l 2
 389 398 440 434 451 514 c 0
434 200 m 0
 448 299 388 322 309 322 c 2
 195 322 l 1
 161 77 l 1
 267 77 l 2
 334 77 420 99 434 200 c 0
EndSplineSet
EndChar

StartChar: C
Encoding: 67 67 15
Width: 600
GlyphClass: 2
Flags: MW
HStem: -12 80<275.5 371 275.5 374.5> 623 78<363 444.5>
VStem: 66.38 97.9
AnchorPoint: "Anchor-8" 276 0 basechar 0
AnchorPoint: "Anchor-7" 0 0 basechar 0
AnchorPoint: "Anchor-6" 485 689 basechar 0
LayerCount: 2
Fore
SplineSet
415 701 m 0
 508 701 561 675 611 631 c 1
 554 574 l 1
 516 610 470 623 419 623 c 0
 307 623 199 548 170 340 c 0
 142 141 219 68 332 68 c 0
 410 68 460 98 501 128 c 1
 543 63 l 1
 494 21 423 -12 326 -12 c 0
 154 -12 39 116 72 350 c 0
 104 580 255 701 415 701 c 0
EndSplineSet
EndChar

StartChar: Cacute
Encoding: 262 262 16
Width: 600
GlyphClass: 2
Flags: MW
HStem: -12 80<275.5 371 275.5 374.5> 623 78<363 444.5>
VStem: 66.38 97.9
AnchorPoint: "Anchor-8" 276 0 basechar 0
AnchorPoint: "Anchor-7" 0 0 basechar 0
AnchorPoint: "Anchor-6" 485 689 basechar 0
LayerCount: 2
Fore
SplineSet
566 834 m 1
 341 755 l 1
 323 804 l 1
 537 911 l 1
 566 834 l 1
415 701 m 0
 508 701 561 675 611 631 c 1
 554 574 l 1
 516 610 470 623 419 623 c 0
 307 623 199 548 170 340 c 0
 142 141 219 68 332 68 c 0
 410 68 460 98 501 128 c 1
 543 63 l 1
 494 21 423 -12 326 -12 c 0
 154 -12 39 116 72 350 c 0
 104 580 255 701 415 701 c 0
EndSplineSet
EndChar

StartChar: Ccaron
Encoding: 268 268 17
Width: 600
GlyphClass: 2
Flags: MW
HStem: -12 80<275.5 371 275.5 374.5> 623 78<363 444.5>
VStem: 66.38 97.9
AnchorPoint: "Anchor-8" 276 0 basechar 0
AnchorPoint: "Anchor-7" 0 0 basechar 0
AnchorPoint: "Anchor-6" 485 689 basechar 0
LayerCount: 2
Fore
SplineSet
615 864 m 1
 466 754 l 1
 405 754 l 1
 283 864 l 1
 329 909 l 1
 443 828 l 1
 582 909 l 1
 615 864 l 1
415 701 m 0
 508 701 561 675 611 631 c 1
 554 574 l 1
 516 610 470 623 419 623 c 0
 307 623 199 548 170 340 c 0
 142 141 219 68 332 68 c 0
 410 68 460 98 501 128 c 1
 543 63 l 1
 494 21 423 -12 326 -12 c 0
 154 -12 39 116 72 350 c 0
 104 580 255 701 415 701 c 0
EndSplineSet
EndChar

StartChar: Ccedilla
Encoding: 199 199 18
Width: 600
GlyphClass: 2
Flags: MW
HStem: -241 60<216 244.5 216 268.5> -99 43 -12 80<320.5 371 275.5 374.5> 623 78<363 444.5>
VStem: 66.36 97.92 295 75
AnchorPoint: "Anchor-8" 276 0 basechar 0
AnchorPoint: "Anchor-7" 0 0 basechar 0
AnchorPoint: "Anchor-6" 485 689 basechar 0
LayerCount: 2
Fore
SplineSet
419 623 m 0
 307 623 199 548 170 340 c 0
 142 141 219 68 332 68 c 0
 410 68 460 98 501 128 c 1
 543 63 l 1
 494 21 423 -12 326 -12 c 0
 315 -12 305 -12 295 -11 c 1
 287 -56 l 1
 352 -62 376 -103 370 -146 c 0
 361 -210 301 -241 236 -241 c 0
 193 -241 156 -230 131 -215 c 1
 163 -166 l 1
 180 -176 206 -181 226 -181 c 0
 263 -181 290 -167 295 -136 c 0
 299 -103 269 -99 215 -99 c 1
 235 2 l 1
 116 40 45 160 72 350 c 0
 104 580 255 701 415 701 c 0
 508 701 561 675 611 631 c 1
 554 574 l 1
 516 610 470 623 419 623 c 0
EndSplineSet
EndChar

StartChar: Ccircumflex
Encoding: 264 264 19
Width: 600
GlyphClass: 2
Flags: MW
HStem: -12 80<275.5 371 275.5 374.5> 623 78<363 444.5>
VStem: 66.38 97.9
AnchorPoint: "Anchor-8" 276 0 basechar 0
AnchorPoint: "Anchor-7" 0 0 basechar 0
AnchorPoint: "Anchor-6" 485 689 basechar 0
LayerCount: 2
Fore
SplineSet
607 804 m 1
 563 759 l 1
 447 840 l 1
 310 759 l 1
 275 804 l 1
 425 914 l 1
 486 914 l 1
 607 804 l 1
415 701 m 0
 508 701 561 675 611 631 c 1
 554 574 l 1
 516 610 470 623 419 623 c 0
 307 623 199 548 170 340 c 0
 142 141 219 68 332 68 c 0
 410 68 460 98 501 128 c 1
 543 63 l 1
 494 21 423 -12 326 -12 c 0
 154 -12 39 116 72 350 c 0
 104 580 255 701 415 701 c 0
EndSplineSet
EndChar

StartChar: Cdotaccent
Encoding: 266 266 20
Width: 600
GlyphClass: 2
Flags: MW
HStem: -12 80<275.5 371 275.5 374.5> 623 78<363 444.5> 772 125<394 421.5>
VStem: 66.38 97.9 344 128
AnchorPoint: "Anchor-8" 276 0 basechar 0
AnchorPoint: "Anchor-7" 0 0 basechar 0
AnchorPoint: "Anchor-6" 485 689 basechar 0
LayerCount: 2
Fore
SplineSet
412 897 m 0
 453 897 477 867 472 830 c 0
 467 796 440 772 403 772 c 0
 363 772 339 802 344 840 c 0
 349 873 376 897 412 897 c 0
415 701 m 0
 508 701 561 675 611 631 c 1
 554 574 l 1
 516 610 470 623 419 623 c 0
 307 623 199 548 170 340 c 0
 142 141 219 68 332 68 c 0
 410 68 460 98 501 128 c 1
 543 63 l 1
 494 21 423 -12 326 -12 c 0
 154 -12 39 116 72 350 c 0
 104 580 255 701 415 701 c 0
EndSplineSet
EndChar

StartChar: D
Encoding: 68 68 21
Width: 600
GlyphClass: 2
Flags: MW
HStem: 0 75<149 206> 613 76<224 288 288 302 224 224>
VStem: 472.95 99.55
AnchorPoint: "Anchor-8" 0 0 basechar 0
AnchorPoint: "Anchor-7" 0 0 basechar 0
AnchorPoint: "Anchor-6" 404 689 basechar 0
LayerCount: 2
Fore
SplineSet
566 343 m 0
 526 57 352 0 206 0 c 2
 43 0 l 1
 140 689 l 1
 288 689 l 2
 451 689 607 631 566 343 c 0
467 353 m 0
 499 585 396 613 302 613 c 2
 224 613 l 1
 149 75 l 1
 224 75 l 2
 322 75 435 128 467 353 c 0
EndSplineSet
EndChar

StartChar: Eth
Encoding: 208 208 22
Width: 600
GlyphClass: 2
Flags: MW
HStem: 0 75<122 179> 318 70<36 61 27 71 166 347> 613 76<197 261 261 275 197 197>
VStem: 445.95 99.55
AnchorPoint: "Anchor-8" 0 0 basechar 0
AnchorPoint: "Anchor-7" 0 0 basechar 0
AnchorPoint: "Anchor-6" 377 689 basechar 0
LayerCount: 2
Fore
SplineSet
261 689 m 2
 424 689 580 631 539 343 c 0
 499 57 325 0 179 0 c 2
 16 0 l 1
 61 318 l 1
 27 318 l 1
 36 388 l 1
 71 388 l 1
 113 689 l 1
 261 689 l 2
440 353 m 0
 472 585 369 613 275 613 c 2
 197 613 l 1
 166 388 l 1
 356 388 l 1
 347 318 l 1
 156 318 l 1
 122 75 l 1
 197 75 l 2
 295 75 408 128 440 353 c 0
EndSplineSet
EndChar

StartChar: Dcaron
Encoding: 270 270 23
Width: 600
GlyphClass: 2
Flags: MW
HStem: 0 75<149 206> 613 76<224 288 288 302 224 224>
VStem: 472.95 99.55
AnchorPoint: "Anchor-8" 0 0 basechar 0
AnchorPoint: "Anchor-7" 0 0 basechar 0
AnchorPoint: "Anchor-6" 404 689 basechar 0
LayerCount: 2
Fore
SplineSet
534 864 m 1
 385 754 l 1
 324 754 l 1
 202 864 l 1
 248 909 l 1
 362 828 l 1
 501 909 l 1
 534 864 l 1
566 343 m 0
 526 57 352 0 206 0 c 2
 43 0 l 1
 140 689 l 1
 288 689 l 2
 451 689 607 631 566 343 c 0
467 353 m 0
 499 585 396 613 302 613 c 2
 224 613 l 1
 149 75 l 1
 224 75 l 2
 322 75 435 128 467 353 c 0
EndSplineSet
EndChar

StartChar: Dcroat
Encoding: 272 272 24
Width: 600
GlyphClass: 2
Flags: MW
HStem: 0 75<122 179> 318 70<36 61 27 71 166 347> 613 76<197 261 261 275 197 197>
VStem: 445.95 99.55
AnchorPoint: "Anchor-8" 0 0 basechar 0
AnchorPoint: "Anchor-7" 0 0 basechar 0
AnchorPoint: "Anchor-6" 377 689 basechar 0
LayerCount: 2
Fore
SplineSet
261 689 m 2
 424 689 580 631 539 343 c 0
 499 57 325 0 179 0 c 2
 16 0 l 1
 61 318 l 1
 27 318 l 1
 36 388 l 1
 71 388 l 1
 113 689 l 1
 261 689 l 2
440 353 m 0
 472 585 369 613 275 613 c 2
 197 613 l 1
 166 388 l 1
 356 388 l 1
 347 318 l 1
 156 318 l 1
 122 75 l 1
 197 75 l 2
 295 75 408 128 440 353 c 0
EndSplineSet
EndChar

StartChar: E
Encoding: 69 69 25
Width: 600
GlyphClass: 2
Flags: MW
HStem: 0 75<191 491> 312 76<234 478 224 488> 613 76<266 558 266 266>
VStem: 85 495
AnchorPoint: "Anchor-8" 251 0 basechar 0
AnchorPoint: "Anchor-7" 232 689 basechar 0
AnchorPoint: "Anchor-6" 441 689 basechar 0
LayerCount: 2
Fore
SplineSet
234 388 m 1
 488 388 l 1
 478 312 l 1
 224 312 l 1
 191 75 l 1
 502 75 l 1
 491 0 l 1
 85 0 l 1
 182 689 l 1
 580 689 l 1
 558 613 l 1
 266 613 l 1
 234 388 l 1
EndSplineSet
EndChar

StartChar: Eacute
Encoding: 201 201 26
Width: 600
GlyphClass: 2
Flags: MW
HStem: 0 75<191 491> 312 76<234 478 224 488> 613 76<266 558 266 266>
VStem: 85 495
AnchorPoint: "Anchor-8" 251 0 basechar 0
AnchorPoint: "Anchor-7" 232 689 basechar 0
AnchorPoint: "Anchor-6" 441 689 basechar 0
LayerCount: 2
Fore
SplineSet
522 834 m 1
 297 755 l 1
 279 804 l 1
 493 911 l 1
 522 834 l 1
234 388 m 1
 488 388 l 1
 478 312 l 1
 224 312 l 1
 191 75 l 1
 502 75 l 1
 491 0 l 1
 85 0 l 1
 182 689 l 1
 580 689 l 1
 558 613 l 1
 266 613 l 1
 234 388 l 1
EndSplineSet
EndChar

StartChar: Ebreve
Encoding: 276 276 27
Width: 600
GlyphClass: 2
Flags: MW
HStem: 0 75<191 491> 312 76<234 478 224 488> 613 76<266 558 266 266> 758 70<371.5 418.5 371.5 431.5>
VStem: 85 495
AnchorPoint: "Anchor-8" 251 0 basechar 0
AnchorPoint: "Anchor-7" 232 689 basechar 0
AnchorPoint: "Anchor-6" 441 689 basechar 0
LayerCount: 2
Fore
SplineSet
392 758 m 0
 310 758 254 810 256 884 c 1
 317 892 l 1
 326 852 349 828 394 828 c 0
 443 828 479 856 499 896 c 1
 558 878 l 1
 540 804 471 758 392 758 c 0
234 388 m 1
 488 388 l 1
 478 312 l 1
 224 312 l 1
 191 75 l 1
 502 75 l 1
 491 0 l 1
 85 0 l 1
 182 689 l 1
 580 689 l 1
 558 613 l 1
 266 613 l 1
 234 388 l 1
EndSplineSet
EndChar

StartChar: Ecaron
Encoding: 282 282 28
Width: 600
GlyphClass: 2
Flags: MW
HStem: 0 75<191 491> 312 76<234 478 224 488> 613 76<266 558 266 266>
VStem: 85 495
AnchorPoint: "Anchor-8" 251 0 basechar 0
AnchorPoint: "Anchor-7" 232 689 basechar 0
AnchorPoint: "Anchor-6" 441 689 basechar 0
LayerCount: 2
Fore
SplineSet
571 864 m 1
 422 754 l 1
 361 754 l 1
 239 864 l 1
 285 909 l 1
 399 828 l 1
 538 909 l 1
 571 864 l 1
234 388 m 1
 488 388 l 1
 478 312 l 1
 224 312 l 1
 191 75 l 1
 502 75 l 1
 491 0 l 1
 85 0 l 1
 182 689 l 1
 580 689 l 1
 558 613 l 1
 266 613 l 1
 234 388 l 1
EndSplineSet
EndChar

StartChar: Ecircumflex
Encoding: 202 202 29
Width: 600
GlyphClass: 2
Flags: MW
HStem: 0 75<191 491> 312 76<234 478 224 488> 613 76<266 558 266 266>
VStem: 85 495
AnchorPoint: "Anchor-8" 251 0 basechar 0
AnchorPoint: "Anchor-7" 232 689 basechar 0
AnchorPoint: "Anchor-6" 441 689 basechar 0
LayerCount: 2
Fore
SplineSet
563 804 m 1
 519 759 l 1
 403 840 l 1
 266 759 l 1
 231 804 l 1
 381 914 l 1
 442 914 l 1
 563 804 l 1
234 388 m 1
 488 388 l 1
 478 312 l 1
 224 312 l 1
 191 75 l 1
 502 75 l 1
 491 0 l 1
 85 0 l 1
 182 689 l 1
 580 689 l 1
 558 613 l 1
 266 613 l 1
 234 388 l 1
EndSplineSet
EndChar

StartChar: Edieresis
Encoding: 203 203 30
Width: 600
GlyphClass: 2
Flags: MW
HStem: 0 75<191 491> 312 76<234 478 224 488> 613 76<266 558 266 266> 767 113<246.5 269 456 478.5>
VStem: 200 114 410 114
AnchorPoint: "Anchor-8" 251 0 basechar 0
AnchorPoint: "Anchor-7" 232 689 basechar 0
AnchorPoint: "Anchor-6" 425 822 basechar 0
LayerCount: 2
Fore
SplineSet
254 767 m 0
 219 767 196 794 200 828 c 0
 205 859 231 880 262 880 c 0
 296 880 319 853 314 818 c 0
 310 788 284 767 254 767 c 0
463 767 m 0
 429 767 406 794 410 828 c 0
 415 859 441 880 471 880 c 0
 506 880 529 853 524 818 c 0
 520 788 494 767 463 767 c 0
234 388 m 1
 488 388 l 1
 478 312 l 1
 224 312 l 1
 191 75 l 1
 502 75 l 1
 491 0 l 1
 85 0 l 1
 182 689 l 1
 580 689 l 1
 558 613 l 1
 266 613 l 1
 234 388 l 1
EndSplineSet
EndChar

StartChar: Edotaccent
Encoding: 278 278 31
Width: 600
GlyphClass: 2
Flags: MW
HStem: 0 75<191 491> 312 76<234 478 224 488> 613 76<266 558 266 266> 772 125<350 377.5>
VStem: 300 128
AnchorPoint: "Anchor-8" 251 0 basechar 0
AnchorPoint: "Anchor-7" 232 689 basechar 0
AnchorPoint: "Anchor-6" 441 689 basechar 0
LayerCount: 2
Fore
SplineSet
368 897 m 0
 409 897 433 867 428 830 c 0
 423 796 396 772 359 772 c 0
 319 772 295 802 300 840 c 0
 305 873 332 897 368 897 c 0
234 388 m 1
 488 388 l 1
 478 312 l 1
 224 312 l 1
 191 75 l 1
 502 75 l 1
 491 0 l 1
 85 0 l 1
 182 689 l 1
 580 689 l 1
 558 613 l 1
 266 613 l 1
 234 388 l 1
EndSplineSet
EndChar

StartChar: Egrave
Encoding: 200 200 32
Width: 600
GlyphClass: 2
Flags: MW
HStem: 0 75<191 491> 312 76<234 478 224 488> 613 76<266 558 266 266>
VStem: 85 495
AnchorPoint: "Anchor-8" 251 0 basechar 0
AnchorPoint: "Anchor-7" 232 689 basechar 0
AnchorPoint: "Anchor-6" 441 689 basechar 0
LayerCount: 2
Fore
SplineSet
515 804 m 1
 482 755 l 1
 283 837 l 1
 341 914 l 1
 515 804 l 1
234 388 m 1
 488 388 l 1
 478 312 l 1
 224 312 l 1
 191 75 l 1
 502 75 l 1
 491 0 l 1
 85 0 l 1
 182 689 l 1
 580 689 l 1
 558 613 l 1
 266 613 l 1
 234 388 l 1
EndSplineSet
EndChar

StartChar: Emacron
Encoding: 274 274 33
Width: 600
GlyphClass: 2
Flags: MW
HStem: 0 75<191 491> 312 76<234 478 224 488> 613 76<266 558 266 266> 794 69<222 504 231 495>
VStem: 85 495
AnchorPoint: "Anchor-8" 251 0 basechar 0
AnchorPoint: "Anchor-7" 232 689 basechar 0
AnchorPoint: "Anchor-6" 441 689 basechar 0
LayerCount: 2
Fore
SplineSet
222 794 m 1
 231 863 l 1
 504 863 l 1
 495 794 l 1
 222 794 l 1
234 388 m 1
 488 388 l 1
 478 312 l 1
 224 312 l 1
 191 75 l 1
 502 75 l 1
 491 0 l 1
 85 0 l 1
 182 689 l 1
 580 689 l 1
 558 613 l 1
 266 613 l 1
 234 388 l 1
EndSplineSet
EndChar

StartChar: Eogonek
Encoding: 280 280 34
Width: 600
GlyphClass: 2
Flags: MW
HStem: -232 70<317.5 336> 0 75<191 324 433 491 433 433> 312 76<234 478 224 488> 613 76<266 266 266 558>
VStem: 210 81
AnchorPoint: "Anchor-8" 251 0 basechar 0
AnchorPoint: "Anchor-7" 232 689 basechar 0
AnchorPoint: "Anchor-6" 441 689 basechar 0
LayerCount: 2
Fore
SplineSet
266 613 m 1
 234 388 l 1
 488 388 l 1
 478 312 l 1
 224 312 l 1
 191 75 l 1
 502 75 l 1
 491 0 l 1
 433 0 l 1
 433 -1 l 1
 325 -45 297 -81 291 -119 c 0
 287 -147 298 -162 337 -162 c 0
 360 -162 377 -159 401 -154 c 1
 386 -226 l 1
 366 -230 348 -232 324 -232 c 0
 245 -232 202 -186 210 -126 c 0
 217 -74 254 -33 324 0 c 1
 85 0 l 1
 182 689 l 1
 580 689 l 1
 558 613 l 1
 266 613 l 1
EndSplineSet
EndChar

StartChar: F
Encoding: 70 70 35
Width: 600
GlyphClass: 2
Flags: MW
HStem: 303 75<246 503 236 513> 613 76<279 584 279 279>
VStem: 98 508
LayerCount: 2
Fore
SplineSet
246 378 m 1
 513 378 l 1
 503 303 l 1
 236 303 l 1
 193 0 l 1
 98 0 l 1
 195 689 l 1
 606 689 l 1
 584 613 l 1
 279 613 l 1
 246 378 l 1
EndSplineSet
EndChar

StartChar: G
Encoding: 71 71 36
Width: 600
GlyphClass: 2
Flags: MW
HStem: -12 78<232.5 314 232.5 327.5> 302 77<323 453 323 558> 623 78<340.5 418>
VStem: 47.96 99.23
AnchorPoint: "Anchor-8" 256 0 basechar 0
AnchorPoint: "Anchor-7" 0 0 basechar 0
AnchorPoint: "Anchor-6" 450 689 basechar 0
LayerCount: 2
Fore
SplineSet
280 -12 m 0
 111 -12 21 110 55 350 c 0
 88 585 242 701 392 701 c 0
 485 701 535 672 583 622 c 1
 523 568 l 1
 486 607 445 623 391 623 c 0
 290 623 184 550 155 340 c 0
 127 144 175 66 290 66 c 0
 338 66 382 78 423 99 c 1
 453 302 l 1
 323 302 l 1
 323 379 l 1
 558 379 l 1
 514 48 l 1
 446 13 375 -12 280 -12 c 0
EndSplineSet
EndChar

StartChar: Gbreve
Encoding: 286 286 37
Width: 600
GlyphClass: 2
Flags: MW
HStem: -12 78<232.5 314 232.5 327.5> 302 77<323 453 323 558> 623 78<340.5 418> 758 70<380.5 427.5 380.5 440.5>
VStem: 47.96 99.23
AnchorPoint: "Anchor-8" 256 0 basechar 0
AnchorPoint: "Anchor-7" 0 0 basechar 0
AnchorPoint: "Anchor-6" 450 689 basechar 0
LayerCount: 2
Fore
SplineSet
401 758 m 0
 319 758 263 810 265 884 c 1
 326 892 l 1
 335 852 358 828 403 828 c 0
 452 828 488 856 508 896 c 1
 567 878 l 1
 549 804 480 758 401 758 c 0
280 -12 m 0
 111 -12 21 110 55 350 c 0
 88 585 242 701 392 701 c 0
 485 701 535 672 583 622 c 1
 523 568 l 1
 486 607 445 623 391 623 c 0
 290 623 184 550 155 340 c 0
 127 144 175 66 290 66 c 0
 338 66 382 78 423 99 c 1
 453 302 l 1
 323 302 l 1
 323 379 l 1
 558 379 l 1
 514 48 l 1
 446 13 375 -12 280 -12 c 0
EndSplineSet
EndChar

StartChar: Gcircumflex
Encoding: 284 284 38
Width: 600
GlyphClass: 2
Flags: MW
HStem: -12 78<232.5 314 232.5 327.5> 302 77<323 453 323 558> 623 78<340.5 418>
VStem: 47.96 99.23
AnchorPoint: "Anchor-8" 256 0 basechar 0
AnchorPoint: "Anchor-7" 0 0 basechar 0
AnchorPoint: "Anchor-6" 450 689 basechar 0
LayerCount: 2
Fore
SplineSet
572 804 m 1
 528 759 l 1
 412 840 l 1
 275 759 l 1
 240 804 l 1
 390 914 l 1
 451 914 l 1
 572 804 l 1
280 -12 m 0
 111 -12 21 110 55 350 c 0
 88 585 242 701 392 701 c 0
 485 701 535 672 583 622 c 1
 523 568 l 1
 486 607 445 623 391 623 c 0
 290 623 184 550 155 340 c 0
 127 144 175 66 290 66 c 0
 338 66 382 78 423 99 c 1
 453 302 l 1
 323 302 l 1
 323 379 l 1
 558 379 l 1
 514 48 l 1
 446 13 375 -12 280 -12 c 0
EndSplineSet
EndChar

StartChar: Gcommaaccent
Encoding: 290 290 39
Width: 600
GlyphClass: 2
Flags: MW
HStem: -12 78<232.5 314 232.5 327.5> 302 77<323 453 323 558> 623 78<340.5 418>
VStem: 47.96 99.23 222 113
AnchorPoint: "Anchor-8" 256 0 basechar 0
AnchorPoint: "Anchor-7" 0 0 basechar 0
AnchorPoint: "Anchor-6" 450 689 basechar 0
LayerCount: 2
Fore
SplineSet
280 -12 m 0
 111 -12 21 110 55 350 c 0
 88 585 242 701 392 701 c 0
 485 701 535 672 583 622 c 1
 523 568 l 1
 486 607 445 623 391 623 c 0
 290 623 184 550 155 340 c 0
 127 144 175 66 290 66 c 0
 338 66 382 78 423 99 c 1
 453 302 l 1
 323 302 l 1
 323 379 l 1
 558 379 l 1
 514 48 l 1
 446 13 375 -12 280 -12 c 0
282 -70 m 0
 316 -70 339 -97 335 -131 c 0
 332 -147 326 -162 313 -186 c 2
 247 -290 l 1
 192 -290 l 1
 240 -171 l 1
 227 -160 219 -142 222 -121 c 0
 226 -91 252 -70 282 -70 c 0
EndSplineSet
EndChar

StartChar: Gdotaccent
Encoding: 288 288 40
Width: 600
GlyphClass: 2
Flags: MW
HStem: -12 78<232.5 314 232.5 327.5> 302 77<323 453 323 558> 623 78<340.5 418> 772 125<359 386.5>
VStem: 47.96 99.23 309 128
AnchorPoint: "Anchor-8" 256 0 basechar 0
AnchorPoint: "Anchor-7" 0 0 basechar 0
AnchorPoint: "Anchor-6" 450 689 basechar 0
LayerCount: 2
Fore
SplineSet
377 897 m 0
 418 897 442 867 437 830 c 0
 432 796 405 772 368 772 c 0
 328 772 304 802 309 840 c 0
 314 873 341 897 377 897 c 0
280 -12 m 0
 111 -12 21 110 55 350 c 0
 88 585 242 701 392 701 c 0
 485 701 535 672 583 622 c 1
 523 568 l 1
 486 607 445 623 391 623 c 0
 290 623 184 550 155 340 c 0
 127 144 175 66 290 66 c 0
 338 66 382 78 423 99 c 1
 453 302 l 1
 323 302 l 1
 323 379 l 1
 558 379 l 1
 514 48 l 1
 446 13 375 -12 280 -12 c 0
EndSplineSet
EndChar

StartChar: H
Encoding: 72 72 41
Width: 600
GlyphClass: 2
Flags: MW
HStem: 323 78<194 433 183 444>
VStem: 43 537
AnchorPoint: "Anchor-8" 0 0 basechar 0
AnchorPoint: "Anchor-7" 0 0 basechar 0
AnchorPoint: "Anchor-6" 420 689 basechar 0
LayerCount: 2
Fore
SplineSet
433 323 m 1
 183 323 l 1
 138 0 l 1
 43 0 l 1
 140 689 l 1
 235 689 l 1
 194 401 l 1
 444 401 l 1
 485 689 l 1
 580 689 l 1
 483 0 l 1
 388 0 l 1
 433 323 l 1
EndSplineSet
EndChar

StartChar: Hbar
Encoding: 294 294 42
Width: 600
GlyphClass: 2
Flags: MW
HStem: 323 78<194 433 183 444> 508 69<46 115 36 124 219 459 564 632>
VStem: 36 606<508 577>
LayerCount: 2
Fore
SplineSet
632 508 m 1
 555 508 l 1
 483 0 l 1
 388 0 l 1
 433 323 l 1
 183 323 l 1
 138 0 l 1
 43 0 l 1
 115 508 l 1
 36 508 l 1
 46 577 l 1
 124 577 l 1
 140 689 l 1
 235 689 l 1
 219 577 l 1
 469 577 l 1
 485 689 l 1
 580 689 l 1
 564 577 l 1
 642 577 l 1
 632 508 l 1
459 508 m 1
 209 508 l 1
 194 401 l 1
 444 401 l 1
 459 508 l 1
EndSplineSet
EndChar

StartChar: Hcircumflex
Encoding: 292 292 43
Width: 600
GlyphClass: 2
Flags: MW
HStem: 323 78<194 433 183 444>
VStem: 43 537
AnchorPoint: "Anchor-8" 0 0 basechar 0
AnchorPoint: "Anchor-7" 0 0 basechar 0
AnchorPoint: "Anchor-6" 420 689 basechar 0
LayerCount: 2
Fore
SplineSet
542 804 m 1
 498 759 l 1
 382 840 l 1
 245 759 l 1
 210 804 l 1
 360 914 l 1
 421 914 l 1
 542 804 l 1
433 323 m 1
 183 323 l 1
 138 0 l 1
 43 0 l 1
 140 689 l 1
 235 689 l 1
 194 401 l 1
 444 401 l 1
 485 689 l 1
 580 689 l 1
 483 0 l 1
 388 0 l 1
 433 323 l 1
EndSplineSet
EndChar

StartChar: I
Encoding: 73 73 44
Width: 600
GlyphClass: 2
Flags: MW
HStem: 0 75<74 226 322 463 63 226> 614 75<160 301 149 560 397 549 397 397>
VStem: 63 497
AnchorPoint: "Anchor-8" 0 0 basechar 0
AnchorPoint: "Anchor-7" 0 0 basechar 0
AnchorPoint: "Anchor-6" 420 689 basechar 0
LayerCount: 2
Fore
SplineSet
549 614 m 1
 397 614 l 1
 322 75 l 1
 474 75 l 1
 463 0 l 1
 63 0 l 1
 74 75 l 1
 226 75 l 1
 301 614 l 1
 149 614 l 1
 160 689 l 1
 560 689 l 1
 549 614 l 1
EndSplineSet
EndChar

StartChar: IJ
Encoding: 306 306 45
Width: 600
GlyphClass: 2
Flags: MW
HStem: 0 75<-15 82 178 244 -26 82> 614 75<71 157 60 595 253 489 253 253>
VStem: -26 621
LayerCount: 2
Fore
SplineSet
144 -71 m 1
 348 -50 409 46 430 193 c 2
 489 614 l 1
 253 614 l 1
 178 75 l 1
 255 75 l 1
 244 0 l 1
 -26 0 l 1
 -15 75 l 1
 82 75 l 1
 157 614 l 1
 60 614 l 1
 71 689 l 1
 595 689 l 1
 524 183 l 2
 501 24 419 -115 149 -141 c 1
 144 -71 l 1
EndSplineSet
EndChar

StartChar: Iacute
Encoding: 205 205 46
Width: 600
GlyphClass: 2
Flags: MW
HStem: 0 75<74 226 322 463 63 226> 614 75<160 301 149 560 397 549 397 397>
VStem: 63 497
AnchorPoint: "Anchor-8" 0 0 basechar 0
AnchorPoint: "Anchor-7" 0 0 basechar 0
AnchorPoint: "Anchor-6" 420 689 basechar 0
LayerCount: 2
Fore
SplineSet
501 834 m 1
 276 755 l 1
 258 804 l 1
 472 911 l 1
 501 834 l 1
549 614 m 1
 397 614 l 1
 322 75 l 1
 474 75 l 1
 463 0 l 1
 63 0 l 1
 74 75 l 1
 226 75 l 1
 301 614 l 1
 149 614 l 1
 160 689 l 1
 560 689 l 1
 549 614 l 1
EndSplineSet
EndChar

StartChar: Ibreve
Encoding: 300 300 47
Width: 600
GlyphClass: 2
Flags: MW
HStem: 0 75<74 226 322 463 63 226> 614 75<160 301 149 560 397 549 397 397> 758 70<350.5 397.5 350.5 410.5>
VStem: 63 497
AnchorPoint: "Anchor-8" 0 0 basechar 0
AnchorPoint: "Anchor-7" 0 0 basechar 0
AnchorPoint: "Anchor-6" 420 689 basechar 0
LayerCount: 2
Fore
SplineSet
371 758 m 0
 289 758 233 810 235 884 c 1
 296 892 l 1
 305 852 328 828 373 828 c 0
 422 828 458 856 478 896 c 1
 537 878 l 1
 519 804 450 758 371 758 c 0
549 614 m 1
 397 614 l 1
 322 75 l 1
 474 75 l 1
 463 0 l 1
 63 0 l 1
 74 75 l 1
 226 75 l 1
 301 614 l 1
 149 614 l 1
 160 689 l 1
 560 689 l 1
 549 614 l 1
EndSplineSet
EndChar

StartChar: Icircumflex
Encoding: 206 206 48
Width: 600
GlyphClass: 2
Flags: MW
HStem: 0 75<74 226 322 463 63 226> 614 75<160 301 149 560 397 549 397 397>
VStem: 63 497
AnchorPoint: "Anchor-8" 0 0 basechar 0
AnchorPoint: "Anchor-7" 0 0 basechar 0
AnchorPoint: "Anchor-6" 420 689 basechar 0
LayerCount: 2
Fore
SplineSet
542 804 m 1
 498 759 l 1
 382 840 l 1
 245 759 l 1
 210 804 l 1
 360 914 l 1
 421 914 l 1
 542 804 l 1
549 614 m 1
 397 614 l 1
 322 75 l 1
 474 75 l 1
 463 0 l 1
 63 0 l 1
 74 75 l 1
 226 75 l 1
 301 614 l 1
 149 614 l 1
 160 689 l 1
 560 689 l 1
 549 614 l 1
EndSplineSet
EndChar

StartChar: Idieresis
Encoding: 207 207 49
Width: 600
GlyphClass: 2
Flags: MW
HStem: 0 75<74 226 322 463 63 226> 614 75<160 301 149 560 397 549 397 397> 767 113<225.5 248 435 457.5>
VStem: 179 114 389 114
AnchorPoint: "Anchor-8" 0 0 basechar 0
AnchorPoint: "Anchor-7" 0 0 basechar 0
AnchorPoint: "Anchor-6" 404 822 basechar 0
LayerCount: 2
Fore
SplineSet
233 767 m 0
 198 767 175 794 179 828 c 0
 184 859 210 880 241 880 c 0
 275 880 298 853 293 818 c 0
 289 788 263 767 233 767 c 0
442 767 m 0
 408 767 385 794 389 828 c 0
 394 859 420 880 450 880 c 0
 485 880 508 853 503 818 c 0
 499 788 473 767 442 767 c 0
549 614 m 1
 397 614 l 1
 322 75 l 1
 474 75 l 1
 463 0 l 1
 63 0 l 1
 74 75 l 1
 226 75 l 1
 301 614 l 1
 149 614 l 1
 160 689 l 1
 560 689 l 1
 549 614 l 1
EndSplineSet
EndChar

StartChar: Idotaccent
Encoding: 304 304 50
Width: 600
GlyphClass: 2
Flags: MW
HStem: 0 75<74 226 322 463 63 226> 614 75<160 301 149 560 397 549 397 397> 772 125<329 356.5>
VStem: 279 128
AnchorPoint: "Anchor-8" 0 0 basechar 0
AnchorPoint: "Anchor-7" 0 0 basechar 0
AnchorPoint: "Anchor-6" 420 689 basechar 0
LayerCount: 2
Fore
SplineSet
347 897 m 0
 388 897 412 867 407 830 c 0
 402 796 375 772 338 772 c 0
 298 772 274 802 279 840 c 0
 284 873 311 897 347 897 c 0
549 614 m 1
 397 614 l 1
 322 75 l 1
 474 75 l 1
 463 0 l 1
 63 0 l 1
 74 75 l 1
 226 75 l 1
 301 614 l 1
 149 614 l 1
 160 689 l 1
 560 689 l 1
 549 614 l 1
EndSplineSet
EndChar

StartChar: Igrave
Encoding: 204 204 51
Width: 600
GlyphClass: 2
Flags: MW
HStem: 0 75<74 226 322 463 63 226> 614 75<160 301 149 560 397 549 397 397>
VStem: 63 497
AnchorPoint: "Anchor-8" 0 0 basechar 0
AnchorPoint: "Anchor-7" 0 0 basechar 0
AnchorPoint: "Anchor-6" 420 689 basechar 0
LayerCount: 2
Fore
SplineSet
494 804 m 1
 461 755 l 1
 262 837 l 1
 320 914 l 1
 494 804 l 1
549 614 m 1
 397 614 l 1
 322 75 l 1
 474 75 l 1
 463 0 l 1
 63 0 l 1
 74 75 l 1
 226 75 l 1
 301 614 l 1
 149 614 l 1
 160 689 l 1
 560 689 l 1
 549 614 l 1
EndSplineSet
EndChar

StartChar: Imacron
Encoding: 298 298 52
Width: 600
GlyphClass: 2
Flags: MW
HStem: 0 75<74 226 322 463 63 226> 614 75<160 301 149 560 397 549 397 397> 794 69<201 483 210 474>
VStem: 63 497
AnchorPoint: "Anchor-8" 0 0 basechar 0
AnchorPoint: "Anchor-7" 0 0 basechar 0
AnchorPoint: "Anchor-6" 420 689 basechar 0
LayerCount: 2
Fore
SplineSet
201 794 m 1
 210 863 l 1
 483 863 l 1
 474 794 l 1
 201 794 l 1
549 614 m 1
 397 614 l 1
 322 75 l 1
 474 75 l 1
 463 0 l 1
 63 0 l 1
 74 75 l 1
 226 75 l 1
 301 614 l 1
 149 614 l 1
 160 689 l 1
 560 689 l 1
 549 614 l 1
EndSplineSet
EndChar

StartChar: Iogonek
Encoding: 302 302 53
Width: 600
GlyphClass: 2
Flags: MW
HStem: -232 70<197.5 216> 0 75<74 204 63 226 322 463> 614 75<160 301 149 560 397 549 397 397>
VStem: 90 81
AnchorPoint: "Anchor-8" 0 0 basechar 0
AnchorPoint: "Anchor-7" 0 0 basechar 0
AnchorPoint: "Anchor-6" 420 689 basechar 0
LayerCount: 2
Fore
SplineSet
397 614 m 1
 322 75 l 1
 474 75 l 1
 463 0 l 1
 313 0 l 1
 313 -1 l 1
 205 -45 177 -81 171 -119 c 0
 167 -147 178 -162 217 -162 c 0
 240 -162 257 -159 281 -154 c 1
 266 -226 l 1
 246 -230 228 -232 204 -232 c 0
 125 -232 82 -186 90 -126 c 0
 97 -74 134 -33 204 0 c 1
 63 0 l 1
 74 75 l 1
 226 75 l 1
 301 614 l 1
 149 614 l 1
 160 689 l 1
 560 689 l 1
 549 614 l 1
 397 614 l 1
EndSplineSet
EndChar

StartChar: Itilde
Encoding: 296 296 54
Width: 600
GlyphClass: 2
Flags: MW
HStem: 0 75<74 226 322 463 63 226> 614 75<160 301 149 560 397 549 397 397> 770 70<382.5 409 382.5 417.5> 818 70<275 301.5>
VStem: 63 497
AnchorPoint: "Anchor-8" 0 0 basechar 0
AnchorPoint: "Anchor-7" 0 0 basechar 0
AnchorPoint: "Anchor-6" 420 689 basechar 0
LayerCount: 2
Fore
SplineSet
390 770 m 0xe8
 330 770 316 818 287 818 c 0
 263 818 247 800 227 772 c 1
 172 802 l 1
 198 849 239 888 294 888 c 0xd8
 356 888 368 840 397 840 c 0
 421 840 438 858 458 886 c 1
 513 857 l 1
 486 810 445 770 390 770 c 0xe8
549 614 m 1
 397 614 l 1
 322 75 l 1
 474 75 l 1
 463 0 l 1
 63 0 l 1
 74 75 l 1
 226 75 l 1
 301 614 l 1
 149 614 l 1
 160 689 l 1
 560 689 l 1
 549 614 l 1
EndSplineSet
EndChar

StartChar: J
Encoding: 74 74 55
Width: 600
GlyphClass: 2
Flags: MW
HStem: -12 78<206 273.5 206 314.5> 613 76<260 454 249 560>
VStem: 40 520
AnchorPoint: "Anchor-8" 0 0 basechar 0
AnchorPoint: "Anchor-7" 0 0 basechar 0
AnchorPoint: "Anchor-6" 470 689 basechar 0
LayerCount: 2
Fore
SplineSet
495 228 m 2
 478 108 404 -12 225 -12 c 0
 153 -12 91 12 40 53 c 1
 87 112 l 1
 140 75 186 66 226 66 c 0
 321 66 387 132 401 238 c 2
 454 613 l 1
 249 613 l 1
 260 689 l 1
 560 689 l 1
 495 228 l 2
EndSplineSet
EndChar

StartChar: Jcircumflex
Encoding: 308 308 56
Width: 600
GlyphClass: 2
Flags: MW
HStem: -12 78<206 273.5 206 314.5> 613 76<260 454 249 560>
VStem: 40 552
AnchorPoint: "Anchor-8" 0 0 basechar 0
AnchorPoint: "Anchor-7" 0 0 basechar 0
AnchorPoint: "Anchor-6" 470 689 basechar 0
LayerCount: 2
Fore
SplineSet
592 804 m 1
 548 759 l 1
 432 840 l 1
 295 759 l 1
 260 804 l 1
 410 914 l 1
 471 914 l 1
 592 804 l 1
495 228 m 2
 478 108 404 -12 225 -12 c 0
 153 -12 91 12 40 53 c 1
 87 112 l 1
 140 75 186 66 226 66 c 0
 321 66 387 132 401 238 c 2
 454 613 l 1
 249 613 l 1
 260 689 l 1
 560 689 l 1
 495 228 l 2
EndSplineSet
EndChar

StartChar: K
Encoding: 75 75 57
Width: 600
GlyphClass: 2
Flags: MW
HStem: 0 689<63 255 63 255 160 436 521 551>
VStem: 63 568
AnchorPoint: "Anchor-8" 246 0 basechar 0
AnchorPoint: "Anchor-7" 0 0 basechar 0
AnchorPoint: "Anchor-6" 444 689 basechar 0
LayerCount: 2
Fore
SplineSet
63 0 m 1
 160 689 l 1
 255 689 l 1
 158 0 l 1
 63 0 l 1
521 689 m 1
 631 689 l 1
 325 374 l 1
 551 0 l 1
 436 0 l 1
 215 368 l 1
 521 689 l 1
EndSplineSet
EndChar

StartChar: Kcommaaccent
Encoding: 310 310 58
Width: 600
GlyphClass: 2
Flags: MW
HStem: -290 979<160 200 145 255>
VStem: 63 568 175 113
AnchorPoint: "Anchor-8" 246 0 basechar 0
AnchorPoint: "Anchor-7" 0 0 basechar 0
AnchorPoint: "Anchor-6" 444 689 basechar 0
LayerCount: 2
Fore
SplineSet
63 0 m 1xc0
 160 689 l 1
 255 689 l 1
 158 0 l 1
 63 0 l 1xc0
521 689 m 1
 631 689 l 1
 325 374 l 1
 551 0 l 1
 436 0 l 1
 215 368 l 1
 521 689 l 1
235 -70 m 0xa0
 269 -70 292 -97 288 -131 c 0
 285 -147 279 -162 266 -186 c 2
 200 -290 l 1
 145 -290 l 1
 193 -171 l 1
 180 -160 172 -142 175 -121 c 0
 179 -91 205 -70 235 -70 c 0xa0
EndSplineSet
EndChar

StartChar: L
Encoding: 76 76 59
Width: 600
GlyphClass: 2
Flags: MW
HStem: 0 83<201 491>
VStem: 94 420<0 83>
AnchorPoint: "Anchor-8" 256 0 basechar 0
AnchorPoint: "Anchor-7" 0 0 basechar 0
AnchorPoint: "Anchor-6" 299 689 basechar 0
LayerCount: 2
Fore
SplineSet
191 689 m 1
 286 689 l 1
 201 83 l 1
 514 83 l 1
 491 0 l 1
 94 0 l 1
 191 689 l 1
EndSplineSet
EndChar

StartChar: Lacute
Encoding: 313 313 60
Width: 600
GlyphClass: 2
Flags: MW
HStem: 0 83<201 491>
VStem: 94 420<0 83>
AnchorPoint: "Anchor-8" 256 0 basechar 0
AnchorPoint: "Anchor-7" 0 0 basechar 0
AnchorPoint: "Anchor-6" 299 689 basechar 0
LayerCount: 2
Fore
SplineSet
380 834 m 1
 155 755 l 1
 137 804 l 1
 351 911 l 1
 380 834 l 1
191 689 m 1
 286 689 l 1
 201 83 l 1
 514 83 l 1
 491 0 l 1
 94 0 l 1
 191 689 l 1
EndSplineSet
EndChar

StartChar: Lcaron
Encoding: 317 317 61
Width: 600
GlyphClass: 2
Flags: MW
HStem: 0 83<201 491>
VStem: 94 420<0 83>
AnchorPoint: "Anchor-8" 256 0 basechar 0
AnchorPoint: "Anchor-7" 0 0 basechar 0
AnchorPoint: "Anchor-6" 299 689 basechar 0
LayerCount: 2
Fore
SplineSet
456 689 m 1
 374 505 l 1
 321 513 l 1
 373 699 l 1
 456 689 l 1
191 689 m 1
 286 689 l 1
 201 83 l 1
 514 83 l 1
 491 0 l 1
 94 0 l 1
 191 689 l 1
EndSplineSet
EndChar

StartChar: Lcommaaccent
Encoding: 315 315 62
Width: 600
GlyphClass: 2
Flags: MW
HStem: 0 83<201 491>
VStem: 94 420<0 83> 185 113
AnchorPoint: "Anchor-8" 256 0 basechar 0
AnchorPoint: "Anchor-7" 0 0 basechar 0
AnchorPoint: "Anchor-6" 299 689 basechar 0
LayerCount: 2
Fore
SplineSet
191 689 m 1xc0
 286 689 l 1
 201 83 l 1
 514 83 l 1
 491 0 l 1
 94 0 l 1
 191 689 l 1xc0
245 -70 m 0xa0
 279 -70 302 -97 298 -131 c 0
 295 -147 289 -162 276 -186 c 2
 210 -290 l 1
 155 -290 l 1
 203 -171 l 1
 190 -160 182 -142 185 -121 c 0
 189 -91 215 -70 245 -70 c 0xa0
EndSplineSet
EndChar

StartChar: Ldot
Encoding: 319 319 63
Width: 600
GlyphClass: 2
Flags: MW
HStem: 0 83<201 491> 316 125<425 452.5>
VStem: 94 420<0 83> 375 128
AnchorPoint: "Anchor-8" 256 0 basechar 0
AnchorPoint: "Anchor-7" 0 0 basechar 0
AnchorPoint: "Anchor-6" 299 689 basechar 0
LayerCount: 2
Fore
SplineSet
191 689 m 1xa0
 286 689 l 1
 201 83 l 1
 514 83 l 1
 491 0 l 1
 94 0 l 1
 191 689 l 1xa0
443 441 m 0xd0
 484 441 508 411 503 374 c 0
 498 340 471 316 434 316 c 0
 394 316 370 346 375 384 c 0
 380 417 407 441 443 441 c 0xd0
EndSplineSet
EndChar

StartChar: Lslash
Encoding: 321 321 64
Width: 600
GlyphClass: 2
Flags: MW
HStem: 0 83<164 454>
VStem: 41 436<83 289>
AnchorPoint: "Anchor-8" 219 0 basechar 0
AnchorPoint: "Anchor-7" 0 0 basechar 0
AnchorPoint: "Anchor-6" 262 689 basechar 0
LayerCount: 2
Fore
SplineSet
477 83 m 1
 454 0 l 1
 57 0 l 1
 91 240 l 1
 71 229 l 1
 41 289 l 1
 103 324 l 1
 154 689 l 1
 249 689 l 1
 206 383 l 1
 419 505 l 1
 451 446 l 1
 194 299 l 1
 164 83 l 1
 477 83 l 1
EndSplineSet
EndChar

StartChar: M
Encoding: 77 77 65
Width: 600
GlyphClass: 2
Flags: MW
HStem: 0 689<-8 254 -8 254 465 534 128 444>
VStem: -8 600
LayerCount: 2
Fore
SplineSet
534 0 m 1
 444 0 l 1
 474 356 l 2
 483 453 498 565 502 587 c 1
 499 584 l 1
 325 123 l 1
 234 123 l 1
 186 584 l 1
 181 581 l 1
 178 557 163 439 146 350 c 2
 80 0 l 1
 -8 0 l 1
 128 689 l 1
 254 689 l 1
 295 220 l 1
 465 689 l 1
 592 689 l 1
 534 0 l 1
EndSplineSet
EndChar

StartChar: N
Encoding: 78 78 66
Width: 600
GlyphClass: 2
Flags: MW
HStem: 0 104.5 581.5 107.5
VStem: 43 537
AnchorPoint: "Anchor-8" 226 0 basechar 0
AnchorPoint: "Anchor-7" 0 0 basechar 0
AnchorPoint: "Anchor-6" 420 689 basechar 0
LayerCount: 2
Fore
SplineSet
204 583 m 1
 198 580 l 1
 198 564 192 441 177 333 c 2
 130 0 l 1
 43 0 l 1
 140 689 l 1
 266 689 l 1
 418 103 l 1
 424 106 l 1
 424 122 429 232 446 356 c 2
 493 689 l 1
 580 689 l 1
 483 0 l 1
 354 0 l 1
 204 583 l 1
EndSplineSet
EndChar

StartChar: Nacute
Encoding: 323 323 67
Width: 600
GlyphClass: 2
Flags: MW
HStem: 0 104.5 0 911<43 472 43 472 354 472 472 472 472 483> 581.5 107.5
VStem: 43 537
AnchorPoint: "Anchor-8" 226 0 basechar 0
AnchorPoint: "Anchor-7" 0 0 basechar 0
AnchorPoint: "Anchor-6" 420 689 basechar 0
LayerCount: 2
Fore
SplineSet
501 834 m 1x50
 276 755 l 1
 258 804 l 1
 472 911 l 1
 501 834 l 1x50
204 583 m 1xb0
 198 580 l 1
 198 564 192 441 177 333 c 2
 130 0 l 1
 43 0 l 1
 140 689 l 1
 266 689 l 1
 418 103 l 1
 424 106 l 1
 424 122 429 232 446 356 c 2
 493 689 l 1
 580 689 l 1
 483 0 l 1
 354 0 l 1
 204 583 l 1xb0
EndSplineSet
EndChar

StartChar: Ncaron
Encoding: 327 327 68
Width: 600
GlyphClass: 2
Flags: MW
HStem: 0 104.5 0 909<43 264 43 264 264 354 264 483> 581.5 107.5
VStem: 43 537
AnchorPoint: "Anchor-8" 226 0 basechar 0
AnchorPoint: "Anchor-7" 0 0 basechar 0
AnchorPoint: "Anchor-6" 420 689 basechar 0
LayerCount: 2
Fore
SplineSet
550 864 m 1x50
 401 754 l 1
 340 754 l 1
 218 864 l 1
 264 909 l 1
 378 828 l 1
 517 909 l 1
 550 864 l 1x50
204 583 m 1xb0
 198 580 l 1
 198 564 192 441 177 333 c 2
 130 0 l 1
 43 0 l 1
 140 689 l 1
 266 689 l 1
 418 103 l 1
 424 106 l 1
 424 122 429 232 446 356 c 2
 493 689 l 1
 580 689 l 1
 483 0 l 1
 354 0 l 1
 204 583 l 1xb0
EndSplineSet
EndChar

StartChar: Ncommaaccent
Encoding: 325 325 69
Width: 600
GlyphClass: 2
Flags: MW
HStem: -290 979<140 180 125 266> 0 104.5 581.5 107.5
VStem: 43 537 155 113
AnchorPoint: "Anchor-8" 226 0 basechar 0
AnchorPoint: "Anchor-7" 0 0 basechar 0
AnchorPoint: "Anchor-6" 420 689 basechar 0
LayerCount: 2
Fore
SplineSet
204 583 m 1x70
 198 580 l 1
 198 564 192 441 177 333 c 2
 130 0 l 1
 43 0 l 1
 140 689 l 1
 266 689 l 1
 418 103 l 1
 424 106 l 1
 424 122 429 232 446 356 c 2
 493 689 l 1
 580 689 l 1
 483 0 l 1
 354 0 l 1
 204 583 l 1x70
215 -70 m 0x88
 249 -70 272 -97 268 -131 c 0
 265 -147 259 -162 246 -186 c 2
 180 -290 l 1
 125 -290 l 1
 173 -171 l 1
 160 -160 152 -142 155 -121 c 0
 159 -91 185 -70 215 -70 c 0x88
EndSplineSet
EndChar

StartChar: Eng
Encoding: 330 330 70
Width: 600
GlyphClass: 2
Flags: MW
HStem: -214 903<140 277> 581.5 107.5
VStem: 43 537
LayerCount: 2
Fore
SplineSet
483 -3 m 2xa0
 467 -117 391 -176 277 -214 c 1
 258 -140 l 1
 352 -105 382 -65 391 3 c 1
 354 0 l 1
 204 583 l 1
 198 580 l 1
 198 564 192 441 177 333 c 2
 130 0 l 1
 43 0 l 1
 140 689 l 1
 266 689 l 1x60
 418 103 l 1
 424 106 l 1
 424 122 429 232 446 356 c 2
 493 689 l 1
 580 689 l 1
 483 -3 l 2xa0
EndSplineSet
EndChar

StartChar: Ntilde
Encoding: 209 209 71
Width: 600
GlyphClass: 2
Flags: MW
HStem: 0 104.5 581.5 107.5 770 70<382.5 409 382.5 417.5> 818 70<275 301.5>
VStem: 43 537
AnchorPoint: "Anchor-8" 226 0 basechar 0
AnchorPoint: "Anchor-7" 0 0 basechar 0
AnchorPoint: "Anchor-6" 420 689 basechar 0
LayerCount: 2
Fore
SplineSet
390 770 m 0xe8
 330 770 316 818 287 818 c 0
 263 818 247 800 227 772 c 1
 172 802 l 1
 198 849 239 888 294 888 c 0xd8
 356 888 368 840 397 840 c 0
 421 840 438 858 458 886 c 1
 513 857 l 1
 486 810 445 770 390 770 c 0xe8
204 583 m 1xd8
 198 580 l 1
 198 564 192 441 177 333 c 2
 130 0 l 1
 43 0 l 1
 140 689 l 1
 266 689 l 1
 418 103 l 1
 424 106 l 1
 424 122 429 232 446 356 c 2
 493 689 l 1
 580 689 l 1
 483 0 l 1
 354 0 l 1
 204 583 l 1xd8
EndSplineSet
EndChar

StartChar: O
Encoding: 79 79 72
Width: 600
GlyphClass: 2
Flags: MW
HStem: -12 78<214.5 325 214.5 348.5> 623 78<298 410>
VStem: 49.35 96.02 477.2 96.39
AnchorPoint: "Anchor-8" 0 0 basechar 0
AnchorPoint: "Anchor-7" 0 0 basechar 0
AnchorPoint: "Anchor-6" 420 689 basechar 0
LayerCount: 2
Fore
SplineSet
567 339 m 0
 537 131 432 -12 265 -12 c 0
 94 -12 26 132 56 348 c 0
 85 556 190 701 357 701 c 0
 528 701 597 555 567 339 c 0
469 349 m 0
 494 529 465 623 355 623 c 0
 241 623 179 522 153 338 c 0
 128 158 161 66 268 66 c 0
 382 66 443 165 469 349 c 0
EndSplineSet
EndChar

StartChar: Oacute
Encoding: 211 211 73
Width: 600
GlyphClass: 2
Flags: MW
HStem: -12 78<214.5 325 214.5 348.5> 623 78<298 410>
VStem: 49.35 96.02 477.2 96.39
AnchorPoint: "Anchor-8" 0 0 basechar 0
AnchorPoint: "Anchor-7" 0 0 basechar 0
AnchorPoint: "Anchor-6" 420 689 basechar 0
LayerCount: 2
Fore
SplineSet
501 834 m 1
 276 755 l 1
 258 804 l 1
 472 911 l 1
 501 834 l 1
567 339 m 0
 537 131 432 -12 265 -12 c 0
 94 -12 26 132 56 348 c 0
 85 556 190 701 357 701 c 0
 528 701 597 555 567 339 c 0
469 349 m 0
 494 529 465 623 355 623 c 0
 241 623 179 522 153 338 c 0
 128 158 161 66 268 66 c 0
 382 66 443 165 469 349 c 0
EndSplineSet
EndChar

StartChar: Obreve
Encoding: 334 334 74
Width: 600
GlyphClass: 2
Flags: MW
HStem: -12 78<214.5 325 214.5 348.5> 623 78<298 410> 758 70<350.5 397.5 350.5 410.5>
VStem: 49.35 96.02 477.2 96.39
AnchorPoint: "Anchor-8" 0 0 basechar 0
AnchorPoint: "Anchor-7" 0 0 basechar 0
AnchorPoint: "Anchor-6" 420 689 basechar 0
LayerCount: 2
Fore
SplineSet
371 758 m 0
 289 758 233 810 235 884 c 1
 296 892 l 1
 305 852 328 828 373 828 c 0
 422 828 458 856 478 896 c 1
 537 878 l 1
 519 804 450 758 371 758 c 0
567 339 m 0
 537 131 432 -12 265 -12 c 0
 94 -12 26 132 56 348 c 0
 85 556 190 701 357 701 c 0
 528 701 597 555 567 339 c 0
469 349 m 0
 494 529 465 623 355 623 c 0
 241 623 179 522 153 338 c 0
 128 158 161 66 268 66 c 0
 382 66 443 165 469 349 c 0
EndSplineSet
EndChar

StartChar: Ocircumflex
Encoding: 212 212 75
Width: 600
GlyphClass: 2
Flags: MW
HStem: -12 78<214.5 325 214.5 348.5> 623 78<298 410>
VStem: 49.35 96.02 477.2 96.39
AnchorPoint: "Anchor-8" 0 0 basechar 0
AnchorPoint: "Anchor-7" 0 0 basechar 0
AnchorPoint: "Anchor-6" 420 689 basechar 0
LayerCount: 2
Fore
SplineSet
542 804 m 1
 498 759 l 1
 382 840 l 1
 245 759 l 1
 210 804 l 1
 360 914 l 1
 421 914 l 1
 542 804 l 1
567 339 m 0
 537 131 432 -12 265 -12 c 0
 94 -12 26 132 56 348 c 0
 85 556 190 701 357 701 c 0
 528 701 597 555 567 339 c 0
469 349 m 0
 494 529 465 623 355 623 c 0
 241 623 179 522 153 338 c 0
 128 158 161 66 268 66 c 0
 382 66 443 165 469 349 c 0
EndSplineSet
EndChar

StartChar: Odieresis
Encoding: 214 214 76
Width: 600
GlyphClass: 2
Flags: MW
HStem: -12 78<214.5 325 214.5 348.5> 623 78<298 410> 767 113<225.5 248 435 457.5>
VStem: 49.35 96.02 179 114 389 114 477.2 96.39
AnchorPoint: "Anchor-8" 0 0 basechar 0
AnchorPoint: "Anchor-7" 0 0 basechar 0
AnchorPoint: "Anchor-6" 404 822 basechar 0
LayerCount: 2
Fore
SplineSet
233 767 m 0xfa
 198 767 175 794 179 828 c 0
 184 859 210 880 241 880 c 0
 275 880 298 853 293 818 c 0
 289 788 263 767 233 767 c 0xfa
442 767 m 0xfc
 408 767 385 794 389 828 c 0
 394 859 420 880 450 880 c 0
 485 880 508 853 503 818 c 0
 499 788 473 767 442 767 c 0xfc
567 339 m 0
 537 131 432 -12 265 -12 c 0
 94 -12 26 132 56 348 c 0
 85 556 190 701 357 701 c 0xfa
 528 701 597 555 567 339 c 0
469 349 m 0xfa
 494 529 465 623 355 623 c 0
 241 623 179 522 153 338 c 0
 128 158 161 66 268 66 c 0
 382 66 443 165 469 349 c 0xfa
EndSplineSet
EndChar

StartChar: Ograve
Encoding: 210 210 77
Width: 600
GlyphClass: 2
Flags: MW
HStem: -12 78<214.5 325 214.5 348.5> 623 78<298 410>
VStem: 49.35 96.02 477.2 96.39
AnchorPoint: "Anchor-8" 0 0 basechar 0
AnchorPoint: "Anchor-7" 0 0 basechar 0
AnchorPoint: "Anchor-6" 420 689 basechar 0
LayerCount: 2
Fore
SplineSet
494 804 m 1
 461 755 l 1
 262 837 l 1
 320 914 l 1
 494 804 l 1
567 339 m 0
 537 131 432 -12 265 -12 c 0
 94 -12 26 132 56 348 c 0
 85 556 190 701 357 701 c 0
 528 701 597 555 567 339 c 0
469 349 m 0
 494 529 465 623 355 623 c 0
 241 623 179 522 153 338 c 0
 128 158 161 66 268 66 c 0
 382 66 443 165 469 349 c 0
EndSplineSet
EndChar

StartChar: Ohungarumlaut
Encoding: 336 336 78
Width: 600
GlyphClass: 2
Flags: MW
HStem: -12 78<214.5 325 214.5 348.5> 623 78<298 410>
VStem: 49.35 96.02 477.2 96.39
AnchorPoint: "Anchor-8" 0 0 basechar 0
AnchorPoint: "Anchor-7" 0 0 basechar 0
AnchorPoint: "Anchor-6" 420 689 basechar 0
LayerCount: 2
Fore
SplineSet
320 958 m 1
 394 921 l 1
 271 755 l 1
 216 782 l 1
 320 958 l 1
493 958 m 1
 565 918 l 1
 433 753 l 1
 380 782 l 1
 493 958 l 1
567 339 m 0
 537 131 432 -12 265 -12 c 0
 94 -12 26 132 56 348 c 0
 85 556 190 701 357 701 c 0
 528 701 597 555 567 339 c 0
469 349 m 0
 494 529 465 623 355 623 c 0
 241 623 179 522 153 338 c 0
 128 158 161 66 268 66 c 0
 382 66 443 165 469 349 c 0
EndSplineSet
EndChar

StartChar: Omacron
Encoding: 332 332 79
Width: 600
GlyphClass: 2
Flags: MW
HStem: -12 78<214.5 325 214.5 348.5> 623 78<298 410> 794 69<201 483 210 474>
VStem: 49.35 96.02 477.2 96.39
AnchorPoint: "Anchor-8" 0 0 basechar 0
AnchorPoint: "Anchor-7" 0 0 basechar 0
AnchorPoint: "Anchor-6" 420 689 basechar 0
LayerCount: 2
Fore
SplineSet
201 794 m 1
 210 863 l 1
 483 863 l 1
 474 794 l 1
 201 794 l 1
567 339 m 0
 537 131 432 -12 265 -12 c 0
 94 -12 26 132 56 348 c 0
 85 556 190 701 357 701 c 0
 528 701 597 555 567 339 c 0
469 349 m 0
 494 529 465 623 355 623 c 0
 241 623 179 522 153 338 c 0
 128 158 161 66 268 66 c 0
 382 66 443 165 469 349 c 0
EndSplineSet
EndChar

StartChar: Oslash
Encoding: 216 216 80
Width: 600
GlyphClass: 2
Flags: MW
HStem: -12 78<260.5 325 260.5 348.5> 623 78<298 362.5>
VStem: 49.43 94.61 478.56 94.98
AnchorPoint: "Anchor-8" 0 0 basechar 0
AnchorPoint: "Anchor-7" 0 0 basechar 0
AnchorPoint: "Anchor-6" 420 689 basechar 0
LayerCount: 2
Fore
SplineSet
491 657 m 1
 562 598 587 484 567 339 c 0
 537 131 432 -12 265 -12 c 0
 242 -12 221 -9 202 -4 c 1
 155 -110 l 1
 77 -89 l 1
 131 32 l 1
 61 90 36 203 56 348 c 0
 85 556 190 701 357 701 c 0
 381 701 403 698 423 693 c 1
 470 803 l 1
 547 782 l 1
 491 657 l 1
153 338 m 0
 136 216 143 142 175 103 c 1
 396 619 l 1
 384 622 370 623 355 623 c 0
 241 623 179 522 153 338 c 0
469 349 m 0
 486 472 481 547 449 587 c 1
 227 70 l 1
 239 67 253 66 268 66 c 0
 382 66 443 165 469 349 c 0
EndSplineSet
EndChar

StartChar: Oslashacute
Encoding: 510 510 81
Width: 600
GlyphClass: 2
Flags: MW
HStem: -12 78<260.5 325 260.5 348.5> 623 78<298 362.5>
VStem: 49.43 94.61 478.56 94.98
AnchorPoint: "Anchor-8" 0 0 basechar 0
AnchorPoint: "Anchor-7" 0 0 basechar 0
AnchorPoint: "Anchor-6" 420 689 basechar 0
LayerCount: 2
Fore
SplineSet
276 755 m 1
 258 804 l 1
 472 911 l 1
 501 834 l 1
 276 755 l 1
491 657 m 1
 562 598 587 484 567 339 c 0
 537 131 432 -12 265 -12 c 0
 242 -12 221 -9 202 -4 c 1
 155 -110 l 1
 77 -89 l 1
 131 32 l 1
 61 90 36 203 56 348 c 0
 85 556 190 701 357 701 c 0
 381 701 403 698 423 693 c 1
 470 803 l 1
 547 782 l 1
 491 657 l 1
153 338 m 0
 136 216 143 142 175 103 c 1
 396 619 l 1
 384 622 370 623 355 623 c 0
 241 623 179 522 153 338 c 0
469 349 m 0
 486 472 481 547 449 587 c 1
 227 70 l 1
 239 67 253 66 268 66 c 0
 382 66 443 165 469 349 c 0
EndSplineSet
EndChar

StartChar: Otilde
Encoding: 213 213 82
Width: 600
GlyphClass: 2
Flags: MW
HStem: -12 78<214.5 325 214.5 348.5> 623 78<298 410> 770 70<382.5 409 382.5 417.5> 818 70<275 301.5>
VStem: 49.35 96.02 477.2 96.39
AnchorPoint: "Anchor-8" 0 0 basechar 0
AnchorPoint: "Anchor-7" 0 0 basechar 0
AnchorPoint: "Anchor-6" 420 689 basechar 0
LayerCount: 2
Fore
SplineSet
390 770 m 0xec
 330 770 316 818 287 818 c 0
 263 818 247 800 227 772 c 1
 172 802 l 1
 198 849 239 888 294 888 c 0xdc
 356 888 368 840 397 840 c 0
 421 840 438 858 458 886 c 1
 513 857 l 1
 486 810 445 770 390 770 c 0xec
567 339 m 0xdc
 537 131 432 -12 265 -12 c 0
 94 -12 26 132 56 348 c 0
 85 556 190 701 357 701 c 0
 528 701 597 555 567 339 c 0xdc
469 349 m 0
 494 529 465 623 355 623 c 0
 241 623 179 522 153 338 c 0
 128 158 161 66 268 66 c 0
 382 66 443 165 469 349 c 0
EndSplineSet
EndChar

StartChar: OE
Encoding: 338 338 83
Width: 600
GlyphClass: 2
Flags: MW
HStem: -0.5 74.5 310.5 75 613 75.5 625 76<227.5 284 199.5 308.5>
VStem: 2.53999 94.64 353.63 87.82
LayerCount: 2
Fore
SplineSet
270 701 m 0xdc
 298 701 321 696 345 688 c 1
 667 689 l 1
 645 614 l 1
 407 612 l 1xec
 436 568 448 494 438 384 c 1
 588 387 l 1
 578 312 l 1
 427 309 l 1
 408 195 375 120 329 73 c 1
 589 75 l 1
 578 0 l 1
 249 -1 l 1
 225 -8 202 -12 178 -12 c 0
 32 -12 -21 112 12 348 c 0
 44 576 129 701 270 701 c 0xdc
268 625 m 0xec
 187 625 137 542 108 338 c 0
 80 138 107 63 181 63 c 0
 264 63 313 145 342 349 c 0
 370 549 349 625 268 625 c 0xec
EndSplineSet
EndChar

StartChar: P
Encoding: 80 80 84
Width: 600
GlyphClass: 2
Flags: MW
HStem: 253 75<214 293 204 305> 615 74<254 348 348 351 254 254>
VStem: 490.18 100.41
LayerCount: 2
Fore
SplineSet
588 471 m 0
 566 312 449 253 293 253 c 2
 204 253 l 1
 168 0 l 1
 73 0 l 1
 170 689 l 1
 348 689 l 2
 515 689 609 618 588 471 c 0
488 480 m 0
 503 581 443 615 351 615 c 2
 254 615 l 1
 214 328 l 1
 305 328 l 2
 398 328 472 364 488 480 c 0
EndSplineSet
EndChar

StartChar: Thorn
Encoding: 222 222 85
Width: 600
GlyphClass: 2
Flags: MW
HStem: 127 75<188 276 178 291> 499 74<230 332 240 332 332 336>
VStem: 473.35 99.33
LayerCount: 2
Fore
SplineSet
240 573 m 1
 332 573 l 2
 500 573 591 501 570 350 c 0
 548 191 432 127 276 127 c 2
 178 127 l 1
 160 0 l 1
 65 0 l 1
 162 689 l 1
 257 689 l 1
 240 573 l 1
230 499 m 1
 188 202 l 1
 291 202 l 2
 383 202 455 239 471 358 c 0
 486 460 430 499 336 499 c 2
 230 499 l 1
EndSplineSet
EndChar

StartChar: Q
Encoding: 81 81 86
Width: 600
GlyphClass: 2
Flags: MW
HStem: -10 76<214.5 314.5> 623 78<298 410>
VStem: 49.33 96.04 477.2 96.39
LayerCount: 2
Fore
SplineSet
567 339 m 0
 547 196 496 85 385 26 c 1
 473 8 520 -36 541 -138 c 1
 441 -171 l 1
 414 -65 373 -10 256 -10 c 0
 94 -10 26 132 56 348 c 0
 85 556 190 701 357 701 c 0
 528 701 597 555 567 339 c 0
469 349 m 0
 494 529 465 623 355 623 c 0
 241 623 179 522 153 338 c 0
 128 158 161 66 268 66 c 0
 382 66 443 165 469 349 c 0
EndSplineSet
EndChar

StartChar: R
Encoding: 82 82 87
Width: 600
GlyphClass: 2
Flags: MW
HStem: 292 73<206 285 196 300> 615 74<241 336 336 338 241 241>
VStem: 60 514.19
AnchorPoint: "Anchor-8" 226 0 basechar 0
AnchorPoint: "Anchor-7" 0 0 basechar 0
AnchorPoint: "Anchor-6" 420 689 basechar 0
LayerCount: 2
Fore
SplineSet
572 489 m 0
 557 388 479 327 382 303 c 1
 539 0 l 1
 428 0 l 1
 285 292 l 1
 196 292 l 1
 155 0 l 1
 60 0 l 1
 157 689 l 1
 336 689 l 2
 508 689 590 620 572 489 c 0
472 499 m 0
 484 583 441 615 338 615 c 2
 241 615 l 1
 206 365 l 1
 300 365 l 2
 396 365 459 404 472 499 c 0
EndSplineSet
EndChar

StartChar: Racute
Encoding: 340 340 88
Width: 600
GlyphClass: 2
Flags: MW
HStem: 292 73<206 285 196 300> 615 74<241 336 336 338 241 241>
VStem: 60 514.19
AnchorPoint: "Anchor-8" 226 0 basechar 0
AnchorPoint: "Anchor-7" 0 0 basechar 0
AnchorPoint: "Anchor-6" 420 689 basechar 0
LayerCount: 2
Fore
SplineSet
501 834 m 1
 276 755 l 1
 258 804 l 1
 472 911 l 1
 501 834 l 1
572 489 m 0
 557 388 479 327 382 303 c 1
 539 0 l 1
 428 0 l 1
 285 292 l 1
 196 292 l 1
 155 0 l 1
 60 0 l 1
 157 689 l 1
 336 689 l 2
 508 689 590 620 572 489 c 0
472 499 m 0
 484 583 441 615 338 615 c 2
 241 615 l 1
 206 365 l 1
 300 365 l 2
 396 365 459 404 472 499 c 0
EndSplineSet
EndChar

StartChar: Rcaron
Encoding: 344 344 89
Width: 600
GlyphClass: 2
Flags: MW
HStem: 292 73<206 285 196 300> 615 74<241 336 336 338 241 241>
VStem: 60 514.19
AnchorPoint: "Anchor-8" 226 0 basechar 0
AnchorPoint: "Anchor-7" 0 0 basechar 0
AnchorPoint: "Anchor-6" 420 689 basechar 0
LayerCount: 2
Fore
SplineSet
550 864 m 1
 401 754 l 1
 340 754 l 1
 218 864 l 1
 264 909 l 1
 378 828 l 1
 517 909 l 1
 550 864 l 1
572 489 m 0
 557 388 479 327 382 303 c 1
 539 0 l 1
 428 0 l 1
 285 292 l 1
 196 292 l 1
 155 0 l 1
 60 0 l 1
 157 689 l 1
 336 689 l 2
 508 689 590 620 572 489 c 0
472 499 m 0
 484 583 441 615 338 615 c 2
 241 615 l 1
 206 365 l 1
 300 365 l 2
 396 365 459 404 472 499 c 0
EndSplineSet
EndChar

StartChar: Rcommaaccent
Encoding: 342 342 90
Width: 600
GlyphClass: 2
Flags: MW
HStem: 292 73<206 285 196 300> 615 74<241 336 336 338 241 241>
VStem: 60 514.19 155 113
AnchorPoint: "Anchor-8" 226 0 basechar 0
AnchorPoint: "Anchor-7" 0 0 basechar 0
AnchorPoint: "Anchor-6" 420 689 basechar 0
LayerCount: 2
Fore
SplineSet
572 489 m 0xe0
 557 388 479 327 382 303 c 1
 539 0 l 1
 428 0 l 1
 285 292 l 1
 196 292 l 1
 155 0 l 1
 60 0 l 1
 157 689 l 1
 336 689 l 2
 508 689 590 620 572 489 c 0xe0
472 499 m 0
 484 583 441 615 338 615 c 2
 241 615 l 1
 206 365 l 1
 300 365 l 2
 396 365 459 404 472 499 c 0
215 -70 m 0xd0
 249 -70 272 -97 268 -131 c 0
 265 -147 259 -162 246 -186 c 2
 180 -290 l 1
 125 -290 l 1
 173 -171 l 1
 160 -160 152 -142 155 -121 c 0
 159 -91 185 -70 215 -70 c 0xd0
EndSplineSet
EndChar

StartChar: S
Encoding: 83 83 91
Width: 600
GlyphClass: 2
Flags: MW
HStem: -12 78<213.5 296 213.5 330> 623 78<319 385>
VStem: 15 555<79 619> 431 100.33
AnchorPoint: "Anchor-8" 223 0 basechar 0
AnchorPoint: "Anchor-7" 0 0 basechar 0
AnchorPoint: "Anchor-6" 426 689 basechar 0
LayerCount: 2
Fore
SplineSet
529 187 m 0xe0
 513 69 410 -12 250 -12 c 0
 144 -12 65 23 15 79 c 1
 75 137 l 1
 117 92 173 66 254 66 c 0
 338 66 419 109 431 194 c 0
 440 257 414 287 305 321 c 0
 170 362 92 415 108 526 c 0
 123 630 224 701 355 701 c 0
 453 701 518 670 570 619 c 1
 511 563 l 1
 468 606 413 623 357 623 c 0
 281 623 214 588 204 520 c 0
 196 464 232 438 353 400 c 0xd0
 461 368 548 320 529 187 c 0xe0
EndSplineSet
EndChar

StartChar: Sacute
Encoding: 346 346 92
Width: 600
GlyphClass: 2
Flags: MW
HStem: -12 78<213.5 296 213.5 330> 623 78<319 385>
VStem: 15 555<79 619> 431 100.33
AnchorPoint: "Anchor-8" 223 0 basechar 0
AnchorPoint: "Anchor-7" 0 0 basechar 0
AnchorPoint: "Anchor-6" 426 689 basechar 0
LayerCount: 2
Fore
SplineSet
507 834 m 1xe0
 282 755 l 1
 264 804 l 1
 478 911 l 1
 507 834 l 1xe0
529 187 m 0
 513 69 410 -12 250 -12 c 0
 144 -12 65 23 15 79 c 1
 75 137 l 1
 117 92 173 66 254 66 c 0
 338 66 419 109 431 194 c 0
 440 257 414 287 305 321 c 0
 170 362 92 415 108 526 c 0
 123 630 224 701 355 701 c 0
 453 701 518 670 570 619 c 1
 511 563 l 1
 468 606 413 623 357 623 c 0
 281 623 214 588 204 520 c 0
 196 464 232 438 353 400 c 0xd0
 461 368 548 320 529 187 c 0
EndSplineSet
EndChar

StartChar: Scaron
Encoding: 352 352 93
Width: 600
GlyphClass: 2
Flags: MW
HStem: -12 78<213.5 296 213.5 330> 623 78<319 385>
VStem: 15 555<79 619> 431 100.33
AnchorPoint: "Anchor-8" 223 0 basechar 0
AnchorPoint: "Anchor-7" 0 0 basechar 0
AnchorPoint: "Anchor-6" 426 689 basechar 0
LayerCount: 2
Fore
SplineSet
556 864 m 1xe0
 407 754 l 1
 346 754 l 1
 224 864 l 1
 270 909 l 1
 384 828 l 1
 523 909 l 1
 556 864 l 1xe0
529 187 m 0
 513 69 410 -12 250 -12 c 0
 144 -12 65 23 15 79 c 1
 75 137 l 1
 117 92 173 66 254 66 c 0
 338 66 419 109 431 194 c 0
 440 257 414 287 305 321 c 0
 170 362 92 415 108 526 c 0
 123 630 224 701 355 701 c 0
 453 701 518 670 570 619 c 1
 511 563 l 1
 468 606 413 623 357 623 c 0
 281 623 214 588 204 520 c 0
 196 464 232 438 353 400 c 0xd0
 461 368 548 320 529 187 c 0
EndSplineSet
EndChar

StartChar: Scedilla
Encoding: 350 350 94
Width: 600
GlyphClass: 2
Flags: MW
HStem: -241 60<163 191.5 163 215.5> -99 43 -12 78<241 250 241 241> 623 78<319 385>
VStem: 242 75 431 100.33
AnchorPoint: "Anchor-8" 223 0 basechar 0
AnchorPoint: "Anchor-7" 0 0 basechar 0
AnchorPoint: "Anchor-6" 426 689 basechar 0
LayerCount: 2
Fore
SplineSet
353 400 m 0
 461 368 548 320 529 187 c 0
 513 69 410 -12 250 -12 c 2
 241 -12 l 1
 234 -56 l 1
 299 -62 323 -103 317 -146 c 0
 308 -210 248 -241 183 -241 c 0
 140 -241 103 -230 78 -215 c 1
 110 -166 l 1
 127 -176 153 -181 173 -181 c 0
 210 -181 237 -167 242 -136 c 0
 246 -103 216 -99 162 -99 c 1
 180 -7 l 1
 109 5 53 36 15 79 c 1
 75 137 l 1
 117 92 173 66 254 66 c 0
 338 66 419 109 431 194 c 0
 440 257 414 287 305 321 c 0
 170 362 92 415 108 526 c 0
 123 630 224 701 355 701 c 0
 453 701 518 670 570 619 c 1
 511 563 l 1
 468 606 413 623 357 623 c 0
 281 623 214 588 204 520 c 0
 196 464 232 438 353 400 c 0
EndSplineSet
EndChar

StartChar: Scircumflex
Encoding: 348 348 95
Width: 600
GlyphClass: 2
Flags: MW
HStem: -12 78<213.5 296 213.5 330> 623 78<319 385>
VStem: 15 555<79 619> 431 100.33
AnchorPoint: "Anchor-8" 223 0 basechar 0
AnchorPoint: "Anchor-7" 0 0 basechar 0
AnchorPoint: "Anchor-6" 426 689 basechar 0
LayerCount: 2
Fore
SplineSet
548 804 m 1xe0
 504 759 l 1
 388 840 l 1
 251 759 l 1
 216 804 l 1
 366 914 l 1
 427 914 l 1
 548 804 l 1xe0
529 187 m 0
 513 69 410 -12 250 -12 c 0
 144 -12 65 23 15 79 c 1
 75 137 l 1
 117 92 173 66 254 66 c 0
 338 66 419 109 431 194 c 0
 440 257 414 287 305 321 c 0
 170 362 92 415 108 526 c 0
 123 630 224 701 355 701 c 0
 453 701 518 670 570 619 c 1
 511 563 l 1
 468 606 413 623 357 623 c 0
 281 623 214 588 204 520 c 0
 196 464 232 438 353 400 c 0xd0
 461 368 548 320 529 187 c 0
EndSplineSet
EndChar

StartChar: Scommaaccent
Encoding: 536 536 96
Width: 600
GlyphClass: 2
Flags: MW
HStem: -12 78<213.5 296 213.5 330> 623 78<319 385>
VStem: 15 555<79 619> 152 113 431 100.33
AnchorPoint: "Anchor-8" 223 0 basechar 0
AnchorPoint: "Anchor-7" 0 0 basechar 0
AnchorPoint: "Anchor-6" 426 689 basechar 0
LayerCount: 2
Fore
SplineSet
529 187 m 0xe0
 513 69 410 -12 250 -12 c 0
 144 -12 65 23 15 79 c 1
 75 137 l 1
 117 92 173 66 254 66 c 0
 338 66 419 109 431 194 c 0
 440 257 414 287 305 321 c 0
 170 362 92 415 108 526 c 0
 123 630 224 701 355 701 c 0
 453 701 518 670 570 619 c 1
 511 563 l 1
 468 606 413 623 357 623 c 0
 281 623 214 588 204 520 c 0
 196 464 232 438 353 400 c 0xc8
 461 368 548 320 529 187 c 0xe0
212 -70 m 0xd0
 246 -70 269 -97 265 -131 c 0
 262 -147 256 -162 243 -186 c 2
 177 -290 l 1
 122 -290 l 1
 170 -171 l 1
 157 -160 149 -142 152 -121 c 0
 156 -91 182 -70 212 -70 c 0xd0
EndSplineSet
EndChar

StartChar: T
Encoding: 84 84 97
Width: 600
GlyphClass: 2
Flags: MW
HStem: 609 80<98 300 87 622 395 395 395 601>
VStem: 87 535<609 689>
AnchorPoint: "Anchor-8" 225 0 basechar 0
AnchorPoint: "Anchor-7" 0 0 basechar 0
AnchorPoint: "Anchor-6" 419 689 basechar 0
LayerCount: 2
Fore
SplineSet
309 0 m 1
 214 0 l 1
 300 609 l 1
 87 609 l 1
 98 689 l 1
 622 689 l 1
 601 609 l 1
 395 609 l 1
 309 0 l 1
EndSplineSet
EndChar

StartChar: Tbar
Encoding: 358 358 98
Width: 600
GlyphClass: 2
Flags: MW
HStem: 346 70<143 226 134 236 331 488> 609 80<61 263 50 585 358 564 358 358>
VStem: 50 535<609 689>
AnchorPoint: "Anchor-8" 188 0 basechar 0
AnchorPoint: "Anchor-7" 0 0 basechar 0
AnchorPoint: "Anchor-6" 382 689 basechar 0
LayerCount: 2
Fore
SplineSet
358 609 m 1
 331 416 l 1
 497 416 l 1
 488 346 l 1
 321 346 l 1
 272 0 l 1
 177 0 l 1
 226 346 l 1
 134 346 l 1
 143 416 l 1
 236 416 l 1
 263 609 l 1
 50 609 l 1
 61 689 l 1
 585 689 l 1
 564 609 l 1
 358 609 l 1
EndSplineSet
EndChar

StartChar: Tcaron
Encoding: 356 356 99
Width: 600
GlyphClass: 2
Flags: MW
HStem: 609 80<98 300 87 622 395 395 395 601>
VStem: 87 535<609 689>
AnchorPoint: "Anchor-8" 225 0 basechar 0
AnchorPoint: "Anchor-7" 0 0 basechar 0
AnchorPoint: "Anchor-6" 419 689 basechar 0
LayerCount: 2
Fore
SplineSet
549 864 m 1
 400 754 l 1
 339 754 l 1
 217 864 l 1
 263 909 l 1
 377 828 l 1
 516 909 l 1
 549 864 l 1
309 0 m 1
 214 0 l 1
 300 609 l 1
 87 609 l 1
 98 689 l 1
 622 689 l 1
 601 609 l 1
 395 609 l 1
 309 0 l 1
EndSplineSet
EndChar

StartChar: uni0162
Encoding: 354 354 100
Width: 600
GlyphClass: 2
Flags: MW
HStem: -241 60<165 193.5 165 217.5> -99 43 0 16 609 80<98 300 87 622 395 601 395 395>
VStem: 244 75
AnchorPoint: "Anchor-8" 225 0 basechar 0
AnchorPoint: "Anchor-7" 0 0 basechar 0
AnchorPoint: "Anchor-6" 419 689 basechar 0
LayerCount: 2
Fore
SplineSet
622 689 m 1
 601 609 l 1
 395 609 l 1
 309 0 l 1
 245 0 l 1
 236 -56 l 1
 301 -62 325 -103 319 -146 c 0
 310 -210 250 -241 185 -241 c 0
 142 -241 105 -230 80 -215 c 1
 112 -166 l 1
 129 -176 155 -181 175 -181 c 0
 212 -181 239 -167 244 -136 c 0
 248 -103 218 -99 164 -99 c 1
 187 16 l 1
 216 16 l 1
 300 609 l 1
 87 609 l 1
 98 689 l 1
 622 689 l 1
EndSplineSet
EndChar

StartChar: uni021A
Encoding: 538 538 101
Width: 600
GlyphClass: 2
Flags: MW
HStem: 609 80<98 300 87 622 395 395 395 601>
VStem: 87 535<609 689> 154 113
AnchorPoint: "Anchor-8" 225 0 basechar 0
AnchorPoint: "Anchor-7" 0 0 basechar 0
AnchorPoint: "Anchor-6" 419 689 basechar 0
LayerCount: 2
Fore
SplineSet
309 0 m 1xc0
 214 0 l 1
 300 609 l 1
 87 609 l 1
 98 689 l 1
 622 689 l 1
 601 609 l 1
 395 609 l 1
 309 0 l 1xc0
214 -70 m 0xa0
 248 -70 271 -97 267 -131 c 0
 264 -147 258 -162 245 -186 c 2
 179 -290 l 1
 124 -290 l 1
 172 -171 l 1
 159 -160 151 -142 154 -121 c 0
 158 -91 184 -70 214 -70 c 0xa0
EndSplineSet
EndChar

StartChar: U
Encoding: 85 85 102
Width: 600
GlyphClass: 2
Flags: MW
HStem: -12 80<225 313.5 225 334.5>
VStem: 60.81 95.03
AnchorPoint: "Anchor-8" 0 0 basechar 0
AnchorPoint: "Anchor-7" 0 0 basechar 0
AnchorPoint: "Anchor-6" 420 689 basechar 0
LayerCount: 2
Fore
SplineSet
525 221 m 2
 505 81 405 -12 264 -12 c 0
 117 -12 44 87 64 227 c 2
 129 689 l 1
 224 689 l 1
 159 225 l 2
 144 118 182 68 268 68 c 0
 359 68 415 124 430 231 c 2
 495 689 l 1
 591 689 l 1
 525 221 l 2
EndSplineSet
EndChar

StartChar: Uacute
Encoding: 218 218 103
Width: 600
GlyphClass: 2
Flags: MW
HStem: -12 80<225 313.5 225 334.5>
VStem: 60.81 95.03
AnchorPoint: "Anchor-8" 0 0 basechar 0
AnchorPoint: "Anchor-7" 0 0 basechar 0
AnchorPoint: "Anchor-6" 420 689 basechar 0
LayerCount: 2
Fore
SplineSet
501 834 m 1
 276 755 l 1
 258 804 l 1
 472 911 l 1
 501 834 l 1
525 221 m 2
 505 81 405 -12 264 -12 c 0
 117 -12 44 87 64 227 c 2
 129 689 l 1
 224 689 l 1
 159 225 l 2
 144 118 182 68 268 68 c 0
 359 68 415 124 430 231 c 2
 495 689 l 1
 591 689 l 1
 525 221 l 2
EndSplineSet
EndChar

StartChar: Ubreve
Encoding: 364 364 104
Width: 600
GlyphClass: 2
Flags: MW
HStem: -12 80<225 313.5 225 334.5> 758 70<350.5 397.5 350.5 410.5>
VStem: 60.81 95.03
AnchorPoint: "Anchor-8" 0 0 basechar 0
AnchorPoint: "Anchor-7" 0 0 basechar 0
AnchorPoint: "Anchor-6" 420 689 basechar 0
LayerCount: 2
Fore
SplineSet
371 758 m 0
 289 758 233 810 235 884 c 1
 296 892 l 1
 305 852 328 828 373 828 c 0
 422 828 458 856 478 896 c 1
 537 878 l 1
 519 804 450 758 371 758 c 0
525 221 m 2
 505 81 405 -12 264 -12 c 0
 117 -12 44 87 64 227 c 2
 129 689 l 1
 224 689 l 1
 159 225 l 2
 144 118 182 68 268 68 c 0
 359 68 415 124 430 231 c 2
 495 689 l 1
 591 689 l 1
 525 221 l 2
EndSplineSet
EndChar

StartChar: Ucircumflex
Encoding: 219 219 105
Width: 600
GlyphClass: 2
Flags: MW
HStem: -12 80<225 313.5 225 334.5>
VStem: 60.81 95.03
AnchorPoint: "Anchor-8" 0 0 basechar 0
AnchorPoint: "Anchor-7" 0 0 basechar 0
AnchorPoint: "Anchor-6" 420 689 basechar 0
LayerCount: 2
Fore
SplineSet
542 804 m 1
 498 759 l 1
 382 840 l 1
 245 759 l 1
 210 804 l 1
 360 914 l 1
 421 914 l 1
 542 804 l 1
525 221 m 2
 505 81 405 -12 264 -12 c 0
 117 -12 44 87 64 227 c 2
 129 689 l 1
 224 689 l 1
 159 225 l 2
 144 118 182 68 268 68 c 0
 359 68 415 124 430 231 c 2
 495 689 l 1
 591 689 l 1
 525 221 l 2
EndSplineSet
EndChar

StartChar: Udieresis
Encoding: 220 220 106
Width: 600
GlyphClass: 2
Flags: MW
HStem: -12 80<225 313.5 225 334.5> 767 113<225.5 248 435 457.5>
VStem: 60.81 95.03 179 114 389 114
AnchorPoint: "Anchor-8" 0 0 basechar 0
AnchorPoint: "Anchor-7" 0 0 basechar 0
AnchorPoint: "Anchor-6" 404 822 basechar 0
LayerCount: 2
Fore
SplineSet
233 767 m 0
 198 767 175 794 179 828 c 0
 184 859 210 880 241 880 c 0
 275 880 298 853 293 818 c 0
 289 788 263 767 233 767 c 0
442 767 m 0
 408 767 385 794 389 828 c 0
 394 859 420 880 450 880 c 0
 485 880 508 853 503 818 c 0
 499 788 473 767 442 767 c 0
525 221 m 2
 505 81 405 -12 264 -12 c 0
 117 -12 44 87 64 227 c 2
 129 689 l 1
 224 689 l 1
 159 225 l 2xa0
 144 118 182 68 268 68 c 0
 359 68 415 124 430 231 c 2
 495 689 l 1
 591 689 l 1
 525 221 l 2
EndSplineSet
EndChar

StartChar: Ugrave
Encoding: 217 217 107
Width: 600
GlyphClass: 2
Flags: MW
HStem: -12 80<225 313.5 225 334.5>
VStem: 60.81 95.03
AnchorPoint: "Anchor-8" 0 0 basechar 0
AnchorPoint: "Anchor-7" 0 0 basechar 0
AnchorPoint: "Anchor-6" 420 689 basechar 0
LayerCount: 2
Fore
SplineSet
494 804 m 1
 461 755 l 1
 262 837 l 1
 320 914 l 1
 494 804 l 1
525 221 m 2
 505 81 405 -12 264 -12 c 0
 117 -12 44 87 64 227 c 2
 129 689 l 1
 224 689 l 1
 159 225 l 2
 144 118 182 68 268 68 c 0
 359 68 415 124 430 231 c 2
 495 689 l 1
 591 689 l 1
 525 221 l 2
EndSplineSet
EndChar

StartChar: Uhungarumlaut
Encoding: 368 368 108
Width: 600
GlyphClass: 2
Flags: MW
HStem: -12 80<225 313.5 225 334.5>
VStem: 60.81 95.03
AnchorPoint: "Anchor-8" 0 0 basechar 0
AnchorPoint: "Anchor-7" 0 0 basechar 0
AnchorPoint: "Anchor-6" 420 689 basechar 0
LayerCount: 2
Fore
SplineSet
320 958 m 1
 394 921 l 1
 271 755 l 1
 216 782 l 1
 320 958 l 1
493 958 m 1
 565 918 l 1
 433 753 l 1
 380 782 l 1
 493 958 l 1
525 221 m 2
 505 81 405 -12 264 -12 c 0
 117 -12 44 87 64 227 c 2
 129 689 l 1
 224 689 l 1
 159 225 l 2
 144 118 182 68 268 68 c 0
 359 68 415 124 430 231 c 2
 495 689 l 1
 591 689 l 1
 525 221 l 2
EndSplineSet
EndChar

StartChar: Umacron
Encoding: 362 362 109
Width: 600
GlyphClass: 2
Flags: MW
HStem: -12 80<225 313.5 225 334.5> 794 69<201 483 210 474>
VStem: 60.81 95.03
AnchorPoint: "Anchor-8" 0 0 basechar 0
AnchorPoint: "Anchor-7" 0 0 basechar 0
AnchorPoint: "Anchor-6" 420 689 basechar 0
LayerCount: 2
Fore
SplineSet
201 794 m 1
 210 863 l 1
 483 863 l 1
 474 794 l 1
 201 794 l 1
525 221 m 2
 505 81 405 -12 264 -12 c 0
 117 -12 44 87 64 227 c 2
 129 689 l 1
 224 689 l 1
 159 225 l 2
 144 118 182 68 268 68 c 0
 359 68 415 124 430 231 c 2
 495 689 l 1
 591 689 l 1
 525 221 l 2
EndSplineSet
EndChar

StartChar: Uogonek
Encoding: 370 370 110
Width: 600
GlyphClass: 2
Flags: MW
HStem: -232 70<228.5 247>
VStem: 60.68 95.16 121 81
AnchorPoint: "Anchor-8" 0 0 basechar 0
AnchorPoint: "Anchor-7" 0 0 basechar 0
AnchorPoint: "Anchor-6" 420 689 basechar 0
LayerCount: 2
Fore
SplineSet
591 689 m 1xc0
 525 221 l 2
 509 109 442 27 344 -1 c 1
 236 -45 208 -81 202 -119 c 0
 198 -147 209 -162 248 -162 c 0
 271 -162 288 -159 312 -154 c 1
 297 -226 l 1
 277 -230 259 -232 235 -232 c 0
 156 -232 113 -186 121 -126 c 0xa0
 128 -78 159 -40 218 -8 c 1
 102 10 46 102 64 227 c 2
 129 689 l 1
 224 689 l 1
 159 225 l 2
 144 118 182 68 268 68 c 0
 359 68 415 124 430 231 c 2
 495 689 l 1
 591 689 l 1xc0
EndSplineSet
EndChar

StartChar: Uring
Encoding: 366 366 111
Width: 600
GlyphClass: 2
Flags: MW
HStem: -12 80<225 313.5 225 334.5> 737 49<318 350.5 318 366.5> 898 50<339 371.5>
VStem: 60.81 95.03 231 60 398 60
AnchorPoint: "Anchor-8" 0 0 basechar 0
AnchorPoint: "Anchor-7" 0 0 basechar 0
AnchorPoint: "Anchor-6" 420 689 basechar 0
LayerCount: 2
Fore
SplineSet
355 948 m 0
 424 948 466 898 458 837 c 0
 450 781 399 737 334 737 c 0
 265 737 223 787 231 847 c 0
 239 904 290 948 355 948 c 0
356 898 m 0
 322 898 296 874 291 837 c 0
 286 804 303 786 333 786 c 0
 368 786 393 810 398 847 c 0
 403 880 387 898 356 898 c 0
525 221 m 2
 505 81 405 -12 264 -12 c 0
 117 -12 44 87 64 227 c 2
 129 689 l 1
 224 689 l 1
 159 225 l 2
 144 118 182 68 268 68 c 0
 359 68 415 124 430 231 c 2
 495 689 l 1
 591 689 l 1
 525 221 l 2
EndSplineSet
EndChar

StartChar: Utilde
Encoding: 360 360 112
Width: 600
GlyphClass: 2
Flags: MW
HStem: -12 80<225 313.5 225 334.5> 770 70<382.5 409 382.5 417.5> 818 70<275 301.5>
VStem: 60.81 95.03
AnchorPoint: "Anchor-8" 0 0 basechar 0
AnchorPoint: "Anchor-7" 0 0 basechar 0
AnchorPoint: "Anchor-6" 420 689 basechar 0
LayerCount: 2
Fore
SplineSet
390 770 m 0xd0
 330 770 316 818 287 818 c 0
 263 818 247 800 227 772 c 1
 172 802 l 1
 198 849 239 888 294 888 c 0xb0
 356 888 368 840 397 840 c 0
 421 840 438 858 458 886 c 1
 513 857 l 1
 486 810 445 770 390 770 c 0xd0
525 221 m 2xb0
 505 81 405 -12 264 -12 c 0
 117 -12 44 87 64 227 c 2
 129 689 l 1
 224 689 l 1
 159 225 l 2
 144 118 182 68 268 68 c 0
 359 68 415 124 430 231 c 2
 495 689 l 1
 591 689 l 1
 525 221 l 2xb0
EndSplineSet
EndChar

StartChar: V
Encoding: 86 86 113
Width: 600
GlyphClass: 2
Flags: MW
HStem: 0 689<83 315 83 213>
VStem: 83 556<689 689>
LayerCount: 2
Fore
SplineSet
541 689 m 1
 639 689 l 1
 315 0 l 1
 213 0 l 1
 83 689 l 1
 183 689 l 1
 278 102 l 1
 541 689 l 1
EndSplineSet
EndChar

StartChar: W
Encoding: 87 87 114
Width: 600
GlyphClass: 2
Flags: MW
HStem: 0 109<141 145 141 184 61 145> 0 112<408 412 408 457 337 412> 503 106<330 334 330 330>
VStem: 62.5 87 335.5 71
AnchorPoint: "Anchor-8" 0 0 basechar 0
AnchorPoint: "Anchor-7" 0 0 basechar 0
AnchorPoint: "Anchor-6" 420 689 basechar 0
LayerCount: 2
Fore
SplineSet
457 0 m 1x78
 337 0 l 1x78
 334 503 l 1
 330 503 l 1
 184 0 l 1
 61 0 l 1
 64 689 l 1
 158 689 l 1
 141 109 l 1
 145 109 l 1xb8
 295 609 l 1
 405 609 l 1
 408 112 l 1
 412 112 l 1
 569 689 l 1
 656 689 l 1
 457 0 l 1x78
EndSplineSet
EndChar

StartChar: Wacute
Encoding: 7810 7810 115
Width: 600
GlyphClass: 2
Flags: MW
HStem: 0 109<141 145 141 184 61 145> 0 112<408 412 408 457 337 412> 503 106<330 334 330 330>
VStem: 62.5 87 335.5 71
AnchorPoint: "Anchor-8" 0 0 basechar 0
AnchorPoint: "Anchor-7" 0 0 basechar 0
AnchorPoint: "Anchor-6" 420 689 basechar 0
LayerCount: 2
Fore
SplineSet
501 834 m 1x78
 276 755 l 1
 258 804 l 1
 472 911 l 1
 501 834 l 1x78
457 0 m 1
 337 0 l 1x78
 334 503 l 1
 330 503 l 1
 184 0 l 1
 61 0 l 1
 64 689 l 1
 158 689 l 1
 141 109 l 1
 145 109 l 1xb8
 295 609 l 1
 405 609 l 1
 408 112 l 1
 412 112 l 1
 569 689 l 1
 656 689 l 1
 457 0 l 1
EndSplineSet
EndChar

StartChar: Wcircumflex
Encoding: 372 372 116
Width: 600
GlyphClass: 2
Flags: MW
HStem: 0 109<141 145 141 184 61 145> 0 112<408 412 408 457 337 412> 503 106<330 334 330 330>
VStem: 62.5 87 335.5 71
AnchorPoint: "Anchor-8" 0 0 basechar 0
AnchorPoint: "Anchor-7" 0 0 basechar 0
AnchorPoint: "Anchor-6" 420 689 basechar 0
LayerCount: 2
Fore
SplineSet
542 804 m 1x78
 498 759 l 1
 382 840 l 1
 245 759 l 1
 210 804 l 1
 360 914 l 1
 421 914 l 1
 542 804 l 1x78
457 0 m 1
 337 0 l 1x78
 334 503 l 1
 330 503 l 1
 184 0 l 1
 61 0 l 1
 64 689 l 1
 158 689 l 1
 141 109 l 1
 145 109 l 1xb8
 295 609 l 1
 405 609 l 1
 408 112 l 1
 412 112 l 1
 569 689 l 1
 656 689 l 1
 457 0 l 1
EndSplineSet
EndChar

StartChar: Wdieresis
Encoding: 7812 7812 117
Width: 600
GlyphClass: 2
Flags: MW
HStem: 0 109<141 145 141 184 61 145> 0 112<408 412 408 457 337 412> 503 106<330 334 330 330> 767 113<225.5 248 435 457.5>
VStem: 62.5 87 179 114 335.5 71 389 114
AnchorPoint: "Anchor-8" 0 0 basechar 0
AnchorPoint: "Anchor-7" 0 0 basechar 0
AnchorPoint: "Anchor-6" 404 822 basechar 0
LayerCount: 2
Fore
SplineSet
233 767 m 0x7d
 198 767 175 794 179 828 c 0
 184 859 210 880 241 880 c 0
 275 880 298 853 293 818 c 0
 289 788 263 767 233 767 c 0x7d
442 767 m 0
 408 767 385 794 389 828 c 0
 394 859 420 880 450 880 c 0
 485 880 508 853 503 818 c 0
 499 788 473 767 442 767 c 0
457 0 m 1
 337 0 l 1x7a
 334 503 l 1
 330 503 l 1
 184 0 l 1
 61 0 l 1
 64 689 l 1
 158 689 l 1
 141 109 l 1
 145 109 l 1xba
 295 609 l 1
 405 609 l 1
 408 112 l 1
 412 112 l 1x7a
 569 689 l 1
 656 689 l 1
 457 0 l 1
EndSplineSet
EndChar

StartChar: Wgrave
Encoding: 7808 7808 118
Width: 600
GlyphClass: 2
Flags: MW
HStem: 0 109<141 145 141 184 61 145> 0 112<408 412 408 457 337 412> 503 106<330 334 330 330>
VStem: 62.5 87 335.5 71
AnchorPoint: "Anchor-8" 0 0 basechar 0
AnchorPoint: "Anchor-7" 0 0 basechar 0
AnchorPoint: "Anchor-6" 420 689 basechar 0
LayerCount: 2
Fore
SplineSet
494 804 m 1x78
 461 755 l 1
 262 837 l 1
 320 914 l 1
 494 804 l 1x78
457 0 m 1
 337 0 l 1x78
 334 503 l 1
 330 503 l 1
 184 0 l 1
 61 0 l 1
 64 689 l 1
 158 689 l 1
 141 109 l 1
 145 109 l 1xb8
 295 609 l 1
 405 609 l 1
 408 112 l 1
 412 112 l 1
 569 689 l 1
 656 689 l 1
 457 0 l 1
EndSplineSet
EndChar

StartChar: X
Encoding: 88 88 119
Width: 600
GlyphClass: 2
Flags: MW
HStem: 0 689<-10 213 -10 213 506 534 107 428>
VStem: -10 620
LayerCount: 2
Fore
SplineSet
213 689 m 1
 321 429 l 1
 506 689 l 1
 610 689 l 1
 370 372 l 1
 534 0 l 1
 428 0 l 1
 306 306 l 1
 94 0 l 1
 -10 0 l 1
 257 367 l 1
 107 689 l 1
 213 689 l 1
EndSplineSet
EndChar

StartChar: Y
Encoding: 89 89 120
Width: 600
GlyphClass: 2
Flags: MW
HStem: 0 689<81 311 81 215>
VStem: 81 560<689 689>
AnchorPoint: "Anchor-8" 0 0 basechar 0
AnchorPoint: "Anchor-7" 0 0 basechar 0
AnchorPoint: "Anchor-6" 423 689 basechar 0
LayerCount: 2
Fore
SplineSet
311 0 m 1
 215 0 l 1
 253 264 l 1
 81 689 l 1
 184 689 l 1
 312 349 l 1
 540 689 l 1
 641 689 l 1
 349 265 l 1
 311 0 l 1
EndSplineSet
EndChar

StartChar: Yacute
Encoding: 221 221 121
Width: 600
GlyphClass: 2
Flags: MW
HStem: 0 911<215 475 215 475>
VStem: 81 560<689 689>
AnchorPoint: "Anchor-8" 0 0 basechar 0
AnchorPoint: "Anchor-7" 0 0 basechar 0
AnchorPoint: "Anchor-6" 423 689 basechar 0
LayerCount: 2
Fore
SplineSet
504 834 m 1
 279 755 l 1
 261 804 l 1
 475 911 l 1
 504 834 l 1
311 0 m 1
 215 0 l 1
 253 264 l 1
 81 689 l 1
 184 689 l 1
 312 349 l 1
 540 689 l 1
 641 689 l 1
 349 265 l 1
 311 0 l 1
EndSplineSet
EndChar

StartChar: Ycircumflex
Encoding: 374 374 122
Width: 600
GlyphClass: 2
Flags: MW
HStem: 0 914<215 424 215 424>
VStem: 81 560<689 689>
AnchorPoint: "Anchor-8" 0 0 basechar 0
AnchorPoint: "Anchor-7" 0 0 basechar 0
AnchorPoint: "Anchor-6" 423 689 basechar 0
LayerCount: 2
Fore
SplineSet
545 804 m 1
 501 759 l 1
 385 840 l 1
 248 759 l 1
 213 804 l 1
 363 914 l 1
 424 914 l 1
 545 804 l 1
311 0 m 1
 215 0 l 1
 253 264 l 1
 81 689 l 1
 184 689 l 1
 312 349 l 1
 540 689 l 1
 641 689 l 1
 349 265 l 1
 311 0 l 1
EndSplineSet
EndChar

StartChar: Ydieresis
Encoding: 376 376 123
Width: 600
GlyphClass: 2
Flags: MW
HStem: 767 113<228.5 251 438 460.5>
VStem: 182 114 392 114
AnchorPoint: "Anchor-8" 0 0 basechar 0
AnchorPoint: "Anchor-7" 0 0 basechar 0
AnchorPoint: "Anchor-6" 407 822 basechar 0
LayerCount: 2
Fore
SplineSet
236 767 m 0
 201 767 178 794 182 828 c 0
 187 859 213 880 244 880 c 0
 278 880 301 853 296 818 c 0
 292 788 266 767 236 767 c 0
445 767 m 0
 411 767 388 794 392 828 c 0
 397 859 423 880 453 880 c 0
 488 880 511 853 506 818 c 0
 502 788 476 767 445 767 c 0
311 0 m 1
 215 0 l 1
 253 264 l 1
 81 689 l 1
 184 689 l 1
 312 349 l 1
 540 689 l 1
 641 689 l 1
 349 265 l 1
 311 0 l 1
EndSplineSet
EndChar

StartChar: Ygrave
Encoding: 7922 7922 124
Width: 600
GlyphClass: 2
Flags: MW
HStem: 0 914<215 323 215 323>
VStem: 81 560<689 689>
AnchorPoint: "Anchor-8" 0 0 basechar 0
AnchorPoint: "Anchor-7" 0 0 basechar 0
AnchorPoint: "Anchor-6" 423 689 basechar 0
LayerCount: 2
Fore
SplineSet
497 804 m 1
 464 755 l 1
 265 837 l 1
 323 914 l 1
 497 804 l 1
311 0 m 1
 215 0 l 1
 253 264 l 1
 81 689 l 1
 184 689 l 1
 312 349 l 1
 540 689 l 1
 641 689 l 1
 349 265 l 1
 311 0 l 1
EndSplineSet
EndChar

StartChar: Z
Encoding: 90 90 125
Width: 600
GlyphClass: 2
Flags: MW
HStem: 0 81<149 483> 609 80<164 476 153 591>
VStem: 31 560
AnchorPoint: "Anchor-8" 0 0 basechar 0
AnchorPoint: "Anchor-7" 0 0 basechar 0
AnchorPoint: "Anchor-6" 438 689 basechar 0
LayerCount: 2
Fore
SplineSet
505 81 m 1
 483 0 l 1
 31 0 l 1
 41 76 l 1
 476 609 l 1
 153 609 l 1
 164 689 l 1
 591 689 l 1
 581 612 l 1
 149 81 l 1
 505 81 l 1
EndSplineSet
EndChar

StartChar: Zacute
Encoding: 377 377 126
Width: 600
GlyphClass: 2
Flags: MW
HStem: 0 81<149 483> 609 80<164 476 153 591>
VStem: 31 560
AnchorPoint: "Anchor-8" 0 0 basechar 0
AnchorPoint: "Anchor-7" 0 0 basechar 0
AnchorPoint: "Anchor-6" 438 689 basechar 0
LayerCount: 2
Fore
SplineSet
519 834 m 1
 294 755 l 1
 276 804 l 1
 490 911 l 1
 519 834 l 1
505 81 m 1
 483 0 l 1
 31 0 l 1
 41 76 l 1
 476 609 l 1
 153 609 l 1
 164 689 l 1
 591 689 l 1
 581 612 l 1
 149 81 l 1
 505 81 l 1
EndSplineSet
EndChar

StartChar: Zcaron
Encoding: 381 381 127
Width: 600
GlyphClass: 2
Flags: MW
HStem: 0 81<149 483> 609 80<164 476 153 591>
VStem: 31 560
AnchorPoint: "Anchor-8" 0 0 basechar 0
AnchorPoint: "Anchor-7" 0 0 basechar 0
AnchorPoint: "Anchor-6" 438 689 basechar 0
LayerCount: 2
Fore
SplineSet
568 864 m 1
 419 754 l 1
 358 754 l 1
 236 864 l 1
 282 909 l 1
 396 828 l 1
 535 909 l 1
 568 864 l 1
505 81 m 1
 483 0 l 1
 31 0 l 1
 41 76 l 1
 476 609 l 1
 153 609 l 1
 164 689 l 1
 591 689 l 1
 581 612 l 1
 149 81 l 1
 505 81 l 1
EndSplineSet
EndChar

StartChar: Zdotaccent
Encoding: 379 379 128
Width: 600
GlyphClass: 2
Flags: MW
HStem: 0 81<149 483> 609 80<164 476 153 591> 772 125<347 374.5>
VStem: 297 128
AnchorPoint: "Anchor-8" 0 0 basechar 0
AnchorPoint: "Anchor-7" 0 0 basechar 0
AnchorPoint: "Anchor-6" 438 689 basechar 0
LayerCount: 2
Fore
SplineSet
365 897 m 0
 406 897 430 867 425 830 c 0
 420 796 393 772 356 772 c 0
 316 772 292 802 297 840 c 0
 302 873 329 897 365 897 c 0
505 81 m 1
 483 0 l 1
 31 0 l 1
 41 76 l 1
 476 609 l 1
 153 609 l 1
 164 689 l 1
 591 689 l 1
 581 612 l 1
 149 81 l 1
 505 81 l 1
EndSplineSet
EndChar

StartChar: Cacute.loclPLK
Encoding: 1114113 -1 129
Width: 600
GlyphClass: 2
Flags: MW
HStem: -12 80<275.5 371 275.5 374.5> 623 78<363 444.5>
VStem: 66.38 97.9
AnchorPoint: "Anchor-8" 276 0 basechar 0
AnchorPoint: "Anchor-7" 0 0 basechar 0
AnchorPoint: "Anchor-6" 485 689 basechar 0
LayerCount: 2
Fore
SplineSet
575 874 m 1
 423 729 l 1
 381 757 l 1
 508 921 l 1
 575 874 l 1
415 701 m 0
 508 701 561 675 611 631 c 1
 554 574 l 1
 516 610 470 623 419 623 c 0
 307 623 199 548 170 340 c 0
 142 141 219 68 332 68 c 0
 410 68 460 98 501 128 c 1
 543 63 l 1
 494 21 423 -12 326 -12 c 0
 154 -12 39 116 72 350 c 0
 104 580 255 701 415 701 c 0
EndSplineSet
EndChar

StartChar: Nacute.loclPLK
Encoding: 1114114 -1 130
Width: 600
GlyphClass: 2
Flags: MW
HStem: 0 104.5 0 921<43 443 43 443 354 443 443 443 443 483> 581.5 107.5
VStem: 43 537
AnchorPoint: "Anchor-8" 226 0 basechar 0
AnchorPoint: "Anchor-7" 0 0 basechar 0
AnchorPoint: "Anchor-6" 420 689 basechar 0
LayerCount: 2
Fore
SplineSet
510 874 m 1x50
 358 729 l 1
 316 757 l 1
 443 921 l 1
 510 874 l 1x50
204 583 m 1xb0
 198 580 l 1
 198 564 192 441 177 333 c 2
 130 0 l 1
 43 0 l 1
 140 689 l 1
 266 689 l 1
 418 103 l 1
 424 106 l 1
 424 122 429 232 446 356 c 2
 493 689 l 1
 580 689 l 1
 483 0 l 1
 354 0 l 1
 204 583 l 1xb0
EndSplineSet
EndChar

StartChar: Oacute.loclPLK
Encoding: 1114115 -1 131
Width: 600
GlyphClass: 2
Flags: MW
HStem: -12 78<214.5 325 214.5 348.5> 623 78<298 410>
VStem: 49.35 96.02 477.2 96.39
AnchorPoint: "Anchor-8" 0 0 basechar 0
AnchorPoint: "Anchor-7" 0 0 basechar 0
AnchorPoint: "Anchor-6" 420 689 basechar 0
LayerCount: 2
Fore
SplineSet
510 874 m 1
 358 729 l 1
 316 757 l 1
 443 921 l 1
 510 874 l 1
567 339 m 0
 537 131 432 -12 265 -12 c 0
 94 -12 26 132 56 348 c 0
 85 556 190 701 357 701 c 0
 528 701 597 555 567 339 c 0
469 349 m 0
 494 529 465 623 355 623 c 0
 241 623 179 522 153 338 c 0
 128 158 161 66 268 66 c 0
 382 66 443 165 469 349 c 0
EndSplineSet
EndChar

StartChar: Sacute.loclPLK
Encoding: 1114116 -1 132
Width: 600
GlyphClass: 2
Flags: MW
HStem: -12 78<213.5 296 213.5 330> 623 78<319 385>
VStem: 15 555<79 619> 431 100.33
AnchorPoint: "Anchor-8" 223 0 basechar 0
AnchorPoint: "Anchor-7" 0 0 basechar 0
AnchorPoint: "Anchor-6" 426 689 basechar 0
LayerCount: 2
Fore
SplineSet
516 874 m 1xe0
 364 729 l 1
 322 757 l 1
 449 921 l 1
 516 874 l 1xe0
529 187 m 0
 513 69 410 -12 250 -12 c 0
 144 -12 65 23 15 79 c 1
 75 137 l 1
 117 92 173 66 254 66 c 0
 338 66 419 109 431 194 c 0
 440 257 414 287 305 321 c 0
 170 362 92 415 108 526 c 0
 123 630 224 701 355 701 c 0
 453 701 518 670 570 619 c 1
 511 563 l 1
 468 606 413 623 357 623 c 0
 281 623 214 588 204 520 c 0
 196 464 232 438 353 400 c 0xd0
 461 368 548 320 529 187 c 0
EndSplineSet
EndChar

StartChar: Zacute.loclPLK
Encoding: 1114117 -1 133
Width: 600
GlyphClass: 2
Flags: MW
HStem: 0 81<149 483> 609 80<164 476 153 591>
VStem: 31 560
AnchorPoint: "Anchor-8" 0 0 basechar 0
AnchorPoint: "Anchor-7" 0 0 basechar 0
AnchorPoint: "Anchor-6" 438 689 basechar 0
LayerCount: 2
Fore
SplineSet
528 874 m 1
 376 729 l 1
 334 757 l 1
 461 921 l 1
 528 874 l 1
505 81 m 1
 483 0 l 1
 31 0 l 1
 41 76 l 1
 476 609 l 1
 153 609 l 1
 164 689 l 1
 591 689 l 1
 581 612 l 1
 149 81 l 1
 505 81 l 1
EndSplineSet
EndChar

StartChar: a
Encoding: 97 97 134
Width: 600
GlyphClass: 2
Flags: MW
HStem: -12 69<196 234> 260 61<319 320 320 390> 464 75<291 336.5>
VStem: 376 85 401 97.14
AnchorPoint: "Anchor-8" 0 0 basechar 0
AnchorPoint: "Anchor-7" 0 0 basechar 0
AnchorPoint: "Anchor-6" 366 527 basechar 0
LayerCount: 2
Fore
SplineSet
461 116 m 2xf0
 455 74 464 60 493 51 c 1
 465 -12 l 1
 419 -6 384 17 376 62 c 1xf0
 330 11 267 -12 201 -12 c 0
 93 -12 36 56 50 156 c 0
 65 263 159 321 319 321 c 2
 398 321 l 1
 404 365 l 2
 415 439 374 464 299 464 c 0
 262 464 212 455 156 436 c 1
 137 506 l 1
 205 530 266 539 316 539 c 0xe8
 452 539 511 470 496 364 c 2
 461 116 l 2xf0
228 57 m 0xe8
 280 57 334 86 371 132 c 1
 390 260 l 1
 320 260 l 2
 207 260 156 216 147 148 c 0
 138 87 164 57 228 57 c 0xe8
EndSplineSet
EndChar

StartChar: aacute
Encoding: 225 225 135
Width: 600
GlyphClass: 2
Flags: MW
HStem: -12 69<196 234> 260 61<319 320 320 390> 464 75<291 336.5>
VStem: 376 85 401 97.14
AnchorPoint: "Anchor-8" 0 0 basechar 0
AnchorPoint: "Anchor-7" 0 0 basechar 0
AnchorPoint: "Anchor-6" 366 527 basechar 0
LayerCount: 2
Fore
SplineSet
435 791 m 1xe8
 472 714 l 1
 255 622 l 1
 231 672 l 1
 435 791 l 1xe8
461 116 m 2xf0
 455 74 464 60 493 51 c 1
 465 -12 l 1
 419 -6 384 17 376 62 c 1xf0
 330 11 267 -12 201 -12 c 0
 93 -12 36 56 50 156 c 0
 65 263 159 321 319 321 c 2
 398 321 l 1
 404 365 l 2
 415 439 374 464 299 464 c 0
 262 464 212 455 156 436 c 1
 137 506 l 1
 205 530 266 539 316 539 c 0xe8
 452 539 511 470 496 364 c 2
 461 116 l 2xf0
228 57 m 0xe8
 280 57 334 86 371 132 c 1
 390 260 l 1
 320 260 l 2
 207 260 156 216 147 148 c 0
 138 87 164 57 228 57 c 0xe8
EndSplineSet
EndChar

StartChar: abreve
Encoding: 259 259 136
Width: 600
GlyphClass: 2
Flags: MW
HStem: -12 69<196 234> 260 61<319 320 320 390> 464 75<291 336.5> 628 69<324.5 372 324.5 391>
VStem: 211 61<771 779> 376 85 401 97.14
AnchorPoint: "Anchor-8" 0 0 basechar 0
AnchorPoint: "Anchor-7" 0 0 basechar 0
AnchorPoint: "Anchor-6" 366 527 basechar 0
LayerCount: 2
Fore
SplineSet
345 628 m 0xfa
 250 628 210 707 211 771 c 1
 272 779 l 1
 279 729 302 697 347 697 c 0
 397 697 433 733 454 783 c 1
 513 765 l 1
 496 701 437 628 345 628 c 0xfa
461 116 m 2xfc
 455 74 464 60 493 51 c 1
 465 -12 l 1
 419 -6 384 17 376 62 c 1xfc
 330 11 267 -12 201 -12 c 0
 93 -12 36 56 50 156 c 0
 65 263 159 321 319 321 c 2
 398 321 l 1
 404 365 l 2
 415 439 374 464 299 464 c 0
 262 464 212 455 156 436 c 1
 137 506 l 1
 205 530 266 539 316 539 c 0xfa
 452 539 511 470 496 364 c 2
 461 116 l 2xfc
228 57 m 0xfa
 280 57 334 86 371 132 c 1
 390 260 l 1
 320 260 l 2
 207 260 156 216 147 148 c 0
 138 87 164 57 228 57 c 0xfa
EndSplineSet
EndChar

StartChar: acircumflex
Encoding: 226 226 137
Width: 600
GlyphClass: 2
Flags: MW
HStem: -12 69<196 234> 260 61<319 320 320 390> 464 75<291 336.5>
VStem: 376 85 401 97.14
AnchorPoint: "Anchor-8" 0 0 basechar 0
AnchorPoint: "Anchor-7" 0 0 basechar 0
AnchorPoint: "Anchor-6" 366 527 basechar 0
LayerCount: 2
Fore
SplineSet
183 671 m 1xe8
 335 792 l 1
 396 792 l 1
 515 671 l 1
 470 627 l 1
 358 718 l 1
 220 627 l 1
 183 671 l 1xe8
461 116 m 2xf0
 455 74 464 60 493 51 c 1
 465 -12 l 1
 419 -6 384 17 376 62 c 1xf0
 330 11 267 -12 201 -12 c 0
 93 -12 36 56 50 156 c 0
 65 263 159 321 319 321 c 2
 398 321 l 1
 404 365 l 2
 415 439 374 464 299 464 c 0
 262 464 212 455 156 436 c 1
 137 506 l 1
 205 530 266 539 316 539 c 0xe8
 452 539 511 470 496 364 c 2
 461 116 l 2xf0
228 57 m 0xe8
 280 57 334 86 371 132 c 1
 390 260 l 1
 320 260 l 2
 207 260 156 216 147 148 c 0
 138 87 164 57 228 57 c 0xe8
EndSplineSet
EndChar

StartChar: adieresis
Encoding: 228 228 138
Width: 600
GlyphClass: 2
Flags: MW
HStem: -12 69<196 234> 260 61<319 320 320 390> 464 75<291 336.5> 647 113<237.5 260 447 469.5>
VStem: 191 114 376 85 401 97.14 401 114
AnchorPoint: "Anchor-8" 0 0 basechar 0
AnchorPoint: "Anchor-7" 0 0 basechar 0
AnchorPoint: "Anchor-6" 416 702 basechar 0
LayerCount: 2
Fore
SplineSet
245 647 m 0xfa
 210 647 187 674 191 708 c 0
 196 739 222 760 253 760 c 0
 287 760 310 733 305 698 c 0
 301 668 275 647 245 647 c 0xfa
454 647 m 0xf9
 420 647 397 674 401 708 c 0
 406 739 432 760 462 760 c 0
 497 760 520 733 515 698 c 0
 511 668 485 647 454 647 c 0xf9
461 116 m 2xfc
 455 74 464 60 493 51 c 1
 465 -12 l 1
 419 -6 384 17 376 62 c 1xfc
 330 11 267 -12 201 -12 c 0
 93 -12 36 56 50 156 c 0
 65 263 159 321 319 321 c 2
 398 321 l 1
 404 365 l 2
 415 439 374 464 299 464 c 0
 262 464 212 455 156 436 c 1
 137 506 l 1
 205 530 266 539 316 539 c 0xfa
 452 539 511 470 496 364 c 2
 461 116 l 2xfc
228 57 m 0xfa
 280 57 334 86 371 132 c 1
 390 260 l 1
 320 260 l 2
 207 260 156 216 147 148 c 0
 138 87 164 57 228 57 c 0xfa
EndSplineSet
EndChar

StartChar: agrave
Encoding: 224 224 139
Width: 600
GlyphClass: 2
Flags: MW
HStem: -12 69<196 234> 260 61<319 320 320 390> 464 75<291 336.5>
VStem: 376 85 401 97.14
AnchorPoint: "Anchor-8" 0 0 basechar 0
AnchorPoint: "Anchor-7" 0 0 basechar 0
AnchorPoint: "Anchor-6" 366 527 basechar 0
LayerCount: 2
Fore
SplineSet
237 715 m 1xe8
 294 792 l 1
 466 672 l 1
 431 622 l 1
 237 715 l 1xe8
461 116 m 2xf0
 455 74 464 60 493 51 c 1
 465 -12 l 1
 419 -6 384 17 376 62 c 1xf0
 330 11 267 -12 201 -12 c 0
 93 -12 36 56 50 156 c 0
 65 263 159 321 319 321 c 2
 398 321 l 1
 404 365 l 2
 415 439 374 464 299 464 c 0
 262 464 212 455 156 436 c 1
 137 506 l 1
 205 530 266 539 316 539 c 0xe8
 452 539 511 470 496 364 c 2
 461 116 l 2xf0
228 57 m 0xe8
 280 57 334 86 371 132 c 1
 390 260 l 1
 320 260 l 2
 207 260 156 216 147 148 c 0
 138 87 164 57 228 57 c 0xe8
EndSplineSet
EndChar

StartChar: amacron
Encoding: 257 257 140
Width: 600
GlyphClass: 2
Flags: MW
HStem: -12 69<196 234> 260 61<319 320 320 390> 464 75<291 336.5> 674 69<213 495 222 486>
VStem: 376 85 401 97.14
AnchorPoint: "Anchor-8" 0 0 basechar 0
AnchorPoint: "Anchor-7" 0 0 basechar 0
AnchorPoint: "Anchor-6" 366 527 basechar 0
LayerCount: 2
Fore
SplineSet
213 674 m 1xf4
 222 743 l 1
 495 743 l 1
 486 674 l 1
 213 674 l 1xf4
461 116 m 2xf8
 455 74 464 60 493 51 c 1
 465 -12 l 1
 419 -6 384 17 376 62 c 1xf8
 330 11 267 -12 201 -12 c 0
 93 -12 36 56 50 156 c 0
 65 263 159 321 319 321 c 2
 398 321 l 1
 404 365 l 2
 415 439 374 464 299 464 c 0
 262 464 212 455 156 436 c 1
 137 506 l 1
 205 530 266 539 316 539 c 0xf4
 452 539 511 470 496 364 c 2
 461 116 l 2xf8
228 57 m 0xf4
 280 57 334 86 371 132 c 1
 390 260 l 1
 320 260 l 2
 207 260 156 216 147 148 c 0
 138 87 164 57 228 57 c 0xf4
EndSplineSet
EndChar

StartChar: aogonek
Encoding: 261 261 141
Width: 600
GlyphClass: 2
Flags: MW
HStem: -244 70<347.5 366> -12 69<196 234> 260 61<319 320 320 390> 464 75<291 336.5>
VStem: 240 81 376 85 401 97.14
AnchorPoint: "Anchor-8" 0 0 basechar 0
AnchorPoint: "Anchor-7" 0 0 basechar 0
AnchorPoint: "Anchor-6" 366 527 basechar 0
LayerCount: 2
Fore
SplineSet
461 116 m 2xfc
 455 74 464 60 493 51 c 1
 465 -12 l 1
 462 -12 l 1
 463 -13 l 1
 355 -57 327 -93 321 -131 c 0
 317 -159 328 -174 367 -174 c 0
 390 -174 407 -171 431 -166 c 1
 416 -238 l 1
 396 -242 378 -244 354 -244 c 0
 275 -244 232 -198 240 -138 c 0
 249 -74 302 -27 408 9 c 1
 391 21 380 39 376 62 c 1xfc
 330 11 267 -12 201 -12 c 0
 93 -12 36 56 50 156 c 0
 65 263 159 321 319 321 c 2
 398 321 l 1
 404 365 l 2
 415 439 374 464 299 464 c 0
 262 464 212 455 156 436 c 1
 137 506 l 1
 205 530 266 539 316 539 c 0xfa
 452 539 511 470 496 364 c 2
 461 116 l 2xfc
390 260 m 1
 320 260 l 2
 207 260 156 216 147 148 c 0
 138 87 164 57 228 57 c 0
 280 57 334 86 371 132 c 1
 390 260 l 1
EndSplineSet
EndChar

StartChar: aring
Encoding: 229 229 142
Width: 600
GlyphClass: 2
Flags: MW
HStem: -12 69<196 234> 260 61<319 320 320 390> 464 75<291 336.5> 617 49<330 362.5 330 378.5> 778 50<351 383.5>
VStem: 243 60 376 85 401 97.14 410 60
AnchorPoint: "Anchor-8" 0 0 basechar 0
AnchorPoint: "Anchor-7" 0 0 basechar 0
AnchorPoint: "Anchor-6" 366 527 basechar 0
LayerCount: 2
Fore
SplineSet
367 828 m 0xfc80
 436 828 478 778 470 717 c 0
 462 661 411 617 346 617 c 0
 277 617 235 667 243 727 c 0
 251 784 302 828 367 828 c 0xfc80
368 778 m 0
 334 778 308 754 303 717 c 0
 298 684 315 666 345 666 c 0
 380 666 405 690 410 727 c 0
 415 760 399 778 368 778 c 0
461 116 m 2xfe
 455 74 464 60 493 51 c 1
 465 -12 l 1
 419 -6 384 17 376 62 c 1xfe
 330 11 267 -12 201 -12 c 0
 93 -12 36 56 50 156 c 0
 65 263 159 321 319 321 c 2
 398 321 l 1
 404 365 l 2
 415 439 374 464 299 464 c 0
 262 464 212 455 156 436 c 1
 137 506 l 1
 205 530 266 539 316 539 c 0xfd
 452 539 511 470 496 364 c 2
 461 116 l 2xfe
228 57 m 0xfc80
 280 57 334 86 371 132 c 1
 390 260 l 1
 320 260 l 2
 207 260 156 216 147 148 c 0
 138 87 164 57 228 57 c 0xfc80
EndSplineSet
EndChar

StartChar: atilde
Encoding: 227 227 143
Width: 600
GlyphClass: 2
Flags: MW
HStem: -12 69<196 234> 260 61<319 320 320 390> 464 75<291 336.5> 650 70<394.5 421 394.5 429.5> 698 70<287 313.5>
VStem: 376 85 401 97.14
AnchorPoint: "Anchor-8" 0 0 basechar 0
AnchorPoint: "Anchor-7" 0 0 basechar 0
AnchorPoint: "Anchor-6" 366 527 basechar 0
LayerCount: 2
Fore
SplineSet
402 650 m 0xf2
 342 650 328 698 299 698 c 0
 275 698 259 680 239 652 c 1
 184 682 l 1
 210 729 251 768 306 768 c 0xea
 368 768 380 720 409 720 c 0
 433 720 450 738 470 766 c 1
 525 737 l 1
 498 690 457 650 402 650 c 0xf2
461 116 m 2xec
 455 74 464 60 493 51 c 1
 465 -12 l 1
 419 -6 384 17 376 62 c 1xec
 330 11 267 -12 201 -12 c 0
 93 -12 36 56 50 156 c 0
 65 263 159 321 319 321 c 2
 398 321 l 1
 404 365 l 2
 415 439 374 464 299 464 c 0
 262 464 212 455 156 436 c 1
 137 506 l 1
 205 530 266 539 316 539 c 0xea
 452 539 511 470 496 364 c 2
 461 116 l 2xec
228 57 m 0xea
 280 57 334 86 371 132 c 1
 390 260 l 1
 320 260 l 2
 207 260 156 216 147 148 c 0
 138 87 164 57 228 57 c 0xea
EndSplineSet
EndChar

StartChar: ae
Encoding: 230 230 144
Width: 600
GlyphClass: 2
Flags: MW
HStem: -12 69<106.5 143.5> -12 74<383.5 437 383.5 440> 229 71 260 61<213 214> 466 73<184 221 438.5 495>
VStem: -23.25 96.25 252 81<229 263> 530.63 82.99
AnchorPoint: "Anchor-8" 0 0 basechar 0
AnchorPoint: "Anchor-7" 0 0 basechar 0
AnchorPoint: "Anchor-6" 382 527 basechar 0
LayerCount: 2
Fore
SplineSet
469 539 m 0x6f
 591 539 631 438 607 274 c 0
 605 258 602 242 599 229 c 1
 333 229 l 1
 326 112 350 62 417 62 c 0
 457 62 486 78 522 103 c 1
 558 39 l 1
 514 7 468 -12 412 -12 c 0x6f
 339 -12 297 22 273 77 c 1
 218 13 176 -12 111 -12 c 0
 16 -12 -35 56 -21 156 c 0
 -6 264 73 321 213 321 c 2
 260 321 l 1x9f
 266 365 l 2
 277 438 249 466 193 466 c 0
 156 466 130 457 86 438 c 1
 66 506 l 1
 114 527 163 539 205 539 c 0
 286 539 320 503 334 453 c 1
 360 508 408 539 469 539 c 0x6f
463 466 m 0
 403 466 368 420 343 297 c 1
 526 303 l 1
 539 412 527 466 463 466 c 0
214 260 m 1x9f
 121 260 82 216 73 151 c 0
 64 88 86 57 127 57 c 0
 172 57 206 91 250 155 c 1
 246 184 246 223 252 263 c 1
 214 260 l 1x9f
EndSplineSet
EndChar

StartChar: aeacute
Encoding: 509 509 145
Width: 600
GlyphClass: 2
Flags: MW
HStem: -12 69<106.5 143.5> -12 74<383.5 437 383.5 440> 229 71 260 61<213 214> 466 73<184 221 438.5 495>
VStem: -23.25 96.25 252 81<229 263> 530.63 82.99
AnchorPoint: "Anchor-8" 0 0 basechar 0
AnchorPoint: "Anchor-7" 0 0 basechar 0
AnchorPoint: "Anchor-6" 382 527 basechar 0
LayerCount: 2
Fore
SplineSet
451 791 m 1x6f
 488 714 l 1
 271 622 l 1
 247 672 l 1
 451 791 l 1x6f
469 539 m 0
 591 539 631 438 607 274 c 0
 605 258 602 242 599 229 c 1
 333 229 l 1
 326 112 350 62 417 62 c 0
 457 62 486 78 522 103 c 1
 558 39 l 1
 514 7 468 -12 412 -12 c 0x6f
 339 -12 297 22 273 77 c 1
 218 13 176 -12 111 -12 c 0
 16 -12 -35 56 -21 156 c 0
 -6 264 73 321 213 321 c 2
 260 321 l 1x9f
 266 365 l 2
 277 438 249 466 193 466 c 0
 156 466 130 457 86 438 c 1
 66 506 l 1
 114 527 163 539 205 539 c 0
 286 539 320 503 334 453 c 1
 360 508 408 539 469 539 c 0
463 466 m 0
 403 466 368 420 343 297 c 1
 526 303 l 1
 539 412 527 466 463 466 c 0
214 260 m 1x9f
 121 260 82 216 73 151 c 0
 64 88 86 57 127 57 c 0
 172 57 206 91 250 155 c 1
 246 184 246 223 252 263 c 1
 214 260 l 1x9f
EndSplineSet
EndChar

StartChar: b
Encoding: 98 98 146
Width: 600
GlyphClass: 2
Flags: MW
HStem: -12 73<260 315 249.5 358> 466 73<344 386>
VStem: 441.79 98.42
LayerCount: 2
Fore
SplineSet
216 462 m 1
 261 512 315 539 373 539 c 0
 515 539 558 427 534 259 c 0
 512 101 425 -12 291 -12 c 0
 229 -12 185 11 156 56 c 1
 141 0 l 1
 60 0 l 1
 164 739 l 1
 257 750 l 1
 216 462 l 1
272 61 m 0
 358 61 417 129 437 269 c 0
 456 404 424 466 348 466 c 0
 290 466 241 424 207 382 c 1
 169 125 l 1
 190 84 227 61 272 61 c 0
EndSplineSet
EndChar

StartChar: c
Encoding: 99 99 147
Width: 600
GlyphClass: 2
Flags: MW
HStem: -12 78<265 335 265 335> 463 76<326.5 394>
VStem: 85.03 98.17
AnchorPoint: "Anchor-8" 265 0 basechar 0
AnchorPoint: "Anchor-7" 0 0 basechar 0
AnchorPoint: "Anchor-6" 416 518 basechar 0
LayerCount: 2
Fore
SplineSet
308 66 m 0
 362 66 409 87 452 117 c 1
 491 50 l 1
 440 11 366 -12 304 -12 c 0
 143 -12 66 99 89 266 c 0
 111 423 218 539 375 539 c 0
 446 539 501 516 547 475 c 1
 497 417 l 1
 458 449 416 463 372 463 c 0
 281 463 206 395 187 256 c 0
 168 120 222 66 308 66 c 0
EndSplineSet
EndChar

StartChar: cacute
Encoding: 263 263 148
Width: 600
GlyphClass: 2
Flags: MW
HStem: -12 78<265 335 265 335> 463 76<326.5 394>
VStem: 85.03 98.17
AnchorPoint: "Anchor-8" 265 0 basechar 0
AnchorPoint: "Anchor-7" 0 0 basechar 0
AnchorPoint: "Anchor-6" 416 518 basechar 0
LayerCount: 2
Fore
SplineSet
485 782 m 1
 522 705 l 1
 305 613 l 1
 281 663 l 1
 485 782 l 1
308 66 m 0
 362 66 409 87 452 117 c 1
 491 50 l 1
 440 11 366 -12 304 -12 c 0
 143 -12 66 99 89 266 c 0
 111 423 218 539 375 539 c 0
 446 539 501 516 547 475 c 1
 497 417 l 1
 458 449 416 463 372 463 c 0
 281 463 206 395 187 256 c 0
 168 120 222 66 308 66 c 0
EndSplineSet
EndChar

StartChar: ccaron
Encoding: 269 269 149
Width: 600
GlyphClass: 2
Flags: MW
HStem: -12 78<265 335 265 335> 463 76<326.5 394>
VStem: 85.03 98.17
AnchorPoint: "Anchor-8" 265 0 basechar 0
AnchorPoint: "Anchor-7" 0 0 basechar 0
AnchorPoint: "Anchor-6" 416 518 basechar 0
LayerCount: 2
Fore
SplineSet
576 739 m 1
 425 618 l 1
 364 618 l 1
 244 739 l 1
 291 783 l 1
 403 692 l 1
 541 783 l 1
 576 739 l 1
308 66 m 0
 362 66 409 87 452 117 c 1
 491 50 l 1
 440 11 366 -12 304 -12 c 0
 143 -12 66 99 89 266 c 0
 111 423 218 539 375 539 c 0
 446 539 501 516 547 475 c 1
 497 417 l 1
 458 449 416 463 372 463 c 0
 281 463 206 395 187 256 c 0
 168 120 222 66 308 66 c 0
EndSplineSet
EndChar

StartChar: ccedilla
Encoding: 231 231 150
Width: 600
GlyphClass: 2
Flags: MW
HStem: -241 60<242 270.5 242 294.5> -99 43 -11 77<320 320> 463 76<326.5 394>
VStem: 84.93 98.27 321 75
AnchorPoint: "Anchor-8" 265 0 basechar 0
AnchorPoint: "Anchor-7" 0 0 basechar 0
AnchorPoint: "Anchor-6" 416 518 basechar 0
LayerCount: 2
Fore
SplineSet
372 463 m 0
 281 463 206 395 187 256 c 0
 168 120 222 66 308 66 c 0
 362 66 409 87 452 117 c 1
 491 50 l 1
 444 14 379 -8 320 -11 c 1
 313 -56 l 1
 378 -62 402 -103 396 -146 c 0
 387 -210 327 -241 262 -241 c 0
 219 -241 182 -230 157 -215 c 1
 189 -166 l 1
 206 -176 232 -181 252 -181 c 0
 289 -181 316 -167 321 -136 c 0
 325 -103 295 -99 241 -99 c 1
 259 -9 l 1
 129 10 68 115 89 266 c 0
 111 423 218 539 375 539 c 0
 446 539 501 516 547 475 c 1
 497 417 l 1
 458 449 416 463 372 463 c 0
EndSplineSet
EndChar

StartChar: ccircumflex
Encoding: 265 265 151
Width: 600
GlyphClass: 2
Flags: MW
HStem: -12 78<265 335 265 335> 463 76<326.5 394>
VStem: 85.03 98.17
AnchorPoint: "Anchor-8" 265 0 basechar 0
AnchorPoint: "Anchor-7" 0 0 basechar 0
AnchorPoint: "Anchor-6" 416 518 basechar 0
LayerCount: 2
Fore
SplineSet
233 662 m 1
 385 783 l 1
 446 783 l 1
 565 662 l 1
 520 618 l 1
 408 709 l 1
 270 618 l 1
 233 662 l 1
308 66 m 0
 362 66 409 87 452 117 c 1
 491 50 l 1
 440 11 366 -12 304 -12 c 0
 143 -12 66 99 89 266 c 0
 111 423 218 539 375 539 c 0
 446 539 501 516 547 475 c 1
 497 417 l 1
 458 449 416 463 372 463 c 0
 281 463 206 395 187 256 c 0
 168 120 222 66 308 66 c 0
EndSplineSet
EndChar

StartChar: cdotaccent
Encoding: 267 267 152
Width: 600
GlyphClass: 2
Flags: MW
HStem: -12 78<265 335 265 335> 463 76<326.5 394> 643 125<391 418.5>
VStem: 85.03 98.17 341 128
AnchorPoint: "Anchor-8" 265 0 basechar 0
AnchorPoint: "Anchor-7" 0 0 basechar 0
AnchorPoint: "Anchor-6" 416 518 basechar 0
LayerCount: 2
Fore
SplineSet
409 768 m 0
 450 768 474 738 469 701 c 0
 464 667 437 643 400 643 c 0
 360 643 336 673 341 711 c 0
 346 744 373 768 409 768 c 0
308 66 m 0
 362 66 409 87 452 117 c 1
 491 50 l 1
 440 11 366 -12 304 -12 c 0
 143 -12 66 99 89 266 c 0
 111 423 218 539 375 539 c 0
 446 539 501 516 547 475 c 1
 497 417 l 1
 458 449 416 463 372 463 c 0
 281 463 206 395 187 256 c 0
 168 120 222 66 308 66 c 0
EndSplineSet
EndChar

StartChar: d
Encoding: 100 100 153
Width: 600
GlyphClass: 2
Flags: MW
HStem: -12 73<215.5 258.5> 466 73<285 337.5 243 350.5>
VStem: 60.3 97.99
LayerCount: 2
Fore
SplineSet
570 739 m 1
 466 0 l 1
 385 0 l 1
 387 66 l 1
 342 12 287 -12 230 -12 c 0
 91 -12 42 102 66 268 c 0
 88 425 179 539 307 539 c 0
 368 539 410 516 440 476 c 1
 479 750 l 1
 570 739 l 1
328 466 m 0
 242 466 183 397 163 258 c 0
 144 124 177 61 254 61 c 0
 313 61 359 101 393 144 c 1
 432 403 l 1
 409 444 373 466 328 466 c 0
EndSplineSet
EndChar

StartChar: eth
Encoding: 240 240 154
Width: 600
GlyphClass: 2
Flags: MW
HStem: -12 73<223 308.5 223 332> 409 72<278.5 338.5 248 345>
VStem: 57.6 93.24 452 90.91
LayerCount: 2
Fore
SplineSet
299 646 m 1
 269 661 233 672 190 681 c 1
 215 749 l 1
 272 737 319 722 356 701 c 1
 439 776 l 1
 487 729 l 1
 415 665 l 1
 524 583 561 452 535 260 c 0
 511 94 404 -12 260 -12 c 0
 130 -12 38 80 61 240 c 0
 81 386 192 481 304 481 c 0
 373 481 420 455 452 415 c 1
 446 500 412 566 356 611 c 1
 268 531 l 1
 207 563 l 1
 299 646 l 1
443 271 m 0
 446 293 448 314 450 337 c 1
 424 384 375 409 315 409 c 0
 242 409 171 354 154 234 c 0
 138 119 184 61 262 61 c 0
 355 61 424 134 443 271 c 0
EndSplineSet
EndChar

StartChar: dcaron
Encoding: 271 271 155
Width: 600
GlyphClass: 2
Flags: MW
HStem: -12 73<215.5 258.5> 466 73<285 337.5 243 350.5>
VStem: 60.3 97.99
LayerCount: 2
Fore
SplineSet
570 739 m 1
 466 0 l 1
 385 0 l 1
 387 66 l 1
 342 12 287 -12 230 -12 c 0
 91 -12 42 102 66 268 c 0
 88 425 179 539 307 539 c 0
 368 539 410 516 440 476 c 1
 479 750 l 1
 570 739 l 1
727 739 m 1
 645 555 l 1
 592 563 l 1
 644 749 l 1
 727 739 l 1
328 466 m 0
 242 466 183 397 163 258 c 0
 144 124 177 61 254 61 c 0
 313 61 359 101 393 144 c 1
 432 403 l 1
 409 444 373 466 328 466 c 0
EndSplineSet
EndChar

StartChar: dcroat
Encoding: 273 273 156
Width: 600
GlyphClass: 2
Flags: MW
HStem: -12 73<178.5 221.5> 466 73<248 300.5 206 313.5> 597 70<302 420 292 430 523 629>
VStem: 23.3 97.99
LayerCount: 2
Fore
SplineSet
629 597 m 1
 513 597 l 1
 429 0 l 1
 348 0 l 1
 350 66 l 1
 305 12 250 -12 193 -12 c 0
 54 -12 5 102 29 268 c 0
 51 425 142 539 270 539 c 0
 331 539 373 516 403 476 c 1
 420 597 l 1
 292 597 l 1
 302 667 l 1
 430 667 l 1
 442 750 l 1
 533 739 l 1
 523 667 l 1
 639 667 l 1
 629 597 l 1
395 403 m 1
 372 444 336 466 291 466 c 0
 205 466 146 397 126 258 c 0
 107 124 140 61 217 61 c 0
 276 61 322 101 356 144 c 1
 395 403 l 1
EndSplineSet
EndChar

StartChar: e
Encoding: 101 101 157
Width: 600
GlyphClass: 2
Flags: MW
HStem: -12 75<251 315 251 318> 229 71 466 73<300.5 377.5>
VStem: 71.56 94.44 445.45 85.85
AnchorPoint: "Anchor-8" 226 0 basechar 0
AnchorPoint: "Anchor-7" 0 0 basechar 0
AnchorPoint: "Anchor-6" 384 527 basechar 0
LayerCount: 2
Fore
SplineSet
166 229 m 1
 155 111 212 63 290 63 c 0
 340 63 389 77 439 114 c 1
 476 49 l 1
 421 10 351 -12 285 -12 c 0
 126 -12 52 102 76 268 c 0
 98 425 202 539 340 539 c 0
 480 539 550 437 527 274 c 0
 525 258 522 241 519 229 c 1
 166 229 l 1
338 466 m 0
 263 466 199 410 176 297 c 1
 443 303 l 1
 456 412 417 466 338 466 c 0
EndSplineSet
EndChar

StartChar: eacute
Encoding: 233 233 158
Width: 600
GlyphClass: 2
Flags: MW
HStem: -12 75<251 315 251 318> 229 71 466 73<300.5 377.5>
VStem: 71.56 94.44 445.45 85.85
AnchorPoint: "Anchor-8" 226 0 basechar 0
AnchorPoint: "Anchor-7" 0 0 basechar 0
AnchorPoint: "Anchor-6" 384 527 basechar 0
LayerCount: 2
Fore
SplineSet
453 791 m 1
 490 714 l 1
 273 622 l 1
 249 672 l 1
 453 791 l 1
166 229 m 1
 155 111 212 63 290 63 c 0
 340 63 389 77 439 114 c 1
 476 49 l 1
 421 10 351 -12 285 -12 c 0
 126 -12 52 102 76 268 c 0
 98 425 202 539 340 539 c 0
 480 539 550 437 527 274 c 0
 525 258 522 241 519 229 c 1
 166 229 l 1
338 466 m 0
 263 466 199 410 176 297 c 1
 443 303 l 1
 456 412 417 466 338 466 c 0
EndSplineSet
EndChar

StartChar: ebreve
Encoding: 277 277 159
Width: 600
GlyphClass: 2
Flags: MW
HStem: -12 75<251 315 251 318> 229 71 466 73<300.5 377.5> 628 69<342.5 390 342.5 409>
VStem: 71.56 94.44 229 61<771 779> 445.45 85.85
AnchorPoint: "Anchor-8" 226 0 basechar 0
AnchorPoint: "Anchor-7" 0 0 basechar 0
AnchorPoint: "Anchor-6" 384 527 basechar 0
LayerCount: 2
Fore
SplineSet
363 628 m 0
 268 628 228 707 229 771 c 1
 290 779 l 1
 297 729 320 697 365 697 c 0
 415 697 451 733 472 783 c 1
 531 765 l 1
 514 701 455 628 363 628 c 0
166 229 m 1
 155 111 212 63 290 63 c 0
 340 63 389 77 439 114 c 1
 476 49 l 1
 421 10 351 -12 285 -12 c 0
 126 -12 52 102 76 268 c 0
 98 425 202 539 340 539 c 0
 480 539 550 437 527 274 c 0
 525 258 522 241 519 229 c 1
 166 229 l 1
338 466 m 0
 263 466 199 410 176 297 c 1
 443 303 l 1
 456 412 417 466 338 466 c 0
EndSplineSet
EndChar

StartChar: ecaron
Encoding: 283 283 160
Width: 600
GlyphClass: 2
Flags: MW
HStem: -12 75<251 315 251 318> 229 71 466 73<300.5 377.5>
VStem: 71.56 94.44 445.45 85.85
AnchorPoint: "Anchor-8" 226 0 basechar 0
AnchorPoint: "Anchor-7" 0 0 basechar 0
AnchorPoint: "Anchor-6" 384 527 basechar 0
LayerCount: 2
Fore
SplineSet
544 748 m 1
 393 627 l 1
 332 627 l 1
 212 748 l 1
 259 792 l 1
 371 701 l 1
 509 792 l 1
 544 748 l 1
166 229 m 1
 155 111 212 63 290 63 c 0
 340 63 389 77 439 114 c 1
 476 49 l 1
 421 10 351 -12 285 -12 c 0
 126 -12 52 102 76 268 c 0
 98 425 202 539 340 539 c 0
 480 539 550 437 527 274 c 0
 525 258 522 241 519 229 c 1
 166 229 l 1
338 466 m 0
 263 466 199 410 176 297 c 1
 443 303 l 1
 456 412 417 466 338 466 c 0
EndSplineSet
EndChar

StartChar: ecircumflex
Encoding: 234 234 161
Width: 600
GlyphClass: 2
Flags: MW
HStem: -12 75<251 315 251 318> 229 71 466 73<300.5 377.5>
VStem: 71.56 94.44 445.45 85.85
AnchorPoint: "Anchor-8" 226 0 basechar 0
AnchorPoint: "Anchor-7" 0 0 basechar 0
AnchorPoint: "Anchor-6" 384 527 basechar 0
LayerCount: 2
Fore
SplineSet
201 671 m 1
 353 792 l 1
 414 792 l 1
 533 671 l 1
 488 627 l 1
 376 718 l 1
 238 627 l 1
 201 671 l 1
166 229 m 1
 155 111 212 63 290 63 c 0
 340 63 389 77 439 114 c 1
 476 49 l 1
 421 10 351 -12 285 -12 c 0
 126 -12 52 102 76 268 c 0
 98 425 202 539 340 539 c 0
 480 539 550 437 527 274 c 0
 525 258 522 241 519 229 c 1
 166 229 l 1
338 466 m 0
 263 466 199 410 176 297 c 1
 443 303 l 1
 456 412 417 466 338 466 c 0
EndSplineSet
EndChar

StartChar: edieresis
Encoding: 235 235 162
Width: 600
GlyphClass: 2
Flags: MW
HStem: -12 75<251 315 251 318> 229 71 466 73<300.5 377.5> 647 113<255.5 278 465 487.5>
VStem: 71.56 94.44 209 114 419 114 445.45 85.85
AnchorPoint: "Anchor-8" 226 0 basechar 0
AnchorPoint: "Anchor-7" 0 0 basechar 0
AnchorPoint: "Anchor-6" 434 702 basechar 0
LayerCount: 2
Fore
SplineSet
263 647 m 0xf5
 228 647 205 674 209 708 c 0
 214 739 240 760 271 760 c 0
 305 760 328 733 323 698 c 0
 319 668 293 647 263 647 c 0xf5
472 647 m 0xfe
 438 647 415 674 419 708 c 0
 424 739 450 760 480 760 c 0
 515 760 538 733 533 698 c 0
 529 668 503 647 472 647 c 0xfe
166 229 m 1
 155 111 212 63 290 63 c 0
 340 63 389 77 439 114 c 1
 476 49 l 1
 421 10 351 -12 285 -12 c 0
 126 -12 52 102 76 268 c 0
 98 425 202 539 340 539 c 0xfd
 480 539 550 437 527 274 c 0
 525 258 522 241 519 229 c 1
 166 229 l 1
338 466 m 0xf5
 263 466 199 410 176 297 c 1
 443 303 l 1
 456 412 417 466 338 466 c 0xf5
EndSplineSet
EndChar

StartChar: edotaccent
Encoding: 279 279 163
Width: 600
GlyphClass: 2
Flags: MW
HStem: -12 75<251 315 251 318> 229 71 466 73<300.5 377.5> 652 125<359 386.5>
VStem: 71.56 94.44 309 128 445.45 85.85
AnchorPoint: "Anchor-8" 226 0 basechar 0
AnchorPoint: "Anchor-7" 0 0 basechar 0
AnchorPoint: "Anchor-6" 384 527 basechar 0
LayerCount: 2
Fore
SplineSet
377 777 m 0
 418 777 442 747 437 710 c 0
 432 676 405 652 368 652 c 0
 328 652 304 682 309 720 c 0
 314 753 341 777 377 777 c 0
166 229 m 1
 155 111 212 63 290 63 c 0
 340 63 389 77 439 114 c 1
 476 49 l 1
 421 10 351 -12 285 -12 c 0
 126 -12 52 102 76 268 c 0
 98 425 202 539 340 539 c 0xea
 480 539 550 437 527 274 c 0
 525 258 522 241 519 229 c 1
 166 229 l 1
338 466 m 0xe2
 263 466 199 410 176 297 c 1
 443 303 l 1
 456 412 417 466 338 466 c 0xe2
EndSplineSet
EndChar

StartChar: egrave
Encoding: 232 232 164
Width: 600
GlyphClass: 2
Flags: MW
HStem: -12 75<251 315 251 318> 229 71 466 73<300.5 377.5>
VStem: 71.56 94.44 445.45 85.85
AnchorPoint: "Anchor-8" 226 0 basechar 0
AnchorPoint: "Anchor-7" 0 0 basechar 0
AnchorPoint: "Anchor-6" 384 527 basechar 0
LayerCount: 2
Fore
SplineSet
255 715 m 1
 312 792 l 1
 484 672 l 1
 449 622 l 1
 255 715 l 1
166 229 m 1
 155 111 212 63 290 63 c 0
 340 63 389 77 439 114 c 1
 476 49 l 1
 421 10 351 -12 285 -12 c 0
 126 -12 52 102 76 268 c 0
 98 425 202 539 340 539 c 0
 480 539 550 437 527 274 c 0
 525 258 522 241 519 229 c 1
 166 229 l 1
338 466 m 0
 263 466 199 410 176 297 c 1
 443 303 l 1
 456 412 417 466 338 466 c 0
EndSplineSet
EndChar

StartChar: emacron
Encoding: 275 275 165
Width: 600
GlyphClass: 2
Flags: MW
HStem: -12 75<251 315 251 318> 229 71 466 73<300.5 377.5> 674 69<231 513 240 504>
VStem: 71.56 94.44 445.45 85.85
AnchorPoint: "Anchor-8" 226 0 basechar 0
AnchorPoint: "Anchor-7" 0 0 basechar 0
AnchorPoint: "Anchor-6" 384 527 basechar 0
LayerCount: 2
Fore
SplineSet
231 674 m 1
 240 743 l 1
 513 743 l 1
 504 674 l 1
 231 674 l 1
166 229 m 1
 155 111 212 63 290 63 c 0
 340 63 389 77 439 114 c 1
 476 49 l 1
 421 10 351 -12 285 -12 c 0
 126 -12 52 102 76 268 c 0
 98 425 202 539 340 539 c 0
 480 539 550 437 527 274 c 0
 525 258 522 241 519 229 c 1
 166 229 l 1
338 466 m 0
 263 466 199 410 176 297 c 1
 443 303 l 1
 456 412 417 466 338 466 c 0
EndSplineSet
EndChar

StartChar: eogonek
Encoding: 281 281 166
Width: 600
GlyphClass: 2
Flags: MW
HStem: -232 70<252.5 271> 229 71 466 73<300.5 377.5>
VStem: 71.7 94.3 145 81 445.45 85.85
AnchorPoint: "Anchor-8" 226 0 basechar 0
AnchorPoint: "Anchor-7" 0 0 basechar 0
AnchorPoint: "Anchor-6" 384 527 basechar 0
LayerCount: 2
Fore
SplineSet
340 539 m 0xf4
 480 539 550 437 527 274 c 0
 525 258 522 241 519 229 c 1
 166 229 l 1xf4
 155 111 212 63 290 63 c 0
 340 63 389 77 439 114 c 1
 476 49 l 1
 444 26 407 9 368 -1 c 1
 260 -45 232 -81 226 -119 c 0
 222 -147 233 -162 272 -162 c 0
 295 -162 312 -159 336 -154 c 1
 321 -226 l 1
 301 -230 283 -232 259 -232 c 0
 180 -232 137 -186 145 -126 c 0xec
 152 -77 190 -37 255 -11 c 1
 117 3 54 113 76 268 c 0
 98 425 202 539 340 539 c 0xf4
443 303 m 1
 456 412 417 466 338 466 c 0
 263 466 199 410 176 297 c 1
 443 303 l 1
EndSplineSet
EndChar

StartChar: f
Encoding: 102 102 167
Width: 600
GlyphClass: 2
Flags: MW
HStem: 416 71<123 237 113 247 339 497> 676 74<441 497>
VStem: 113 508<416 720>
LayerCount: 2
Fore
SplineSet
475 750 m 0
 536 750 581 738 621 720 c 1
 586 655 l 1
 554 670 516 676 478 676 c 0
 404 676 362 645 353 587 c 2
 339 487 l 1
 517 487 l 1
 497 416 l 1
 329 416 l 1
 271 0 l 1
 179 0 l 1
 237 416 l 1
 113 416 l 1
 123 487 l 1
 247 487 l 1
 262 592 l 2
 276 690 364 750 475 750 c 0
EndSplineSet
EndChar

StartChar: g
Encoding: 103 103 168
Width: 600
GlyphClass: 2
Flags: MW
HStem: -213 72<170 285 170 305.5> 16 77<163 329 235 303> 175 61<269 320 243 349> 473 66<280.5 358.5>
VStem: 87 86 87.79 94.21
LayerCount: 2
Fore
SplineSet
593 502 m 1xf4
 547 488 496 487 434 486 c 1
 490 458 517 412 508 349 c 0
 494 247 411 175 287 175 c 0
 251 175 230 179 211 184 c 1
 192 172 176 152 173 131 c 0
 170 109 181 93 235 93 c 2
 329 93 l 2
 437 93 510 28 498 -56 c 0
 484 -158 386 -213 225 -213 c 0
 51 -213 3 -157 18 -50 c 1
 100 -56 l 1
 92 -116 113 -141 227 -141 c 0
 343 -141 398 -109 406 -52 c 0
 412 -6 369 16 303 16 c 2
 210 16 l 2
 116 16 79 66 87 121 c 0xf8
 91 153 114 185 158 212 c 1
 103 242 80 290 90 360 c 0
 104 466 200 539 324 539 c 0
 457 539 508 559 573 587 c 1
 593 502 l 1xf4
322 473 m 0
 239 473 192 421 182 350 c 0
 173 282 203 236 283 236 c 0
 357 236 405 283 416 361 c 0
 426 436 395 473 322 473 c 0
EndSplineSet
EndChar

StartChar: gbreve
Encoding: 287 287 169
Width: 600
GlyphClass: 2
Flags: MW
HStem: -213 72<170 285 170 305.5> 16 77<163 329 235 303> 175 61<269 320 243 349> 473 66<280.5 358.5> 628 69<297.5 345 297.5 364>
VStem: 87 86 87.79 94.21 184 61<771 779>
LayerCount: 2
Fore
SplineSet
318 628 m 0xf9
 223 628 183 707 184 771 c 1
 245 779 l 1
 252 729 275 697 320 697 c 0
 370 697 406 733 427 783 c 1
 486 765 l 1
 469 701 410 628 318 628 c 0xf9
593 502 m 1
 547 488 496 487 434 486 c 1
 490 458 517 412 508 349 c 0
 494 247 411 175 287 175 c 0
 251 175 230 179 211 184 c 1
 192 172 176 152 173 131 c 0
 170 109 181 93 235 93 c 2
 329 93 l 2
 437 93 510 28 498 -56 c 0
 484 -158 386 -213 225 -213 c 0
 51 -213 3 -157 18 -50 c 1
 100 -56 l 1
 92 -116 113 -141 227 -141 c 0
 343 -141 398 -109 406 -52 c 0
 412 -6 369 16 303 16 c 2
 210 16 l 2
 116 16 79 66 87 121 c 0xfc
 91 153 114 185 158 212 c 1
 103 242 80 290 90 360 c 0xfa
 104 466 200 539 324 539 c 0
 457 539 508 559 573 587 c 1
 593 502 l 1
322 473 m 0xfa
 239 473 192 421 182 350 c 0
 173 282 203 236 283 236 c 0
 357 236 405 283 416 361 c 0
 426 436 395 473 322 473 c 0xfa
EndSplineSet
EndChar

StartChar: gcircumflex
Encoding: 285 285 170
Width: 600
GlyphClass: 2
Flags: MW
HStem: -213 72<170 285 170 305.5> 16 77<163 329 235 303> 175 61<269 320 243 349> 473 66<280.5 358.5>
VStem: 87 86 87.79 94.21
LayerCount: 2
Fore
SplineSet
156 671 m 1xf4
 308 792 l 1
 369 792 l 1
 488 671 l 1
 443 627 l 1
 331 718 l 1
 193 627 l 1
 156 671 l 1xf4
593 502 m 1
 547 488 496 487 434 486 c 1
 490 458 517 412 508 349 c 0
 494 247 411 175 287 175 c 0
 251 175 230 179 211 184 c 1
 192 172 176 152 173 131 c 0
 170 109 181 93 235 93 c 2
 329 93 l 2
 437 93 510 28 498 -56 c 0
 484 -158 386 -213 225 -213 c 0
 51 -213 3 -157 18 -50 c 1
 100 -56 l 1
 92 -116 113 -141 227 -141 c 0
 343 -141 398 -109 406 -52 c 0
 412 -6 369 16 303 16 c 2
 210 16 l 2
 116 16 79 66 87 121 c 0xf8
 91 153 114 185 158 212 c 1
 103 242 80 290 90 360 c 0
 104 466 200 539 324 539 c 0
 457 539 508 559 573 587 c 1
 593 502 l 1
322 473 m 0
 239 473 192 421 182 350 c 0
 173 282 203 236 283 236 c 0
 357 236 405 283 416 361 c 0
 426 436 395 473 322 473 c 0
EndSplineSet
EndChar

StartChar: gcommaaccent
Encoding: 291 291 171
Width: 600
GlyphClass: 2
Flags: MW
HStem: -213 72<170 285 170 305.5> 16 77<163 329 235 303> 175 61<269 320 243 349> 473 66<280.5 358.5>
VStem: 87 86 87.79 94.21 334 113
LayerCount: 2
Fore
SplineSet
387 597 m 0xf6
 353 597 330 624 334 658 c 0
 337 674 343 689 356 713 c 2
 422 817 l 1
 477 817 l 1
 429 698 l 1
 442 687 450 669 447 648 c 0
 443 618 417 597 387 597 c 0xf6
593 502 m 1
 547 488 496 487 434 486 c 1
 490 458 517 412 508 349 c 0
 494 247 411 175 287 175 c 0
 251 175 230 179 211 184 c 1
 192 172 176 152 173 131 c 0
 170 109 181 93 235 93 c 2
 329 93 l 2
 437 93 510 28 498 -56 c 0
 484 -158 386 -213 225 -213 c 0
 51 -213 3 -157 18 -50 c 1
 100 -56 l 1
 92 -116 113 -141 227 -141 c 0
 343 -141 398 -109 406 -52 c 0
 412 -6 369 16 303 16 c 2
 210 16 l 2
 116 16 79 66 87 121 c 0xfa
 91 153 114 185 158 212 c 1
 103 242 80 290 90 360 c 0
 104 466 200 539 324 539 c 0
 457 539 508 559 573 587 c 1
 593 502 l 1
322 473 m 0
 239 473 192 421 182 350 c 0
 173 282 203 236 283 236 c 0
 357 236 405 283 416 361 c 0
 426 436 395 473 322 473 c 0
EndSplineSet
EndChar

StartChar: gdotaccent
Encoding: 289 289 172
Width: 600
GlyphClass: 2
Flags: MW
HStem: -213 72<170 285 170 305.5> 16 77<163 329 235 303> 175 61<269 320 243 349> 473 66<280.5 358.5> 652 125<314 341.5>
VStem: 87 86 87.79 94.21 264 128
LayerCount: 2
Fore
SplineSet
332 777 m 0xfb
 373 777 397 747 392 710 c 0
 387 676 360 652 323 652 c 0
 283 652 259 682 264 720 c 0
 269 753 296 777 332 777 c 0xfb
593 502 m 1
 547 488 496 487 434 486 c 1
 490 458 517 412 508 349 c 0
 494 247 411 175 287 175 c 0
 251 175 230 179 211 184 c 1
 192 172 176 152 173 131 c 0
 170 109 181 93 235 93 c 2
 329 93 l 2
 437 93 510 28 498 -56 c 0
 484 -158 386 -213 225 -213 c 0
 51 -213 3 -157 18 -50 c 1
 100 -56 l 1
 92 -116 113 -141 227 -141 c 0
 343 -141 398 -109 406 -52 c 0
 412 -6 369 16 303 16 c 2
 210 16 l 2
 116 16 79 66 87 121 c 0xfd
 91 153 114 185 158 212 c 1
 103 242 80 290 90 360 c 0
 104 466 200 539 324 539 c 0
 457 539 508 559 573 587 c 1
 593 502 l 1
322 473 m 0
 239 473 192 421 182 350 c 0
 173 282 203 236 283 236 c 0
 357 236 405 283 416 361 c 0
 426 436 395 473 322 473 c 0
EndSplineSet
EndChar

StartChar: h
Encoding: 104 104 173
Width: 600
GlyphClass: 2
Flags: MW
HStem: 467 72<361 387>
VStem: 60 462.73 428 94.73
AnchorPoint: "Anchor-8" 0 0 basechar 0
AnchorPoint: "Anchor-7" 0 0 basechar 0
AnchorPoint: "Anchor-6" 434 739 basechar 0
LayerCount: 2
Fore
SplineSet
215 459 m 1xc0
 265 513 331 539 391 539 c 0
 495 539 534 478 520 380 c 2
 467 0 l 1
 375 0 l 1
 428 380 l 2
 437 443 416 467 358 467 c 0xa0
 299 467 240 421 206 380 c 1
 152 0 l 1
 60 0 l 1
 164 738 l 1
 257 748 l 1
 215 459 l 1xc0
EndSplineSet
EndChar

StartChar: hbar
Encoding: 295 295 174
Width: 600
GlyphClass: 2
Flags: MW
HStem: 467 72<324 350> 597 70<75 107 65 117 208 402>
VStem: 391 94.73
AnchorPoint: "Anchor-8" 0 0 basechar 0
AnchorPoint: "Anchor-7" 0 0 basechar 0
AnchorPoint: "Anchor-6" 397 739 basechar 0
LayerCount: 2
Fore
SplineSet
354 539 m 0
 458 539 497 478 483 380 c 2
 430 0 l 1
 338 0 l 1
 391 380 l 2
 400 443 379 467 321 467 c 0
 262 467 203 421 169 380 c 1
 115 0 l 1
 23 0 l 1
 107 597 l 1
 65 597 l 1
 75 667 l 1
 117 667 l 1
 127 738 l 1
 220 748 l 1
 208 667 l 1
 412 667 l 1
 402 597 l 1
 198 597 l 1
 178 459 l 1
 228 513 294 539 354 539 c 0
EndSplineSet
EndChar

StartChar: hcircumflex
Encoding: 293 293 175
Width: 600
GlyphClass: 2
Flags: MW
HStem: 467 72<361 387>
VStem: 60 496 428 94.73
AnchorPoint: "Anchor-8" 0 0 basechar 0
AnchorPoint: "Anchor-7" 0 0 basechar 0
AnchorPoint: "Anchor-6" 434 739 basechar 0
LayerCount: 2
Fore
SplineSet
556 854 m 1xc0
 512 809 l 1
 396 890 l 1
 259 809 l 1
 224 854 l 1
 374 964 l 1
 435 964 l 1
 556 854 l 1xc0
215 459 m 1
 265 513 331 539 391 539 c 0
 495 539 534 478 520 380 c 2
 467 0 l 1
 375 0 l 1
 428 380 l 2
 437 443 416 467 358 467 c 0xa0
 299 467 240 421 206 380 c 1
 152 0 l 1
 60 0 l 1
 164 738 l 1
 257 748 l 1
 215 459 l 1
EndSplineSet
EndChar

StartChar: i
Encoding: 105 105 176
Width: 600
GlyphClass: 2
Flags: MW
HStem: 0 71<90 251 343 480 80 251> 456 71<159 305 149 407> 652 125<350 377.5>
VStem: 300 128
LayerCount: 2
Fore
SplineSet
368 777 m 0
 409 777 433 747 428 710 c 0
 423 676 396 652 359 652 c 0
 319 652 295 682 300 720 c 0
 305 753 332 777 368 777 c 0
343 71 m 1
 490 71 l 1
 480 0 l 1
 80 0 l 1
 90 71 l 1
 251 71 l 1
 305 456 l 1
 149 456 l 1
 159 527 l 1
 407 527 l 1
 343 71 l 1
EndSplineSet
EndChar

StartChar: dotlessi
Encoding: 305 305 177
Width: 600
GlyphClass: 2
Flags: MW
HStem: 0 71<90 251 343 480 80 251> 456 71<159 305 149 407>
VStem: 80 410<0 71>
AnchorPoint: "Anchor-8" 0 0 basechar 0
AnchorPoint: "Anchor-7" 0 0 basechar 0
AnchorPoint: "Anchor-6" 375 527 basechar 0
LayerCount: 2
Fore
SplineSet
343 71 m 1
 490 71 l 1
 480 0 l 1
 80 0 l 1
 90 71 l 1
 251 71 l 1
 305 456 l 1
 149 456 l 1
 159 527 l 1
 407 527 l 1
 343 71 l 1
EndSplineSet
EndChar

StartChar: iacute
Encoding: 237 237 178
Width: 600
GlyphClass: 2
Flags: MW
HStem: 0 71<90 251 343 480 80 251> 456 71<159 305 149 407>
VStem: 80 410<0 71>
AnchorPoint: "Anchor-8" 0 0 basechar 0
AnchorPoint: "Anchor-7" 0 0 basechar 0
AnchorPoint: "Anchor-6" 375 527 basechar 0
LayerCount: 2
Fore
SplineSet
444 791 m 1
 481 714 l 1
 264 622 l 1
 240 672 l 1
 444 791 l 1
343 71 m 1
 490 71 l 1
 480 0 l 1
 80 0 l 1
 90 71 l 1
 251 71 l 1
 305 456 l 1
 149 456 l 1
 159 527 l 1
 407 527 l 1
 343 71 l 1
EndSplineSet
EndChar

StartChar: ibreve
Encoding: 301 301 179
Width: 600
GlyphClass: 2
Flags: MW
HStem: 0 71<90 251 343 480 80 251> 456 71<159 305 149 407> 628 69<333.5 381 333.5 400>
VStem: 220 61<771 779>
AnchorPoint: "Anchor-8" 0 0 basechar 0
AnchorPoint: "Anchor-7" 0 0 basechar 0
AnchorPoint: "Anchor-6" 375 527 basechar 0
LayerCount: 2
Fore
SplineSet
354 628 m 0
 259 628 219 707 220 771 c 1
 281 779 l 1
 288 729 311 697 356 697 c 0
 406 697 442 733 463 783 c 1
 522 765 l 1
 505 701 446 628 354 628 c 0
343 71 m 1
 490 71 l 1
 480 0 l 1
 80 0 l 1
 90 71 l 1
 251 71 l 1
 305 456 l 1
 149 456 l 1
 159 527 l 1
 407 527 l 1
 343 71 l 1
EndSplineSet
EndChar

StartChar: icircumflex
Encoding: 238 238 180
Width: 600
GlyphClass: 2
Flags: MW
HStem: 0 71<90 251 343 480 80 251> 456 71<159 305 149 407>
VStem: 80 444
AnchorPoint: "Anchor-8" 0 0 basechar 0
AnchorPoint: "Anchor-7" 0 0 basechar 0
AnchorPoint: "Anchor-6" 375 527 basechar 0
LayerCount: 2
Fore
SplineSet
192 671 m 1
 344 792 l 1
 405 792 l 1
 524 671 l 1
 479 627 l 1
 367 718 l 1
 229 627 l 1
 192 671 l 1
343 71 m 1
 490 71 l 1
 480 0 l 1
 80 0 l 1
 90 71 l 1
 251 71 l 1
 305 456 l 1
 149 456 l 1
 159 527 l 1
 407 527 l 1
 343 71 l 1
EndSplineSet
EndChar

StartChar: idieresis
Encoding: 239 239 181
Width: 600
GlyphClass: 2
Flags: MW
HStem: 0 71<90 251 343 480 80 251> 456 71<159 305 149 407> 647 113<246.5 269 456 478.5>
VStem: 200 114 410 114
AnchorPoint: "Anchor-8" 0 0 basechar 0
AnchorPoint: "Anchor-7" 0 0 basechar 0
AnchorPoint: "Anchor-6" 425 702 basechar 0
LayerCount: 2
Fore
SplineSet
254 647 m 0
 219 647 196 674 200 708 c 0
 205 739 231 760 262 760 c 0
 296 760 319 733 314 698 c 0
 310 668 284 647 254 647 c 0
463 647 m 0
 429 647 406 674 410 708 c 0
 415 739 441 760 471 760 c 0
 506 760 529 733 524 698 c 0
 520 668 494 647 463 647 c 0
343 71 m 1
 490 71 l 1
 480 0 l 1
 80 0 l 1
 90 71 l 1
 251 71 l 1
 305 456 l 1
 149 456 l 1
 159 527 l 1
 407 527 l 1
 343 71 l 1
EndSplineSet
EndChar

StartChar: i.loclTRK
Encoding: 1114118 -1 182
Width: 600
GlyphClass: 2
Flags: MW
HStem: 0 71<90 251 343 480 80 251> 456 71<159 305 149 407> 652 125<350 377.5>
VStem: 300 128
AnchorPoint: "Anchor-8" 0 0 basechar 0
AnchorPoint: "Anchor-7" 0 0 basechar 0
AnchorPoint: "Anchor-6" 375 527 basechar 0
LayerCount: 2
Fore
SplineSet
368 777 m 0
 409 777 433 747 428 710 c 0
 423 676 396 652 359 652 c 0
 319 652 295 682 300 720 c 0
 305 753 332 777 368 777 c 0
343 71 m 1
 490 71 l 1
 480 0 l 1
 80 0 l 1
 90 71 l 1
 251 71 l 1
 305 456 l 1
 149 456 l 1
 159 527 l 1
 407 527 l 1
 343 71 l 1
EndSplineSet
EndChar

StartChar: igrave
Encoding: 236 236 183
Width: 600
GlyphClass: 2
Flags: MW
HStem: 0 71<90 251 343 480 80 251> 456 71<159 305 149 407>
VStem: 80 410<0 71>
AnchorPoint: "Anchor-8" 0 0 basechar 0
AnchorPoint: "Anchor-7" 0 0 basechar 0
AnchorPoint: "Anchor-6" 375 527 basechar 0
LayerCount: 2
Fore
SplineSet
246 715 m 1
 303 792 l 1
 475 672 l 1
 440 622 l 1
 246 715 l 1
343 71 m 1
 490 71 l 1
 480 0 l 1
 80 0 l 1
 90 71 l 1
 251 71 l 1
 305 456 l 1
 149 456 l 1
 159 527 l 1
 407 527 l 1
 343 71 l 1
EndSplineSet
EndChar

StartChar: ij
Encoding: 307 307 184
Width: 600
GlyphClass: 2
Flags: MW
HStem: 0 71<20 111 200 281 10 111> 458 69<89 165 79 542 254 442 254 254> 652 125<234 261 499 526>
VStem: 184 128 449 128
LayerCount: 2
Fore
SplineSet
252 777 m 0
 292 777 317 747 312 710 c 0
 307 676 279 652 243 652 c 0
 203 652 179 682 184 720 c 0
 189 753 216 777 252 777 c 0
517 777 m 0
 557 777 582 747 577 710 c 0
 572 676 544 652 508 652 c 0
 468 652 444 682 449 720 c 0
 454 753 481 777 517 777 c 0
476 59 m 2
 455 -93 332 -167 181 -214 c 1
 158 -141 l 1
 262 -104 370 -54 386 59 c 2
 442 458 l 1
 254 458 l 1
 200 71 l 1
 291 71 l 1
 281 0 l 1
 10 0 l 1
 20 71 l 1
 111 71 l 1
 165 458 l 1
 79 458 l 1
 89 527 l 1
 542 527 l 1
 476 59 l 2
EndSplineSet
EndChar

StartChar: imacron
Encoding: 299 299 185
Width: 600
GlyphClass: 2
Flags: MW
HStem: 0 71<90 251 343 480 80 251> 456 71<159 305 149 407> 674 69<222 504 231 495>
VStem: 80 424
AnchorPoint: "Anchor-8" 0 0 basechar 0
AnchorPoint: "Anchor-7" 0 0 basechar 0
AnchorPoint: "Anchor-6" 375 527 basechar 0
LayerCount: 2
Fore
SplineSet
222 674 m 1
 231 743 l 1
 504 743 l 1
 495 674 l 1
 222 674 l 1
343 71 m 1
 490 71 l 1
 480 0 l 1
 80 0 l 1
 90 71 l 1
 251 71 l 1
 305 456 l 1
 149 456 l 1
 159 527 l 1
 407 527 l 1
 343 71 l 1
EndSplineSet
EndChar

StartChar: iogonek
Encoding: 303 303 186
Width: 600
GlyphClass: 2
Flags: MW
HStem: -232 70<219.5 238> 0 71<90 226 80 251 343 480> 456 71<159 305 149 407> 652 125<350 377.5>
VStem: 112 81 300 128
AnchorPoint: "Anchor-8" 0 0 basechar 0
AnchorPoint: "Anchor-7" 0 0 basechar 0
AnchorPoint: "Anchor-6" 375 527 basechar 0
LayerCount: 2
Fore
SplineSet
359 652 m 0
 319 652 295 682 300 720 c 0
 305 753 332 777 368 777 c 0
 409 777 433 747 428 710 c 0
 423 676 396 652 359 652 c 0
480 0 m 1
 335 0 l 1
 335 -1 l 1
 227 -45 199 -81 193 -119 c 0
 189 -147 200 -162 239 -162 c 0
 262 -162 279 -159 303 -154 c 1
 288 -226 l 1
 268 -230 250 -232 226 -232 c 0
 147 -232 104 -186 112 -126 c 0
 119 -74 156 -33 226 0 c 1
 80 0 l 1
 90 71 l 1
 251 71 l 1
 305 456 l 1
 149 456 l 1
 159 527 l 1
 407 527 l 1
 343 71 l 1
 490 71 l 1
 480 0 l 1
EndSplineSet
EndChar

StartChar: itilde
Encoding: 297 297 187
Width: 600
GlyphClass: 2
Flags: MW
HStem: 0 71<90 251 343 480 80 251> 456 71<159 305 149 407> 650 70<403.5 430 403.5 438.5> 698 70<296 322.5>
VStem: 80 454
AnchorPoint: "Anchor-8" 0 0 basechar 0
AnchorPoint: "Anchor-7" 0 0 basechar 0
AnchorPoint: "Anchor-6" 375 527 basechar 0
LayerCount: 2
Fore
SplineSet
411 650 m 0xe8
 351 650 337 698 308 698 c 0
 284 698 268 680 248 652 c 1
 193 682 l 1
 219 729 260 768 315 768 c 0xd8
 377 768 389 720 418 720 c 0
 442 720 459 738 479 766 c 1
 534 737 l 1
 507 690 466 650 411 650 c 0xe8
343 71 m 1
 490 71 l 1
 480 0 l 1
 80 0 l 1
 90 71 l 1
 251 71 l 1
 305 456 l 1
 149 456 l 1
 159 527 l 1
 407 527 l 1
 343 71 l 1
EndSplineSet
EndChar

StartChar: j
Encoding: 106 106 188
Width: 600
GlyphClass: 2
Flags: MW
HStem: 456 71<177 383 167 485> 652 125<417 444.5>
VStem: 367 128
AnchorPoint: "Anchor-8" 0 0 basechar 0
AnchorPoint: "Anchor-7" 0 0 basechar 0
AnchorPoint: "Anchor-6" 442 527 basechar 0
LayerCount: 2
Fore
SplineSet
435 777 m 0
 476 777 500 747 495 710 c 0
 490 676 463 652 426 652 c 0
 386 652 362 682 367 720 c 0
 372 753 399 777 435 777 c 0
423 89 m 2
 398 -93 264 -176 43 -213 c 1
 34 -142 l 1
 194 -115 311 -54 331 89 c 2
 383 456 l 1
 167 456 l 1
 177 527 l 1
 485 527 l 1
 423 89 l 2
EndSplineSet
EndChar

StartChar: jcircumflex
Encoding: 309 309 189
Width: 600
GlyphClass: 2
Flags: MW
HStem: 456 71<177 383 167 485>
VStem: 34 557
AnchorPoint: "Anchor-8" 0 0 basechar 0
AnchorPoint: "Anchor-7" 0 0 basechar 0
AnchorPoint: "Anchor-6" 442 527 basechar 0
LayerCount: 2
Fore
SplineSet
259 671 m 1
 411 792 l 1
 472 792 l 1
 591 671 l 1
 546 627 l 1
 434 718 l 1
 296 627 l 1
 259 671 l 1
423 89 m 2
 398 -93 264 -176 43 -213 c 1
 34 -142 l 1
 194 -115 311 -54 331 89 c 2
 383 456 l 1
 167 456 l 1
 177 527 l 1
 485 527 l 1
 423 89 l 2
EndSplineSet
EndChar

StartChar: k
Encoding: 107 107 190
Width: 600
GlyphClass: 2
Flags: MW
HStem: 0 750<65 262 65 262 262 417 262 533>
VStem: 65 518
AnchorPoint: "Anchor-8" 231 0 basechar 0
AnchorPoint: "Anchor-7" 0 0 basechar 0
AnchorPoint: "Anchor-6" 0 0 basechar 0
LayerCount: 2
Fore
SplineSet
157 0 m 1
 65 0 l 1
 169 739 l 1
 262 750 l 1
 157 0 l 1
319 290 m 1
 533 0 l 1
 417 0 l 1
 206 288 l 1
 466 527 l 1
 583 527 l 1
 319 290 l 1
EndSplineSet
EndChar

StartChar: kcommaaccent
Encoding: 311 311 191
Width: 600
GlyphClass: 2
Flags: MW
HStem: -290 1040<167 262 167 262>
VStem: 65 518 197 113
AnchorPoint: "Anchor-8" 231 0 basechar 0
AnchorPoint: "Anchor-7" 0 0 basechar 0
AnchorPoint: "Anchor-6" 0 0 basechar 0
LayerCount: 2
Fore
SplineSet
157 0 m 1xc0
 65 0 l 1
 169 739 l 1
 262 750 l 1
 157 0 l 1xc0
319 290 m 1
 533 0 l 1
 417 0 l 1
 206 288 l 1
 466 527 l 1
 583 527 l 1
 319 290 l 1
257 -70 m 0xa0
 291 -70 314 -97 310 -131 c 0
 307 -147 301 -162 288 -186 c 2
 222 -290 l 1
 167 -290 l 1
 215 -171 l 1
 202 -160 194 -142 197 -121 c 0
 201 -91 227 -70 257 -70 c 0xa0
EndSplineSet
EndChar

StartChar: kgreenlandic
Encoding: 312 312 192
Width: 600
GlyphClass: 2
Flags: MW
HStem: 0 527<134 152 60 226 134 412 461 528>
VStem: 60 518
LayerCount: 2
Fore
SplineSet
152 0 m 1
 60 0 l 1
 134 527 l 1
 226 527 l 1
 152 0 l 1
311 288 m 1
 528 0 l 1
 412 0 l 1
 201 282 l 1
 461 527 l 1
 578 527 l 1
 311 288 l 1
EndSplineSet
EndChar

StartChar: l
Encoding: 108 108 193
Width: 600
GlyphClass: 2
Flags: MW
HStem: -12 76<339 369.5> 668 71<124 275 114 377>
VStem: 114 359
AnchorPoint: "Anchor-8" 286 0 basechar 0
AnchorPoint: "Anchor-7" 0 0 basechar 0
AnchorPoint: "Anchor-6" 398 739 basechar 0
LayerCount: 2
Fore
SplineSet
291 131 m 2
 284 80 315 64 363 64 c 0
 396 64 425 72 454 83 c 1
 473 15 l 1
 442 0 396 -12 343 -12 c 0
 244 -12 188 48 201 143 c 2
 275 668 l 1
 114 668 l 1
 124 739 l 1
 377 739 l 1
 291 131 l 2
EndSplineSet
EndChar

StartChar: lacute
Encoding: 314 314 194
Width: 600
GlyphClass: 2
Flags: MW
HStem: -12 76<339 369.5> 668 71<124 275 114 377>
VStem: 114 390<668 926>
AnchorPoint: "Anchor-8" 286 0 basechar 0
AnchorPoint: "Anchor-7" 0 0 basechar 0
AnchorPoint: "Anchor-6" 398 739 basechar 0
LayerCount: 2
Fore
SplineSet
467 1003 m 1
 504 926 l 1
 287 834 l 1
 263 884 l 1
 467 1003 l 1
291 131 m 2
 284 80 315 64 363 64 c 0
 396 64 425 72 454 83 c 1
 473 15 l 1
 442 0 396 -12 343 -12 c 0
 244 -12 188 48 201 143 c 2
 275 668 l 1
 114 668 l 1
 124 739 l 1
 377 739 l 1
 291 131 l 2
EndSplineSet
EndChar

StartChar: lcaron
Encoding: 318 318 195
Width: 600
GlyphClass: 2
Flags: MW
HStem: -12 76<339 369.5> 668 71<124 275 114 377>
VStem: 114 430<668 739>
AnchorPoint: "Anchor-8" 286 0 basechar 0
AnchorPoint: "Anchor-7" 0 0 basechar 0
AnchorPoint: "Anchor-6" 398 739 basechar 0
LayerCount: 2
Fore
SplineSet
544 739 m 1
 462 555 l 1
 409 563 l 1
 461 749 l 1
 544 739 l 1
291 131 m 2
 284 80 315 64 363 64 c 0
 396 64 425 72 454 83 c 1
 473 15 l 1
 442 0 396 -12 343 -12 c 0
 244 -12 188 48 201 143 c 2
 275 668 l 1
 114 668 l 1
 124 739 l 1
 377 739 l 1
 291 131 l 2
EndSplineSet
EndChar

StartChar: lcommaaccent
Encoding: 316 316 196
Width: 600
GlyphClass: 2
Flags: MW
HStem: -12 76<339 369.5> 668 71<124 275 114 377>
VStem: 114 359 252 113
AnchorPoint: "Anchor-8" 286 0 basechar 0
AnchorPoint: "Anchor-7" 0 0 basechar 0
AnchorPoint: "Anchor-6" 398 739 basechar 0
LayerCount: 2
Fore
SplineSet
291 131 m 2xe0
 284 80 315 64 363 64 c 0
 396 64 425 72 454 83 c 1
 473 15 l 1
 442 0 396 -12 343 -12 c 0
 244 -12 188 48 201 143 c 2
 275 668 l 1
 114 668 l 1
 124 739 l 1
 377 739 l 1
 291 131 l 2xe0
312 -70 m 0xd0
 346 -70 369 -97 365 -131 c 0
 362 -147 356 -162 343 -186 c 2
 277 -290 l 1
 222 -290 l 1
 270 -171 l 1
 257 -160 249 -142 252 -121 c 0
 256 -91 282 -70 312 -70 c 0xd0
EndSplineSet
EndChar

StartChar: ldot
Encoding: 320 320 197
Width: 600
GlyphClass: 2
Flags: MW
HStem: -12 76<339 369.5> 319 125<517 544.5> 668 71<124 275 114 377>
VStem: 114 481.53 467 128
AnchorPoint: "Anchor-8" 286 0 basechar 0
AnchorPoint: "Anchor-7" 0 0 basechar 0
AnchorPoint: "Anchor-6" 398 739 basechar 0
LayerCount: 2
Fore
SplineSet
291 131 m 2xf0
 284 80 315 64 363 64 c 0
 396 64 425 72 454 83 c 1
 473 15 l 1
 442 0 396 -12 343 -12 c 0
 244 -12 188 48 201 143 c 2
 275 668 l 1
 114 668 l 1
 124 739 l 1
 377 739 l 1
 291 131 l 2xf0
535 444 m 0xe8
 576 444 600 414 595 377 c 0
 590 343 563 319 526 319 c 0
 486 319 462 349 467 387 c 0
 472 420 499 444 535 444 c 0xe8
EndSplineSet
EndChar

StartChar: lslash
Encoding: 322 322 198
Width: 600
GlyphClass: 2
Flags: MW
HStem: -12 76<302 332.5> 668 71<87 238 77 340>
VStem: 77 382<434 668>
AnchorPoint: "Anchor-8" 249 0 basechar 0
AnchorPoint: "Anchor-7" 0 0 basechar 0
AnchorPoint: "Anchor-6" 361 739 basechar 0
LayerCount: 2
Fore
SplineSet
326 64 m 0
 359 64 388 72 417 83 c 1
 436 15 l 1
 405 0 359 -12 306 -12 c 0
 207 -12 151 48 164 143 c 2
 183 277 l 1
 154 261 l 1
 123 319 l 1
 194 359 l 1
 238 668 l 1
 77 668 l 1
 87 739 l 1
 340 739 l 1
 294 415 l 1
 428 492 l 1
 459 434 l 1
 283 334 l 1
 254 131 l 2
 247 80 278 64 326 64 c 0
EndSplineSet
EndChar

StartChar: m
Encoding: 109 109 199
Width: 600
GlyphClass: 2
Flags: MW
HStem: 467 72<249 270 458.5 479>
VStem: 281.19 78.81 490.19 83.24
LayerCount: 2
Fore
SplineSet
484 539 m 0
 539 539 587 509 570 389 c 2
 515 0 l 1
 431 0 l 1
 485 381 l 2
 493 444 496 467 462 467 c 0
 430 467 396 448 362 405 c 1
 304 0 l 1
 222 0 l 1
 276 381 l 2
 284 444 287 467 253 467 c 0
 220 467 187 448 153 405 c 1
 95 0 l 1
 11 0 l 1
 85 527 l 1
 156 527 l 1
 153 469 l 1
 188 510 224 539 274 539 c 0
 316 539 352 521 360 470 c 1
 396 513 433 539 484 539 c 0
EndSplineSet
EndChar

StartChar: n
Encoding: 110 110 200
Width: 600
GlyphClass: 2
Flags: MW
HStem: 467 72<361 395.5>
VStem: 427.47 95.26
AnchorPoint: "Anchor-8" 227 0 basechar 0
AnchorPoint: "Anchor-7" 0 0 basechar 0
AnchorPoint: "Anchor-6" 374 527 basechar 0
LayerCount: 2
Fore
SplineSet
134 527 m 1
 213 527 l 1
 209 457 l 1
 260 511 331 539 391 539 c 0
 495 539 534 478 520 380 c 2
 467 0 l 1
 375 0 l 1
 421 326 l 2
 435 429 432 467 359 467 c 0
 298 467 240 421 206 380 c 1
 152 0 l 1
 60 0 l 1
 134 527 l 1
EndSplineSet
EndChar

StartChar: nacute
Encoding: 324 324 201
Width: 600
GlyphClass: 2
Flags: MW
HStem: 467 72<361 395.5>
VStem: 427.47 95.26
AnchorPoint: "Anchor-8" 227 0 basechar 0
AnchorPoint: "Anchor-7" 0 0 basechar 0
AnchorPoint: "Anchor-6" 374 527 basechar 0
LayerCount: 2
Fore
SplineSet
443 791 m 1
 480 714 l 1
 263 622 l 1
 239 672 l 1
 443 791 l 1
134 527 m 1
 213 527 l 1
 209 457 l 1
 260 511 331 539 391 539 c 0
 495 539 534 478 520 380 c 2
 467 0 l 1
 375 0 l 1
 421 326 l 2
 435 429 432 467 359 467 c 0
 298 467 240 421 206 380 c 1
 152 0 l 1
 60 0 l 1
 134 527 l 1
EndSplineSet
EndChar

StartChar: napostrophe
Encoding: 329 329 202
Width: 600
GlyphClass: 2
Flags: MW
HStem: 467 72<361 395.5>
VStem: 59 114 427.47 95.26
AnchorPoint: "Anchor-8" 227 0 basechar 0
AnchorPoint: "Anchor-7" 0 0 basechar 0
AnchorPoint: "Anchor-6" 374 527 basechar 0
LayerCount: 2
Fore
SplineSet
120 750 m 0
 154 750 178 723 173 689 c 0
 171 674 165 659 138 615 c 2
 85 531 l 1
 31 531 l 1
 78 649 l 1
 66 661 56 678 59 699 c 0
 63 729 90 750 120 750 c 0
134 527 m 1
 213 527 l 1
 209 457 l 1
 260 511 331 539 391 539 c 0
 495 539 534 478 520 380 c 2
 467 0 l 1
 375 0 l 1
 421 326 l 2
 435 429 432 467 359 467 c 0
 298 467 240 421 206 380 c 1
 152 0 l 1
 60 0 l 1
 134 527 l 1
EndSplineSet
EndChar

StartChar: ncaron
Encoding: 328 328 203
Width: 600
GlyphClass: 2
Flags: MW
HStem: 467 72<361 395.5>
VStem: 427.47 95.26
AnchorPoint: "Anchor-8" 227 0 basechar 0
AnchorPoint: "Anchor-7" 0 0 basechar 0
AnchorPoint: "Anchor-6" 374 527 basechar 0
LayerCount: 2
Fore
SplineSet
534 748 m 1
 383 627 l 1
 322 627 l 1
 202 748 l 1
 249 792 l 1
 361 701 l 1
 499 792 l 1
 534 748 l 1
134 527 m 1
 213 527 l 1
 209 457 l 1
 260 511 331 539 391 539 c 0
 495 539 534 478 520 380 c 2
 467 0 l 1
 375 0 l 1
 421 326 l 2
 435 429 432 467 359 467 c 0
 298 467 240 421 206 380 c 1
 152 0 l 1
 60 0 l 1
 134 527 l 1
EndSplineSet
EndChar

StartChar: ncommaaccent
Encoding: 326 326 204
Width: 600
GlyphClass: 2
Flags: MW
HStem: 467 72<361 395.5>
VStem: 193 113 427.47 95.26
AnchorPoint: "Anchor-8" 227 0 basechar 0
AnchorPoint: "Anchor-7" 0 0 basechar 0
AnchorPoint: "Anchor-6" 374 527 basechar 0
LayerCount: 2
Fore
SplineSet
134 527 m 1
 213 527 l 1
 209 457 l 1
 260 511 331 539 391 539 c 0
 495 539 534 478 520 380 c 2
 467 0 l 1
 375 0 l 1
 421 326 l 2
 435 429 432 467 359 467 c 0
 298 467 240 421 206 380 c 1
 152 0 l 1
 60 0 l 1
 134 527 l 1
253 -70 m 0
 287 -70 310 -97 306 -131 c 0
 303 -147 297 -162 284 -186 c 2
 218 -290 l 1
 163 -290 l 1
 211 -171 l 1
 198 -160 190 -142 193 -121 c 0
 197 -91 223 -70 253 -70 c 0
EndSplineSet
EndChar

StartChar: eng
Encoding: 331 331 205
Width: 600
GlyphClass: 2
Flags: MW
HStem: 467 72<361 395.5>
VStem: 427.6 95.13
LayerCount: 2
Fore
SplineSet
471 29 m 2
 450 -123 391 -166 279 -213 c 1
 250 -144 l 1
 323 -112 363 -84 379 29 c 2
 421 326 l 2
 435 429 433 467 358 467 c 0
 299 467 240 421 206 380 c 1
 152 0 l 1
 60 0 l 1
 134 527 l 1
 213 527 l 1
 209 457 l 1
 260 511 331 539 391 539 c 0
 495 539 534 478 520 380 c 2
 471 29 l 2
EndSplineSet
EndChar

StartChar: ntilde
Encoding: 241 241 206
Width: 600
GlyphClass: 2
Flags: MW
HStem: 467 72<361 395.5> 650 70<402.5 429 402.5 437.5> 698 70<295 321.5>
VStem: 427.47 95.26
AnchorPoint: "Anchor-8" 227 0 basechar 0
AnchorPoint: "Anchor-7" 0 0 basechar 0
AnchorPoint: "Anchor-6" 374 527 basechar 0
LayerCount: 2
Fore
SplineSet
410 650 m 0xd0
 350 650 336 698 307 698 c 0
 283 698 267 680 247 652 c 1
 192 682 l 1
 218 729 259 768 314 768 c 0xb0
 376 768 388 720 417 720 c 0
 441 720 458 738 478 766 c 1
 533 737 l 1
 506 690 465 650 410 650 c 0xd0
134 527 m 1
 213 527 l 1
 209 457 l 1
 260 511 331 539 391 539 c 0
 495 539 534 478 520 380 c 2
 467 0 l 1
 375 0 l 1
 421 326 l 2
 435 429 432 467 359 467 c 0
 298 467 240 421 206 380 c 1xb0
 152 0 l 1
 60 0 l 1
 134 527 l 1
EndSplineSet
EndChar

StartChar: o
Encoding: 111 111 207
Width: 600
GlyphClass: 2
Flags: MW
HStem: -12 74<225 313 225 338.5> 465 74<288 375.5>
VStem: 66.2 96.15 437.63 96.19
AnchorPoint: "Anchor-8" 0 0 basechar 0
AnchorPoint: "Anchor-7" 0 0 basechar 0
AnchorPoint: "Anchor-6" 374 527 basechar 0
LayerCount: 2
Fore
SplineSet
336 539 m 0
 488 539 553 428 529 259 c 0
 507 98 412 -12 265 -12 c 0
 113 -12 47 99 71 268 c 0
 93 429 188 539 336 539 c 0
333 465 m 0
 243 465 187 398 167 258 c 0
 148 123 182 62 268 62 c 0
 358 62 413 129 433 269 c 0
 452 404 418 465 333 465 c 0
EndSplineSet
EndChar

StartChar: oacute
Encoding: 243 243 208
Width: 600
GlyphClass: 2
Flags: MW
HStem: -12 74<225 313 225 338.5> 465 74<288 375.5>
VStem: 66.2 96.15 437.63 96.19
AnchorPoint: "Anchor-8" 0 0 basechar 0
AnchorPoint: "Anchor-7" 0 0 basechar 0
AnchorPoint: "Anchor-6" 374 527 basechar 0
LayerCount: 2
Fore
SplineSet
443 791 m 1
 480 714 l 1
 263 622 l 1
 239 672 l 1
 443 791 l 1
336 539 m 0
 488 539 553 428 529 259 c 0
 507 98 412 -12 265 -12 c 0
 113 -12 47 99 71 268 c 0
 93 429 188 539 336 539 c 0
333 465 m 0
 243 465 187 398 167 258 c 0
 148 123 182 62 268 62 c 0
 358 62 413 129 433 269 c 0
 452 404 418 465 333 465 c 0
EndSplineSet
EndChar

StartChar: obreve
Encoding: 335 335 209
Width: 600
GlyphClass: 2
Flags: MW
HStem: -12 74<225 313 225 338.5> 465 74<288 375.5> 628 69<332.5 380 332.5 399>
VStem: 66.2 96.15 219 61<771 779> 437.63 96.19
AnchorPoint: "Anchor-8" 0 0 basechar 0
AnchorPoint: "Anchor-7" 0 0 basechar 0
AnchorPoint: "Anchor-6" 374 527 basechar 0
LayerCount: 2
Fore
SplineSet
353 628 m 0
 258 628 218 707 219 771 c 1
 280 779 l 1
 287 729 310 697 355 697 c 0
 405 697 441 733 462 783 c 1
 521 765 l 1
 504 701 445 628 353 628 c 0
336 539 m 0
 488 539 553 428 529 259 c 0
 507 98 412 -12 265 -12 c 0
 113 -12 47 99 71 268 c 0
 93 429 188 539 336 539 c 0
333 465 m 0
 243 465 187 398 167 258 c 0
 148 123 182 62 268 62 c 0
 358 62 413 129 433 269 c 0
 452 404 418 465 333 465 c 0
EndSplineSet
EndChar

StartChar: ocircumflex
Encoding: 244 244 210
Width: 600
GlyphClass: 2
Flags: MW
HStem: -12 74<225 313 225 338.5> 465 74<288 375.5>
VStem: 66.2 96.15 437.63 96.19
AnchorPoint: "Anchor-8" 0 0 basechar 0
AnchorPoint: "Anchor-7" 0 0 basechar 0
AnchorPoint: "Anchor-6" 374 527 basechar 0
LayerCount: 2
Fore
SplineSet
191 671 m 1
 343 792 l 1
 404 792 l 1
 523 671 l 1
 478 627 l 1
 366 718 l 1
 228 627 l 1
 191 671 l 1
336 539 m 0
 488 539 553 428 529 259 c 0
 507 98 412 -12 265 -12 c 0
 113 -12 47 99 71 268 c 0
 93 429 188 539 336 539 c 0
333 465 m 0
 243 465 187 398 167 258 c 0
 148 123 182 62 268 62 c 0
 358 62 413 129 433 269 c 0
 452 404 418 465 333 465 c 0
EndSplineSet
EndChar

StartChar: odieresis
Encoding: 246 246 211
Width: 600
GlyphClass: 2
Flags: MW
HStem: -12 74<225 313 225 338.5> 465 74<288 375.5> 647 113<245.5 268 455 477.5>
VStem: 66.2 96.15 199 114 409 114 437.63 96.19
AnchorPoint: "Anchor-8" 0 0 basechar 0
AnchorPoint: "Anchor-7" 0 0 basechar 0
AnchorPoint: "Anchor-6" 424 702 basechar 0
LayerCount: 2
Fore
SplineSet
253 647 m 0xfa
 218 647 195 674 199 708 c 0
 204 739 230 760 261 760 c 0
 295 760 318 733 313 698 c 0
 309 668 283 647 253 647 c 0xfa
462 647 m 0xfc
 428 647 405 674 409 708 c 0
 414 739 440 760 470 760 c 0
 505 760 528 733 523 698 c 0
 519 668 493 647 462 647 c 0xfc
336 539 m 0xfa
 488 539 553 428 529 259 c 0
 507 98 412 -12 265 -12 c 0
 113 -12 47 99 71 268 c 0
 93 429 188 539 336 539 c 0xfa
333 465 m 0
 243 465 187 398 167 258 c 0
 148 123 182 62 268 62 c 0
 358 62 413 129 433 269 c 0
 452 404 418 465 333 465 c 0
EndSplineSet
EndChar

StartChar: ograve
Encoding: 242 242 212
Width: 600
GlyphClass: 2
Flags: MW
HStem: -12 74<225 313 225 338.5> 465 74<288 375.5>
VStem: 66.2 96.15 437.63 96.19
AnchorPoint: "Anchor-8" 0 0 basechar 0
AnchorPoint: "Anchor-7" 0 0 basechar 0
AnchorPoint: "Anchor-6" 374 527 basechar 0
LayerCount: 2
Fore
SplineSet
245 715 m 1
 302 792 l 1
 474 672 l 1
 439 622 l 1
 245 715 l 1
336 539 m 0
 488 539 553 428 529 259 c 0
 507 98 412 -12 265 -12 c 0
 113 -12 47 99 71 268 c 0
 93 429 188 539 336 539 c 0
333 465 m 0
 243 465 187 398 167 258 c 0
 148 123 182 62 268 62 c 0
 358 62 413 129 433 269 c 0
 452 404 418 465 333 465 c 0
EndSplineSet
EndChar

StartChar: ohungarumlaut
Encoding: 337 337 213
Width: 600
GlyphClass: 2
Flags: MW
HStem: -12 74<225 313 225 338.5> 465 74<288 375.5>
VStem: 66.2 96.15 437.63 96.19
AnchorPoint: "Anchor-8" 0 0 basechar 0
AnchorPoint: "Anchor-7" 0 0 basechar 0
AnchorPoint: "Anchor-6" 374 527 basechar 0
LayerCount: 2
Fore
SplineSet
335 838 m 1
 409 801 l 1
 286 635 l 1
 231 662 l 1
 335 838 l 1
508 838 m 1
 580 798 l 1
 448 633 l 1
 395 662 l 1
 508 838 l 1
336 539 m 0
 488 539 553 428 529 259 c 0
 507 98 412 -12 265 -12 c 0
 113 -12 47 99 71 268 c 0
 93 429 188 539 336 539 c 0
333 465 m 0
 243 465 187 398 167 258 c 0
 148 123 182 62 268 62 c 0
 358 62 413 129 433 269 c 0
 452 404 418 465 333 465 c 0
EndSplineSet
EndChar

StartChar: omacron
Encoding: 333 333 214
Width: 600
GlyphClass: 2
Flags: MW
HStem: -12 74<225 313 225 338.5> 465 74<288 375.5> 674 69<221 503 230 494>
VStem: 66.2 96.15 437.63 96.19
AnchorPoint: "Anchor-8" 0 0 basechar 0
AnchorPoint: "Anchor-7" 0 0 basechar 0
AnchorPoint: "Anchor-6" 374 527 basechar 0
LayerCount: 2
Fore
SplineSet
221 674 m 1
 230 743 l 1
 503 743 l 1
 494 674 l 1
 221 674 l 1
336 539 m 0
 488 539 553 428 529 259 c 0
 507 98 412 -12 265 -12 c 0
 113 -12 47 99 71 268 c 0
 93 429 188 539 336 539 c 0
333 465 m 0
 243 465 187 398 167 258 c 0
 148 123 182 62 268 62 c 0
 358 62 413 129 433 269 c 0
 452 404 418 465 333 465 c 0
EndSplineSet
EndChar

StartChar: oslash
Encoding: 248 248 215
Width: 600
GlyphClass: 2
Flags: MW
HStem: -12 74<263.5 313 263.5 338.5> 465 74<288 337.5>
VStem: 66.97 94.76 438.26 94.76
AnchorPoint: "Anchor-8" 0 0 basechar 0
AnchorPoint: "Anchor-7" 0 0 basechar 0
AnchorPoint: "Anchor-6" 374 527 basechar 0
LayerCount: 2
Fore
SplineSet
454 506 m 1
 518 461 545 373 529 259 c 0
 507 98 412 -12 265 -12 c 0
 247 -12 230 -10 215 -7 c 1
 161 -131 l 1
 88 -109 l 1
 147 21 l 1
 82 65 55 153 71 268 c 0
 93 429 188 539 336 539 c 0
 353 539 369 537 385 535 c 1
 440 655 l 1
 513 633 l 1
 454 506 l 1
167 258 m 0
 155 170 163 117 190 89 c 1
 359 463 l 1
 351 464 342 465 333 465 c 0
 243 465 187 398 167 258 c 0
433 269 m 0
 445 356 437 409 410 438 c 1
 242 64 l 1
 250 63 259 62 268 62 c 0
 358 62 413 129 433 269 c 0
EndSplineSet
EndChar

StartChar: oslashacute
Encoding: 511 511 216
Width: 600
GlyphClass: 2
Flags: MW
HStem: -12 74<263.5 313 263.5 338.5> 465 74<288 337.5>
VStem: 66.97 94.76 438.26 94.76
AnchorPoint: "Anchor-8" 0 0 basechar 0
AnchorPoint: "Anchor-7" 0 0 basechar 0
AnchorPoint: "Anchor-6" 374 527 basechar 0
LayerCount: 2
Fore
SplineSet
263 622 m 1
 239 672 l 1
 443 791 l 1
 480 714 l 1
 263 622 l 1
454 506 m 1
 518 461 545 373 529 259 c 0
 507 98 412 -12 265 -12 c 0
 247 -12 230 -10 215 -7 c 1
 161 -131 l 1
 88 -109 l 1
 147 21 l 1
 82 65 55 153 71 268 c 0
 93 429 188 539 336 539 c 0
 353 539 369 537 385 535 c 1
 440 655 l 1
 513 633 l 1
 454 506 l 1
167 258 m 0
 155 170 163 117 190 89 c 1
 359 463 l 1
 351 464 342 465 333 465 c 0
 243 465 187 398 167 258 c 0
433 269 m 0
 445 356 437 409 410 438 c 1
 242 64 l 1
 250 63 259 62 268 62 c 0
 358 62 413 129 433 269 c 0
EndSplineSet
EndChar

StartChar: otilde
Encoding: 245 245 217
Width: 600
GlyphClass: 2
Flags: MW
HStem: -12 74<225 313 225 338.5> 465 74<288 375.5> 650 70<402.5 429 402.5 437.5> 698 70<295 321.5>
VStem: 66.2 96.15 437.63 96.19
AnchorPoint: "Anchor-8" 0 0 basechar 0
AnchorPoint: "Anchor-7" 0 0 basechar 0
AnchorPoint: "Anchor-6" 374 527 basechar 0
LayerCount: 2
Fore
SplineSet
410 650 m 0xec
 350 650 336 698 307 698 c 0
 283 698 267 680 247 652 c 1
 192 682 l 1
 218 729 259 768 314 768 c 0xdc
 376 768 388 720 417 720 c 0
 441 720 458 738 478 766 c 1
 533 737 l 1
 506 690 465 650 410 650 c 0xec
336 539 m 0xdc
 488 539 553 428 529 259 c 0
 507 98 412 -12 265 -12 c 0
 113 -12 47 99 71 268 c 0
 93 429 188 539 336 539 c 0xdc
333 465 m 0
 243 465 187 398 167 258 c 0
 148 123 182 62 268 62 c 0
 358 62 413 129 433 269 c 0
 452 404 418 465 333 465 c 0
EndSplineSet
EndChar

StartChar: oe
Encoding: 339 339 218
Width: 600
GlyphClass: 2
Flags: MW
HStem: -12 74<115.5 170.5 395 447.5> 229 71 466 73<177.5 240 447 507.5>
VStem: -8.75999 90.91 272.01 74.99 539.15 82.76
LayerCount: 2
Fore
SplineSet
483 539 m 0
 602 539 639 438 615 274 c 0
 613 258 610 242 607 229 c 1
 347 229 l 1
 340 112 362 62 428 62 c 0
 467 62 494 78 530 103 c 1
 566 39 l 1
 522 7 478 -12 423 -12 c 0
 348 -12 303 26 285 87 c 1
 251 26 208 -12 133 -12 c 0
 13 -12 -26 99 -2 268 c 0
 20 429 85 539 203 539 c 0
 286 539 318 497 332 438 c 1
 365 498 411 539 483 539 c 0
210 466 m 0
 145 466 110 398 90 258 c 0
 71 118 85 62 146 62 c 0
 211 62 243 119 264 269 c 0
 283 405 270 466 210 466 c 0
477 466 m 0
 417 466 382 420 357 297 c 1
 534 303 l 1
 547 412 538 466 477 466 c 0
EndSplineSet
EndChar

StartChar: p
Encoding: 112 112 219
Width: 600
GlyphClass: 2
Flags: MW
HStem: -12 75<262.5 316 250 359> 466 73<344 386.5>
VStem: 438.56 97.19
LayerCount: 2
Fore
SplineSet
374 539 m 0
 516 539 553 427 529 259 c 0
 507 101 426 -12 292 -12 c 0
 233 -12 189 10 160 50 c 1
 124 -202 l 1
 30 -213 l 1
 134 527 l 1
 213 527 l 1
 209 457 l 1
 256 511 314 539 374 539 c 0
348 466 m 0
 290 466 241 424 207 382 c 1
 169 125 l 1
 190 85 227 63 273 63 c 0
 359 63 413 129 433 269 c 0
 452 404 425 466 348 466 c 0
EndSplineSet
EndChar

StartChar: thorn
Encoding: 254 254 220
Width: 600
GlyphClass: 2
Flags: MW
HStem: -12 75<262.5 316 250 359> 466 73<345.5 386.5>
VStem: 438.56 97.19
LayerCount: 2
Fore
SplineSet
216 465 m 1
 261 514 317 539 374 539 c 0
 516 539 553 427 529 259 c 0
 507 101 426 -12 292 -12 c 0
 233 -12 189 10 160 50 c 1
 124 -202 l 1
 30 -213 l 1
 164 739 l 1
 257 750 l 1
 216 465 l 1
348 466 m 0
 290 466 241 424 207 382 c 1
 169 125 l 1
 190 85 227 63 273 63 c 0
 359 63 413 129 433 269 c 0
 452 404 425 466 348 466 c 0
EndSplineSet
EndChar

StartChar: q
Encoding: 113 113 221
Width: 600
GlyphClass: 2
Flags: MW
HStem: -12 75<215 257> 466 73<284 339 242.5 350>
VStem: 64.39 97.34
LayerCount: 2
Fore
SplineSet
307 539 m 0
 371 539 416 513 444 469 c 1
 461 527 l 1
 540 527 l 1
 436 -213 l 1
 346 -202 l 1
 384 62 l 1
 338 10 285 -12 229 -12 c 0
 86 -12 47 100 71 268 c 0
 93 425 178 539 307 539 c 0
327 466 m 0
 241 466 187 397 167 258 c 0
 148 124 177 63 253 63 c 0
 311 63 359 101 393 144 c 1
 432 403 l 1
 410 444 373 466 327 466 c 0
EndSplineSet
EndChar

StartChar: r
Encoding: 114 114 222
Width: 600
GlyphClass: 2
Flags: MW
HStem: 0 71<55 186 65 186 278 415> 449 90<459.5 486.5> 456 71<129 240 119 330>
VStem: 55 504 124 204
AnchorPoint: "Anchor-8" 185 0 basechar 0
AnchorPoint: "Anchor-7" 0 0 basechar 0
AnchorPoint: "Anchor-6" 384 527 basechar 0
LayerCount: 2
Fore
SplineSet
55 0 m 1xb0
 65 71 l 1
 186 71 l 1
 240 456 l 1
 119 456 l 1
 129 527 l 1
 330 527 l 1xa8
 326 428 l 1xc8
 367 502 429 539 490 539 c 0
 518 539 535 536 559 530 c 1
 534 441 l 1
 513 447 497 449 476 449 c 0xd0
 404 449 339 380 311 307 c 1
 278 71 l 1
 425 71 l 1
 415 0 l 1
 55 0 l 1xb0
EndSplineSet
EndChar

StartChar: racute
Encoding: 341 341 223
Width: 600
GlyphClass: 2
Flags: MW
HStem: 0 71<55 186 65 186 278 415> 449 90<459.5 486.5> 456 71<129 240 119 330>
VStem: 55 504 124 204
AnchorPoint: "Anchor-8" 185 0 basechar 0
AnchorPoint: "Anchor-7" 0 0 basechar 0
AnchorPoint: "Anchor-6" 384 527 basechar 0
LayerCount: 2
Fore
SplineSet
453 791 m 1xb0
 490 714 l 1
 273 622 l 1
 249 672 l 1
 453 791 l 1xb0
55 0 m 1
 65 71 l 1
 186 71 l 1
 240 456 l 1
 119 456 l 1
 129 527 l 1
 330 527 l 1xa8
 326 428 l 1xc8
 367 502 429 539 490 539 c 0
 518 539 535 536 559 530 c 1
 534 441 l 1
 513 447 497 449 476 449 c 0xd0
 404 449 339 380 311 307 c 1
 278 71 l 1
 425 71 l 1
 415 0 l 1
 55 0 l 1
EndSplineSet
EndChar

StartChar: rcaron
Encoding: 345 345 224
Width: 600
GlyphClass: 2
Flags: MW
HStem: 0 71<55 186 65 186 278 415> 449 90<459.5 486.5> 456 71<129 240 119 330>
VStem: 55 504 124 204
AnchorPoint: "Anchor-8" 185 0 basechar 0
AnchorPoint: "Anchor-7" 0 0 basechar 0
AnchorPoint: "Anchor-6" 384 527 basechar 0
LayerCount: 2
Fore
SplineSet
544 748 m 1xb0
 393 627 l 1
 332 627 l 1
 212 748 l 1
 259 792 l 1
 371 701 l 1
 509 792 l 1
 544 748 l 1xb0
55 0 m 1
 65 71 l 1
 186 71 l 1
 240 456 l 1
 119 456 l 1
 129 527 l 1
 330 527 l 1xa8
 326 428 l 1xc8
 367 502 429 539 490 539 c 0
 518 539 535 536 559 530 c 1
 534 441 l 1
 513 447 497 449 476 449 c 0xd0
 404 449 339 380 311 307 c 1
 278 71 l 1
 425 71 l 1
 415 0 l 1
 55 0 l 1
EndSplineSet
EndChar

StartChar: rcommaaccent
Encoding: 343 343 225
Width: 600
GlyphClass: 2
Flags: MW
HStem: 0 71<55 186 65 186 278 415> 449 90<459.5 486.5> 456 71<129 240 119 330>
VStem: 55 504 124 204 151 113
AnchorPoint: "Anchor-8" 185 0 basechar 0
AnchorPoint: "Anchor-7" 0 0 basechar 0
AnchorPoint: "Anchor-6" 384 527 basechar 0
LayerCount: 2
Fore
SplineSet
55 0 m 1xb0
 65 71 l 1
 186 71 l 1
 240 456 l 1
 119 456 l 1
 129 527 l 1
 330 527 l 1xa8
 326 428 l 1xc8
 367 502 429 539 490 539 c 0
 518 539 535 536 559 530 c 1
 534 441 l 1
 513 447 497 449 476 449 c 0xd0
 404 449 339 380 311 307 c 1
 278 71 l 1
 425 71 l 1
 415 0 l 1
 55 0 l 1xb0
211 -70 m 0xa4
 245 -70 268 -97 264 -131 c 0
 261 -147 255 -162 242 -186 c 2
 176 -290 l 1
 121 -290 l 1
 169 -171 l 1
 156 -160 148 -142 151 -121 c 0
 155 -91 181 -70 211 -70 c 0xa4
EndSplineSet
EndChar

StartChar: s
Encoding: 115 115 226
Width: 600
GlyphClass: 2
Flags: MW
HStem: -12 74<218 288> 466 73<297 370>
VStem: 44 483<62 479>
AnchorPoint: "Anchor-8" 223 0 basechar 0
AnchorPoint: "Anchor-7" 0 0 basechar 0
AnchorPoint: "Anchor-6" 382 527 basechar 0
LayerCount: 2
Fore
SplineSet
248 62 m 0
 328 62 382 96 390 147 c 0
 396 191 385 213 280 241 c 0
 174 268 107 304 120 398 c 0
 132 485 219 539 339 539 c 0
 427 539 486 512 527 479 c 1
 482 420 l 1
 446 447 402 466 338 466 c 0
 256 466 220 436 214 395 c 0
 208 352 236 338 336 309 c 0
 437 281 502 243 488 142 c 0
 472 31 358 -12 245 -12 c 0
 147 -12 85 22 44 62 c 1
 99 117 l 1
 136 83 188 62 248 62 c 0
EndSplineSet
EndChar

StartChar: sacute
Encoding: 347 347 227
Width: 600
GlyphClass: 2
Flags: MW
HStem: -12 74<218 288> 466 73<297 370>
VStem: 44 483<62 479>
AnchorPoint: "Anchor-8" 223 0 basechar 0
AnchorPoint: "Anchor-7" 0 0 basechar 0
AnchorPoint: "Anchor-6" 382 527 basechar 0
LayerCount: 2
Fore
SplineSet
451 791 m 1
 488 714 l 1
 271 622 l 1
 247 672 l 1
 451 791 l 1
248 62 m 0
 328 62 382 96 390 147 c 0
 396 191 385 213 280 241 c 0
 174 268 107 304 120 398 c 0
 132 485 219 539 339 539 c 0
 427 539 486 512 527 479 c 1
 482 420 l 1
 446 447 402 466 338 466 c 0
 256 466 220 436 214 395 c 0
 208 352 236 338 336 309 c 0
 437 281 502 243 488 142 c 0
 472 31 358 -12 245 -12 c 0
 147 -12 85 22 44 62 c 1
 99 117 l 1
 136 83 188 62 248 62 c 0
EndSplineSet
EndChar

StartChar: scaron
Encoding: 353 353 228
Width: 600
GlyphClass: 2
Flags: MW
HStem: -12 74<218 288> 466 73<297 370>
VStem: 44 498
AnchorPoint: "Anchor-8" 223 0 basechar 0
AnchorPoint: "Anchor-7" 0 0 basechar 0
AnchorPoint: "Anchor-6" 382 527 basechar 0
LayerCount: 2
Fore
SplineSet
542 748 m 1
 391 627 l 1
 330 627 l 1
 210 748 l 1
 257 792 l 1
 369 701 l 1
 507 792 l 1
 542 748 l 1
248 62 m 0
 328 62 382 96 390 147 c 0
 396 191 385 213 280 241 c 0
 174 268 107 304 120 398 c 0
 132 485 219 539 339 539 c 0
 427 539 486 512 527 479 c 1
 482 420 l 1
 446 447 402 466 338 466 c 0
 256 466 220 436 214 395 c 0
 208 352 236 338 336 309 c 0
 437 281 502 243 488 142 c 0
 472 31 358 -12 245 -12 c 0
 147 -12 85 22 44 62 c 1
 99 117 l 1
 136 83 188 62 248 62 c 0
EndSplineSet
EndChar

StartChar: scedilla
Encoding: 351 351 229
Width: 600
GlyphClass: 2
Flags: MW
HStem: -241 60<200 228.5 200 252.5> -99 43 -11 73<279 279> 466 73<297 370>
VStem: 279 75
AnchorPoint: "Anchor-8" 223 0 basechar 0
AnchorPoint: "Anchor-7" 0 0 basechar 0
AnchorPoint: "Anchor-6" 382 527 basechar 0
LayerCount: 2
Fore
SplineSet
336 309 m 0
 437 281 502 243 488 142 c 0
 474 42 380 -3 279 -11 c 1
 271 -56 l 1
 336 -62 360 -103 354 -146 c 0
 345 -210 285 -241 220 -241 c 0
 177 -241 140 -230 115 -215 c 1
 147 -166 l 1
 164 -176 190 -181 210 -181 c 0
 247 -181 274 -167 279 -136 c 0
 283 -103 253 -99 199 -99 c 1
 217 -11 l 1
 135 -5 81 26 44 62 c 1
 99 117 l 1
 136 83 188 62 248 62 c 0
 328 62 382 96 390 147 c 0
 396 191 385 213 280 241 c 0
 174 268 107 304 120 398 c 0
 132 485 219 539 339 539 c 0
 427 539 486 512 527 479 c 1
 482 420 l 1
 446 447 402 466 338 466 c 0
 256 466 220 436 214 395 c 0
 208 352 236 338 336 309 c 0
EndSplineSet
EndChar

StartChar: scircumflex
Encoding: 349 349 230
Width: 600
GlyphClass: 2
Flags: MW
HStem: -12 74<218 288> 466 73<297 370>
VStem: 44 487
AnchorPoint: "Anchor-8" 223 0 basechar 0
AnchorPoint: "Anchor-7" 0 0 basechar 0
AnchorPoint: "Anchor-6" 382 527 basechar 0
LayerCount: 2
Fore
SplineSet
199 671 m 1
 351 792 l 1
 412 792 l 1
 531 671 l 1
 486 627 l 1
 374 718 l 1
 236 627 l 1
 199 671 l 1
248 62 m 0
 328 62 382 96 390 147 c 0
 396 191 385 213 280 241 c 0
 174 268 107 304 120 398 c 0
 132 485 219 539 339 539 c 0
 427 539 486 512 527 479 c 1
 482 420 l 1
 446 447 402 466 338 466 c 0
 256 466 220 436 214 395 c 0
 208 352 236 338 336 309 c 0
 437 281 502 243 488 142 c 0
 472 31 358 -12 245 -12 c 0
 147 -12 85 22 44 62 c 1
 99 117 l 1
 136 83 188 62 248 62 c 0
EndSplineSet
EndChar

StartChar: scommaaccent
Encoding: 537 537 231
Width: 600
GlyphClass: 2
Flags: MW
HStem: -12 74<218 288> 466 73<297 370>
VStem: 44 483<62 479> 189 113
AnchorPoint: "Anchor-8" 223 0 basechar 0
AnchorPoint: "Anchor-7" 0 0 basechar 0
AnchorPoint: "Anchor-6" 382 527 basechar 0
LayerCount: 2
Fore
SplineSet
248 62 m 0xe0
 328 62 382 96 390 147 c 0
 396 191 385 213 280 241 c 0
 174 268 107 304 120 398 c 0
 132 485 219 539 339 539 c 0
 427 539 486 512 527 479 c 1
 482 420 l 1
 446 447 402 466 338 466 c 0
 256 466 220 436 214 395 c 0
 208 352 236 338 336 309 c 0
 437 281 502 243 488 142 c 0
 472 31 358 -12 245 -12 c 0
 147 -12 85 22 44 62 c 1
 99 117 l 1
 136 83 188 62 248 62 c 0xe0
249 -70 m 0xd0
 283 -70 306 -97 302 -131 c 0
 299 -147 293 -162 280 -186 c 2
 214 -290 l 1
 159 -290 l 1
 207 -171 l 1
 194 -160 186 -142 189 -121 c 0
 193 -91 219 -70 249 -70 c 0xd0
EndSplineSet
EndChar

StartChar: germandbls
Encoding: 223 223 232
Width: 600
GlyphClass: 2
Flags: MW
HStem: -12 74<318 364 318 387> 678 72<320 390>
VStem: 55 493
LayerCount: 2
Fore
SplineSet
360 750 m 0
 468 750 533 687 520 600 c 0
 507 505 394 488 385 424 c 0
 373 340 570 333 546 162 c 0
 530 48 437 -12 337 -12 c 0
 282 -12 243 1 210 23 c 1
 252 84 l 1
 274 70 305 62 331 62 c 0
 397 62 443 98 453 168 c 0
 470 292 277 289 295 422 c 0
 308 515 422 526 433 602 c 0
 437 636 423 678 357 678 c 0
 283 678 236 636 222 536 c 2
 147 0 l 1
 55 0 l 1
 130 536 l 2
 150 678 234 750 360 750 c 0
EndSplineSet
EndChar

StartChar: t
Encoding: 116 116 233
Width: 600
GlyphClass: 2
Flags: MW
HStem: -12 76<321 367> 457 70<114 224 104 234 326 486>
VStem: 104 403<457 527>
AnchorPoint: "Anchor-8" 296 0 basechar 0
AnchorPoint: "Anchor-7" 0 0 basechar 0
AnchorPoint: "Anchor-6" 0 0 basechar 0
LayerCount: 2
Fore
SplineSet
491 26 m 1
 450 2 392 -12 342 -12 c 0
 224 -12 168 58 182 154 c 2
 224 457 l 1
 104 457 l 1
 114 527 l 1
 234 527 l 1
 251 646 l 1
 344 657 l 1
 326 527 l 1
 507 527 l 1
 486 457 l 1
 316 457 l 1
 273 149 l 2
 265 91 287 64 355 64 c 0
 396 64 431 75 460 90 c 1
 491 26 l 1
EndSplineSet
EndChar

StartChar: tbar
Encoding: 359 359 234
Width: 600
GlyphClass: 2
Flags: MW
HStem: -12 76<284 330> 285 68<101 163 91 173 264 463> 457 70<77 187 67 197 289 449>
VStem: 67 406<353 457>
AnchorPoint: "Anchor-8" 259 0 basechar 0
AnchorPoint: "Anchor-7" 0 0 basechar 0
AnchorPoint: "Anchor-6" 0 0 basechar 0
LayerCount: 2
Fore
SplineSet
236 149 m 2
 228 91 250 64 318 64 c 0
 359 64 394 75 423 90 c 1
 454 26 l 1
 413 2 355 -12 305 -12 c 0
 187 -12 131 58 145 154 c 2
 163 285 l 1
 91 285 l 1
 101 353 l 1
 173 353 l 1
 187 457 l 1
 67 457 l 1
 77 527 l 1
 197 527 l 1
 214 646 l 1
 307 657 l 1
 289 527 l 1
 470 527 l 1
 449 457 l 1
 279 457 l 1
 264 353 l 1
 473 353 l 1
 463 285 l 1
 255 285 l 1
 236 149 l 2
EndSplineSet
EndChar

StartChar: tcaron
Encoding: 357 357 235
Width: 600
GlyphClass: 2
Flags: MW
HStem: -12 76<321 367> 457 70<114 224 104 234 326 486>
VStem: 104 427<457 759>
AnchorPoint: "Anchor-8" 296 0 basechar 0
AnchorPoint: "Anchor-7" 0 0 basechar 0
AnchorPoint: "Anchor-6" 0 0 basechar 0
LayerCount: 2
Fore
SplineSet
531 759 m 1
 449 575 l 1
 396 583 l 1
 448 769 l 1
 531 759 l 1
491 26 m 1
 450 2 392 -12 342 -12 c 0
 224 -12 168 58 182 154 c 2
 224 457 l 1
 104 457 l 1
 114 527 l 1
 234 527 l 1
 251 646 l 1
 344 657 l 1
 326 527 l 1
 507 527 l 1
 486 457 l 1
 316 457 l 1
 273 149 l 2
 265 91 287 64 355 64 c 0
 396 64 431 75 460 90 c 1
 491 26 l 1
EndSplineSet
EndChar

StartChar: uni0163
Encoding: 355 355 236
Width: 600
GlyphClass: 2
Flags: MW
HStem: -241 60<273 301.5 273 325.5> -99 43 -12 76<351 351> 457 70<114 224 104 234 326 486>
VStem: 179.82 93.18 352 75
AnchorPoint: "Anchor-8" 296 0 basechar 0
AnchorPoint: "Anchor-7" 0 0 basechar 0
AnchorPoint: "Anchor-6" 0 0 basechar 0
LayerCount: 2
Fore
SplineSet
491 26 m 1
 453 3 399 -10 351 -12 c 1
 344 -56 l 1
 409 -62 433 -103 427 -146 c 0
 418 -210 358 -241 293 -241 c 0
 250 -241 213 -230 188 -215 c 1
 220 -166 l 1
 237 -176 263 -181 283 -181 c 0
 320 -181 347 -167 352 -136 c 0
 356 -103 326 -99 272 -99 c 1
 290 -7 l 1
 208 11 170 73 182 154 c 2
 224 457 l 1
 104 457 l 1
 114 527 l 1
 234 527 l 1
 251 646 l 1
 344 657 l 1
 326 527 l 1
 507 527 l 1
 486 457 l 1
 316 457 l 1
 273 149 l 2
 265 91 287 64 355 64 c 0
 396 64 431 75 460 90 c 1
 491 26 l 1
EndSplineSet
EndChar

StartChar: uni021B
Encoding: 539 539 237
Width: 600
GlyphClass: 2
Flags: MW
HStem: -12 76<321 367> 457 70<114 224 104 234 326 486>
VStem: 104 403<457 527> 262 113
AnchorPoint: "Anchor-8" 296 0 basechar 0
AnchorPoint: "Anchor-7" 0 0 basechar 0
AnchorPoint: "Anchor-6" 0 0 basechar 0
LayerCount: 2
Fore
SplineSet
491 26 m 1xe0
 450 2 392 -12 342 -12 c 0
 224 -12 168 58 182 154 c 2
 224 457 l 1
 104 457 l 1
 114 527 l 1
 234 527 l 1
 251 646 l 1
 344 657 l 1
 326 527 l 1
 507 527 l 1
 486 457 l 1
 316 457 l 1
 273 149 l 2
 265 91 287 64 355 64 c 0
 396 64 431 75 460 90 c 1
 491 26 l 1xe0
322 -70 m 0xd0
 356 -70 379 -97 375 -131 c 0
 372 -147 366 -162 353 -186 c 2
 287 -290 l 1
 232 -290 l 1
 280 -171 l 1
 267 -160 259 -142 262 -121 c 0
 266 -91 292 -70 322 -70 c 0xd0
EndSplineSet
EndChar

StartChar: u
Encoding: 117 117 238
Width: 600
GlyphClass: 2
Flags: MW
HStem: -12 72<213 244>
VStem: 78.42 94.58
AnchorPoint: "Anchor-8" 0 0 basechar 0
AnchorPoint: "Anchor-7" 0 0 basechar 0
AnchorPoint: "Anchor-6" 374 527 basechar 0
LayerCount: 2
Fore
SplineSet
173 152 m 2
 164 85 185 60 241 60 c 0
 298 60 359 99 393 143 c 1
 448 527 l 1
 540 527 l 1
 466 0 l 1
 387 0 l 1
 391 68 l 1
 342 15 274 -12 214 -12 c 0
 110 -12 67 49 81 147 c 2
 134 527 l 1
 226 527 l 1
 173 152 l 2
EndSplineSet
EndChar

StartChar: uacute
Encoding: 250 250 239
Width: 600
GlyphClass: 2
Flags: MW
HStem: -12 72<213 244>
VStem: 78.42 94.58 78.42 461.58
AnchorPoint: "Anchor-8" 0 0 basechar 0
AnchorPoint: "Anchor-7" 0 0 basechar 0
AnchorPoint: "Anchor-6" 374 527 basechar 0
LayerCount: 2
Fore
SplineSet
443 791 m 1xa0
 480 714 l 1
 263 622 l 1
 239 672 l 1
 443 791 l 1xa0
173 152 m 2xc0
 164 85 185 60 241 60 c 0
 298 60 359 99 393 143 c 1
 448 527 l 1
 540 527 l 1
 466 0 l 1
 387 0 l 1
 391 68 l 1
 342 15 274 -12 214 -12 c 0
 110 -12 67 49 81 147 c 2
 134 527 l 1
 226 527 l 1
 173 152 l 2xc0
EndSplineSet
EndChar

StartChar: ubreve
Encoding: 365 365 240
Width: 600
GlyphClass: 2
Flags: MW
HStem: -12 72<213 244> 628 69<332.5 380 332.5 399>
VStem: 78.42 94.58 219 61<771 779>
AnchorPoint: "Anchor-8" 0 0 basechar 0
AnchorPoint: "Anchor-7" 0 0 basechar 0
AnchorPoint: "Anchor-6" 374 527 basechar 0
LayerCount: 2
Fore
SplineSet
353 628 m 0
 258 628 218 707 219 771 c 1
 280 779 l 1
 287 729 310 697 355 697 c 0
 405 697 441 733 462 783 c 1
 521 765 l 1
 504 701 445 628 353 628 c 0
173 152 m 2
 164 85 185 60 241 60 c 0
 298 60 359 99 393 143 c 1
 448 527 l 1
 540 527 l 1
 466 0 l 1
 387 0 l 1
 391 68 l 1
 342 15 274 -12 214 -12 c 0
 110 -12 67 49 81 147 c 2
 134 527 l 1
 226 527 l 1
 173 152 l 2
EndSplineSet
EndChar

StartChar: ucircumflex
Encoding: 251 251 241
Width: 600
GlyphClass: 2
Flags: MW
HStem: -12 72<213 244>
VStem: 78.42 94.58 78.42 461.58
AnchorPoint: "Anchor-8" 0 0 basechar 0
AnchorPoint: "Anchor-7" 0 0 basechar 0
AnchorPoint: "Anchor-6" 374 527 basechar 0
LayerCount: 2
Fore
SplineSet
191 671 m 1xa0
 343 792 l 1
 404 792 l 1
 523 671 l 1
 478 627 l 1
 366 718 l 1
 228 627 l 1
 191 671 l 1xa0
173 152 m 2xc0
 164 85 185 60 241 60 c 0
 298 60 359 99 393 143 c 1
 448 527 l 1
 540 527 l 1
 466 0 l 1
 387 0 l 1
 391 68 l 1
 342 15 274 -12 214 -12 c 0
 110 -12 67 49 81 147 c 2
 134 527 l 1
 226 527 l 1
 173 152 l 2xc0
EndSplineSet
EndChar

StartChar: udieresis
Encoding: 252 252 242
Width: 600
GlyphClass: 2
Flags: MW
HStem: -12 72<213 244> 647 113<245.5 268 455 477.5>
VStem: 78.42 94.58 199 114 409 114
AnchorPoint: "Anchor-8" 0 0 basechar 0
AnchorPoint: "Anchor-7" 0 0 basechar 0
AnchorPoint: "Anchor-6" 424 702 basechar 0
LayerCount: 2
Fore
SplineSet
253 647 m 0
 218 647 195 674 199 708 c 0
 204 739 230 760 261 760 c 0
 295 760 318 733 313 698 c 0
 309 668 283 647 253 647 c 0
462 647 m 0
 428 647 405 674 409 708 c 0
 414 739 440 760 470 760 c 0
 505 760 528 733 523 698 c 0
 519 668 493 647 462 647 c 0
173 152 m 2xe0
 164 85 185 60 241 60 c 0
 298 60 359 99 393 143 c 1
 448 527 l 1
 540 527 l 1
 466 0 l 1
 387 0 l 1
 391 68 l 1
 342 15 274 -12 214 -12 c 0
 110 -12 67 49 81 147 c 2
 134 527 l 1
 226 527 l 1
 173 152 l 2xe0
EndSplineSet
EndChar

StartChar: ugrave
Encoding: 249 249 243
Width: 600
GlyphClass: 2
Flags: MW
HStem: -12 72<213 244>
VStem: 78.42 94.58 78.42 461.58
AnchorPoint: "Anchor-8" 0 0 basechar 0
AnchorPoint: "Anchor-7" 0 0 basechar 0
AnchorPoint: "Anchor-6" 374 527 basechar 0
LayerCount: 2
Fore
SplineSet
245 715 m 1xa0
 302 792 l 1
 474 672 l 1
 439 622 l 1
 245 715 l 1xa0
173 152 m 2xc0
 164 85 185 60 241 60 c 0
 298 60 359 99 393 143 c 1
 448 527 l 1
 540 527 l 1
 466 0 l 1
 387 0 l 1
 391 68 l 1
 342 15 274 -12 214 -12 c 0
 110 -12 67 49 81 147 c 2
 134 527 l 1
 226 527 l 1
 173 152 l 2xc0
EndSplineSet
EndChar

StartChar: uhungarumlaut
Encoding: 369 369 244
Width: 600
GlyphClass: 2
Flags: MW
HStem: -12 72<213 244>
VStem: 78.42 94.58 78.42 501.58
AnchorPoint: "Anchor-8" 0 0 basechar 0
AnchorPoint: "Anchor-7" 0 0 basechar 0
AnchorPoint: "Anchor-6" 374 527 basechar 0
LayerCount: 2
Fore
SplineSet
335 838 m 1xa0
 409 801 l 1
 286 635 l 1
 231 662 l 1
 335 838 l 1xa0
508 838 m 1
 580 798 l 1
 448 633 l 1
 395 662 l 1
 508 838 l 1
173 152 m 2xc0
 164 85 185 60 241 60 c 0
 298 60 359 99 393 143 c 1
 448 527 l 1
 540 527 l 1
 466 0 l 1
 387 0 l 1
 391 68 l 1
 342 15 274 -12 214 -12 c 0
 110 -12 67 49 81 147 c 2
 134 527 l 1
 226 527 l 1
 173 152 l 2xc0
EndSplineSet
EndChar

StartChar: umacron
Encoding: 363 363 245
Width: 600
GlyphClass: 2
Flags: MW
HStem: -12 72<213 244> 674 69<221 503 230 494>
VStem: 78.42 94.58 78.42 461.58
AnchorPoint: "Anchor-8" 0 0 basechar 0
AnchorPoint: "Anchor-7" 0 0 basechar 0
AnchorPoint: "Anchor-6" 374 527 basechar 0
LayerCount: 2
Fore
SplineSet
221 674 m 1xd0
 230 743 l 1
 503 743 l 1
 494 674 l 1
 221 674 l 1xd0
173 152 m 2xe0
 164 85 185 60 241 60 c 0
 298 60 359 99 393 143 c 1
 448 527 l 1
 540 527 l 1
 466 0 l 1
 387 0 l 1
 391 68 l 1
 342 15 274 -12 214 -12 c 0
 110 -12 67 49 81 147 c 2
 134 527 l 1
 226 527 l 1
 173 152 l 2xe0
EndSplineSet
EndChar

StartChar: uogonek
Encoding: 371 371 246
Width: 600
GlyphClass: 2
Flags: MW
HStem: -232 70<352.5 371> -12 72<213 244>
VStem: 78.42 94.58 245 81
AnchorPoint: "Anchor-8" 0 0 basechar 0
AnchorPoint: "Anchor-7" 0 0 basechar 0
AnchorPoint: "Anchor-6" 374 527 basechar 0
LayerCount: 2
Fore
SplineSet
468 -1 m 1
 360 -45 332 -81 326 -119 c 0
 322 -147 333 -162 372 -162 c 0
 395 -162 412 -159 436 -154 c 1
 421 -226 l 1
 401 -230 383 -232 359 -232 c 0
 280 -232 237 -186 245 -126 c 0
 253 -67 298 -23 388 12 c 1
 391 68 l 1
 342 15 274 -12 214 -12 c 0
 110 -12 67 49 81 147 c 2
 134 527 l 1
 226 527 l 1
 173 152 l 2
 164 85 185 60 241 60 c 0
 298 60 359 99 393 143 c 1
 448 527 l 1
 540 527 l 1
 466 3 l 1
 468 -1 l 1
EndSplineSet
EndChar

StartChar: uring
Encoding: 367 367 247
Width: 600
GlyphClass: 2
Flags: MW
HStem: -12 72<213 244> 617 49<338 370.5 338 386.5> 778 50<359 391.5>
VStem: 78.42 94.58 251 60 418 60
AnchorPoint: "Anchor-8" 0 0 basechar 0
AnchorPoint: "Anchor-7" 0 0 basechar 0
AnchorPoint: "Anchor-6" 374 527 basechar 0
LayerCount: 2
Fore
SplineSet
375 828 m 0
 444 828 486 778 478 717 c 0
 470 661 419 617 354 617 c 0
 285 617 243 667 251 727 c 0
 259 784 310 828 375 828 c 0
376 778 m 0
 342 778 316 754 311 717 c 0
 306 684 323 666 353 666 c 0
 388 666 413 690 418 727 c 0
 423 760 407 778 376 778 c 0
173 152 m 2
 164 85 185 60 241 60 c 0
 298 60 359 99 393 143 c 1
 448 527 l 1
 540 527 l 1
 466 0 l 1
 387 0 l 1
 391 68 l 1
 342 15 274 -12 214 -12 c 0
 110 -12 67 49 81 147 c 2
 134 527 l 1
 226 527 l 1
 173 152 l 2
EndSplineSet
EndChar

StartChar: utilde
Encoding: 361 361 248
Width: 600
GlyphClass: 2
Flags: MW
HStem: -12 72<213 244> 650 70<402.5 429 402.5 437.5> 698 70<295 321.5>
VStem: 78.42 94.58 78.42 461.58
AnchorPoint: "Anchor-8" 0 0 basechar 0
AnchorPoint: "Anchor-7" 0 0 basechar 0
AnchorPoint: "Anchor-6" 374 527 basechar 0
LayerCount: 2
Fore
SplineSet
410 650 m 0xc8
 350 650 336 698 307 698 c 0
 283 698 267 680 247 652 c 1
 192 682 l 1
 218 729 259 768 314 768 c 0xa8
 376 768 388 720 417 720 c 0
 441 720 458 738 478 766 c 1
 533 737 l 1
 506 690 465 650 410 650 c 0xc8
173 152 m 2xb0
 164 85 185 60 241 60 c 0
 298 60 359 99 393 143 c 1
 448 527 l 1
 540 527 l 1
 466 0 l 1
 387 0 l 1
 391 68 l 1
 342 15 274 -12 214 -12 c 0
 110 -12 67 49 81 147 c 2
 134 527 l 1
 226 527 l 1
 173 152 l 2xb0
EndSplineSet
EndChar

StartChar: v
Encoding: 118 118 249
Width: 600
GlyphClass: 2
Flags: MW
HStem: 0 81<275 275 275 317 210 275>
VStem: 95 486<527 527>
LayerCount: 2
Fore
SplineSet
317 0 m 1
 210 0 l 1
 95 527 l 1
 191 527 l 1
 275 81 l 1
 484 527 l 1
 581 527 l 1
 317 0 l 1
EndSplineSet
EndChar

StartChar: w
Encoding: 119 119 250
Width: 600
GlyphClass: 2
Flags: MW
HStem: 0 70<145 149 145 195> 373 87<315 319 315 315>
VStem: 63 82 325.5 67
AnchorPoint: "Anchor-8" 0 0 basechar 0
AnchorPoint: "Anchor-7" 0 0 basechar 0
AnchorPoint: "Anchor-6" 374 527 basechar 0
LayerCount: 2
Fore
SplineSet
332 0 m 1
 319 373 l 1
 315 373 l 1
 195 0 l 1
 73 0 l 1
 53 527 l 1
 145 527 l 1
 145 70 l 1
 149 70 l 1
 281 460 l 1
 384 460 l 1
 401 72 l 1
 405 72 l 1
 533 527 l 1
 621 527 l 1
 457 0 l 1
 332 0 l 1
EndSplineSet
EndChar

StartChar: wacute
Encoding: 7811 7811 251
Width: 600
GlyphClass: 2
Flags: MW
HStem: 0 70<145 149 145 195> 373 87<315 319 315 315>
VStem: 63 82 325.5 67
AnchorPoint: "Anchor-8" 0 0 basechar 0
AnchorPoint: "Anchor-7" 0 0 basechar 0
AnchorPoint: "Anchor-6" 374 527 basechar 0
LayerCount: 2
Fore
SplineSet
443 791 m 1
 480 714 l 1
 263 622 l 1
 239 672 l 1
 443 791 l 1
332 0 m 1
 319 373 l 1
 315 373 l 1
 195 0 l 1
 73 0 l 1
 53 527 l 1
 145 527 l 1
 145 70 l 1
 149 70 l 1
 281 460 l 1
 384 460 l 1
 401 72 l 1
 405 72 l 1
 533 527 l 1
 621 527 l 1
 457 0 l 1
 332 0 l 1
EndSplineSet
EndChar

StartChar: wcircumflex
Encoding: 373 373 252
Width: 600
GlyphClass: 2
Flags: MW
HStem: 0 70<145 149 145 195> 373 87<315 319 315 315>
VStem: 63 82 325.5 67
AnchorPoint: "Anchor-8" 0 0 basechar 0
AnchorPoint: "Anchor-7" 0 0 basechar 0
AnchorPoint: "Anchor-6" 374 527 basechar 0
LayerCount: 2
Fore
SplineSet
191 671 m 1
 343 792 l 1
 404 792 l 1
 523 671 l 1
 478 627 l 1
 366 718 l 1
 228 627 l 1
 191 671 l 1
332 0 m 1
 319 373 l 1
 315 373 l 1
 195 0 l 1
 73 0 l 1
 53 527 l 1
 145 527 l 1
 145 70 l 1
 149 70 l 1
 281 460 l 1
 384 460 l 1
 401 72 l 1
 405 72 l 1
 533 527 l 1
 621 527 l 1
 457 0 l 1
 332 0 l 1
EndSplineSet
EndChar

StartChar: wdieresis
Encoding: 7813 7813 253
Width: 600
GlyphClass: 2
Flags: MW
HStem: 0 70<145 149 145 195> 373 87<315 319 315 315> 647 113<245.5 268 455 477.5>
VStem: 63 82 199 114 325.5 67 409 114
AnchorPoint: "Anchor-8" 0 0 basechar 0
AnchorPoint: "Anchor-7" 0 0 basechar 0
AnchorPoint: "Anchor-6" 424 702 basechar 0
LayerCount: 2
Fore
SplineSet
253 647 m 0
 218 647 195 674 199 708 c 0
 204 739 230 760 261 760 c 0
 295 760 318 733 313 698 c 0
 309 668 283 647 253 647 c 0
462 647 m 0
 428 647 405 674 409 708 c 0
 414 739 440 760 470 760 c 0
 505 760 528 733 523 698 c 0
 519 668 493 647 462 647 c 0
332 0 m 1xf4
 319 373 l 1
 315 373 l 1
 195 0 l 1
 73 0 l 1
 53 527 l 1
 145 527 l 1
 145 70 l 1
 149 70 l 1
 281 460 l 1
 384 460 l 1
 401 72 l 1
 405 72 l 1
 533 527 l 1
 621 527 l 1
 457 0 l 1
 332 0 l 1xf4
EndSplineSet
EndChar

StartChar: wgrave
Encoding: 7809 7809 254
Width: 600
GlyphClass: 2
Flags: MW
HStem: 0 70<145 149 145 195> 373 87<315 319 315 315>
VStem: 63 82 325.5 67
AnchorPoint: "Anchor-8" 0 0 basechar 0
AnchorPoint: "Anchor-7" 0 0 basechar 0
AnchorPoint: "Anchor-6" 374 527 basechar 0
LayerCount: 2
Fore
SplineSet
245 715 m 1
 302 792 l 1
 474 672 l 1
 439 622 l 1
 245 715 l 1
332 0 m 1
 319 373 l 1
 315 373 l 1
 195 0 l 1
 73 0 l 1
 53 527 l 1
 145 527 l 1
 145 70 l 1
 149 70 l 1
 281 460 l 1
 384 460 l 1
 401 72 l 1
 405 72 l 1
 533 527 l 1
 621 527 l 1
 457 0 l 1
 332 0 l 1
EndSplineSet
EndChar

StartChar: x
Encoding: 120 120 255
Width: 600
GlyphClass: 2
Flags: MW
HStem: 0 527<14 219 113 120 113 401 456 510>
VStem: 14 548<0 527>
LayerCount: 2
Fore
SplineSet
14 0 m 1
 247 278 l 1
 113 527 l 1
 219 527 l 1
 309 334 l 1
 456 527 l 1
 562 527 l 1
 358 282 l 1
 510 0 l 1
 401 0 l 1
 293 223 l 1
 120 0 l 1
 14 0 l 1
EndSplineSet
EndChar

StartChar: y
Encoding: 121 121 256
Width: 600
GlyphClass: 2
Flags: MW
HStem: -213 740<51 192>
VStem: 44 536
AnchorPoint: "Anchor-8" 0 0 basechar 0
AnchorPoint: "Anchor-7" 0 0 basechar 0
AnchorPoint: "Anchor-6" 374 527 basechar 0
LayerCount: 2
Fore
SplineSet
321 -5 m 2
 268 -116 195 -199 51 -213 c 1
 44 -141 l 1
 155 -123 194 -78 233 2 c 1
 204 0 l 1
 96 527 l 1
 192 527 l 1
 274 68 l 1
 483 527 l 1
 580 527 l 1
 321 -5 l 2
EndSplineSet
EndChar

StartChar: yacute
Encoding: 253 253 257
Width: 600
GlyphClass: 2
Flags: MW
HStem: -213 1004<51 443>
VStem: 44 536
AnchorPoint: "Anchor-8" 0 0 basechar 0
AnchorPoint: "Anchor-7" 0 0 basechar 0
AnchorPoint: "Anchor-6" 374 527 basechar 0
LayerCount: 2
Fore
SplineSet
443 791 m 1
 480 714 l 1
 263 622 l 1
 239 672 l 1
 443 791 l 1
321 -5 m 2
 268 -116 195 -199 51 -213 c 1
 44 -141 l 1
 155 -123 194 -78 233 2 c 1
 204 0 l 1
 96 527 l 1
 192 527 l 1
 274 68 l 1
 483 527 l 1
 580 527 l 1
 321 -5 l 2
EndSplineSet
EndChar

StartChar: ycircumflex
Encoding: 375 375 258
Width: 600
GlyphClass: 2
Flags: MW
HStem: -213 1005<51 404>
VStem: 44 536
AnchorPoint: "Anchor-8" 0 0 basechar 0
AnchorPoint: "Anchor-7" 0 0 basechar 0
AnchorPoint: "Anchor-6" 374 527 basechar 0
LayerCount: 2
Fore
SplineSet
191 671 m 1
 343 792 l 1
 404 792 l 1
 523 671 l 1
 478 627 l 1
 366 718 l 1
 228 627 l 1
 191 671 l 1
321 -5 m 2
 268 -116 195 -199 51 -213 c 1
 44 -141 l 1
 155 -123 194 -78 233 2 c 1
 204 0 l 1
 96 527 l 1
 192 527 l 1
 274 68 l 1
 483 527 l 1
 580 527 l 1
 321 -5 l 2
EndSplineSet
EndChar

StartChar: ydieresis
Encoding: 255 255 259
Width: 600
GlyphClass: 2
Flags: MW
HStem: 647 113<245.5 268 455 477.5>
VStem: 199 114 409 114
AnchorPoint: "Anchor-8" 0 0 basechar 0
AnchorPoint: "Anchor-7" 0 0 basechar 0
AnchorPoint: "Anchor-6" 424 702 basechar 0
LayerCount: 2
Fore
SplineSet
253 647 m 0
 218 647 195 674 199 708 c 0
 204 739 230 760 261 760 c 0
 295 760 318 733 313 698 c 0
 309 668 283 647 253 647 c 0
462 647 m 0
 428 647 405 674 409 708 c 0
 414 739 440 760 470 760 c 0
 505 760 528 733 523 698 c 0
 519 668 493 647 462 647 c 0
321 -5 m 2
 268 -116 195 -199 51 -213 c 1
 44 -141 l 1
 155 -123 194 -78 233 2 c 1
 204 0 l 1
 96 527 l 1
 192 527 l 1
 274 68 l 1
 483 527 l 1
 580 527 l 1
 321 -5 l 2
EndSplineSet
EndChar

StartChar: ygrave
Encoding: 7923 7923 260
Width: 600
GlyphClass: 2
Flags: MW
HStem: -213 1005<51 302>
VStem: 44 536
AnchorPoint: "Anchor-8" 0 0 basechar 0
AnchorPoint: "Anchor-7" 0 0 basechar 0
AnchorPoint: "Anchor-6" 374 527 basechar 0
LayerCount: 2
Fore
SplineSet
245 715 m 1
 302 792 l 1
 474 672 l 1
 439 622 l 1
 245 715 l 1
321 -5 m 2
 268 -116 195 -199 51 -213 c 1
 44 -141 l 1
 155 -123 194 -78 233 2 c 1
 204 0 l 1
 96 527 l 1
 192 527 l 1
 274 68 l 1
 483 527 l 1
 580 527 l 1
 321 -5 l 2
EndSplineSet
EndChar

StartChar: z
Encoding: 122 122 261
Width: 600
GlyphClass: 2
Flags: MW
HStem: 0 77<186 453> 449 78<159 413 148 535>
VStem: 62 473
AnchorPoint: "Anchor-8" 0 0 basechar 0
AnchorPoint: "Anchor-7" 0 0 basechar 0
AnchorPoint: "Anchor-6" 384 527 basechar 0
LayerCount: 2
Fore
SplineSet
475 77 m 1
 453 0 l 1
 62 0 l 1
 71 69 l 1
 413 449 l 1
 148 449 l 1
 159 527 l 1
 535 527 l 1
 526 457 l 1
 186 77 l 1
 475 77 l 1
EndSplineSet
EndChar

StartChar: zacute
Encoding: 378 378 262
Width: 600
GlyphClass: 2
Flags: MW
HStem: 0 77<186 453> 449 78<159 413 148 535>
VStem: 62 473
AnchorPoint: "Anchor-8" 0 0 basechar 0
AnchorPoint: "Anchor-7" 0 0 basechar 0
AnchorPoint: "Anchor-6" 384 527 basechar 0
LayerCount: 2
Fore
SplineSet
453 791 m 1
 490 714 l 1
 273 622 l 1
 249 672 l 1
 453 791 l 1
475 77 m 1
 453 0 l 1
 62 0 l 1
 71 69 l 1
 413 449 l 1
 148 449 l 1
 159 527 l 1
 535 527 l 1
 526 457 l 1
 186 77 l 1
 475 77 l 1
EndSplineSet
EndChar

StartChar: zcaron
Encoding: 382 382 263
Width: 600
GlyphClass: 2
Flags: MW
HStem: 0 77<186 453> 449 78<159 413 148 535>
VStem: 62 482
AnchorPoint: "Anchor-8" 0 0 basechar 0
AnchorPoint: "Anchor-7" 0 0 basechar 0
AnchorPoint: "Anchor-6" 384 527 basechar 0
LayerCount: 2
Fore
SplineSet
544 748 m 1
 393 627 l 1
 332 627 l 1
 212 748 l 1
 259 792 l 1
 371 701 l 1
 509 792 l 1
 544 748 l 1
475 77 m 1
 453 0 l 1
 62 0 l 1
 71 69 l 1
 413 449 l 1
 148 449 l 1
 159 527 l 1
 535 527 l 1
 526 457 l 1
 186 77 l 1
 475 77 l 1
EndSplineSet
EndChar

StartChar: zdotaccent
Encoding: 380 380 264
Width: 600
GlyphClass: 2
Flags: MW
HStem: 0 77<186 453> 449 78<159 413 148 535> 652 125<359 386.5>
VStem: 309 128
AnchorPoint: "Anchor-8" 0 0 basechar 0
AnchorPoint: "Anchor-7" 0 0 basechar 0
AnchorPoint: "Anchor-6" 384 527 basechar 0
LayerCount: 2
Fore
SplineSet
377 777 m 0
 418 777 442 747 437 710 c 0
 432 676 405 652 368 652 c 0
 328 652 304 682 309 720 c 0
 314 753 341 777 377 777 c 0
475 77 m 1
 453 0 l 1
 62 0 l 1
 71 69 l 1
 413 449 l 1
 148 449 l 1
 159 527 l 1
 535 527 l 1
 526 457 l 1
 186 77 l 1
 475 77 l 1
EndSplineSet
EndChar

StartChar: cacute.loclPLK
Encoding: 1114119 -1 265
Width: 600
GlyphClass: 2
Flags: MW
HStem: -12 78<265 335 265 335> 463 76<326.5 394>
VStem: 85.03 98.17
AnchorPoint: "Anchor-8" 265 0 basechar 0
AnchorPoint: "Anchor-7" 0 0 basechar 0
AnchorPoint: "Anchor-6" 416 518 basechar 0
LayerCount: 2
Fore
SplineSet
531 721 m 1
 379 568 l 1
 337 596 l 1
 464 768 l 1
 531 721 l 1
308 66 m 0
 362 66 409 87 452 117 c 1
 491 50 l 1
 440 11 366 -12 304 -12 c 0
 143 -12 66 99 89 266 c 0
 111 423 218 539 375 539 c 0
 446 539 501 516 547 475 c 1
 497 417 l 1
 458 449 416 463 372 463 c 0
 281 463 206 395 187 256 c 0
 168 120 222 66 308 66 c 0
EndSplineSet
EndChar

StartChar: nacute.loclPLK
Encoding: 1114120 -1 266
Width: 600
GlyphClass: 2
Flags: MW
HStem: 467 72<361 395.5>
VStem: 427.47 95.26
AnchorPoint: "Anchor-8" 227 0 basechar 0
AnchorPoint: "Anchor-7" 0 0 basechar 0
AnchorPoint: "Anchor-6" 374 527 basechar 0
LayerCount: 2
Fore
SplineSet
489 730 m 1
 337 577 l 1
 295 605 l 1
 422 777 l 1
 489 730 l 1
134 527 m 1
 213 527 l 1
 209 457 l 1
 260 511 331 539 391 539 c 0
 495 539 534 478 520 380 c 2
 467 0 l 1
 375 0 l 1
 421 326 l 2
 435 429 432 467 359 467 c 0
 298 467 240 421 206 380 c 1
 152 0 l 1
 60 0 l 1
 134 527 l 1
EndSplineSet
EndChar

StartChar: oacute.loclPLK
Encoding: 1114121 -1 267
Width: 600
GlyphClass: 2
Flags: MW
HStem: -12 74<225 313 225 338.5> 465 74<288 375.5>
VStem: 66.2 96.15 437.63 96.19
AnchorPoint: "Anchor-8" 0 0 basechar 0
AnchorPoint: "Anchor-7" 0 0 basechar 0
AnchorPoint: "Anchor-6" 374 527 basechar 0
LayerCount: 2
Fore
SplineSet
489 730 m 1
 337 577 l 1
 295 605 l 1
 422 777 l 1
 489 730 l 1
336 539 m 0
 488 539 553 428 529 259 c 0
 507 98 412 -12 265 -12 c 0
 113 -12 47 99 71 268 c 0
 93 429 188 539 336 539 c 0
333 465 m 0
 243 465 187 398 167 258 c 0
 148 123 182 62 268 62 c 0
 358 62 413 129 433 269 c 0
 452 404 418 465 333 465 c 0
EndSplineSet
EndChar

StartChar: sacute.loclPLK
Encoding: 1114122 -1 268
Width: 600
GlyphClass: 2
Flags: MW
HStem: -12 74<218 288> 466 73<297 370>
VStem: 44 483<62 479>
AnchorPoint: "Anchor-8" 223 0 basechar 0
AnchorPoint: "Anchor-7" 0 0 basechar 0
AnchorPoint: "Anchor-6" 382 527 basechar 0
LayerCount: 2
Fore
SplineSet
497 730 m 1
 345 577 l 1
 303 605 l 1
 430 777 l 1
 497 730 l 1
248 62 m 0
 328 62 382 96 390 147 c 0
 396 191 385 213 280 241 c 0
 174 268 107 304 120 398 c 0
 132 485 219 539 339 539 c 0
 427 539 486 512 527 479 c 1
 482 420 l 1
 446 447 402 466 338 466 c 0
 256 466 220 436 214 395 c 0
 208 352 236 338 336 309 c 0
 437 281 502 243 488 142 c 0
 472 31 358 -12 245 -12 c 0
 147 -12 85 22 44 62 c 1
 99 117 l 1
 136 83 188 62 248 62 c 0
EndSplineSet
EndChar

StartChar: zacute.loclPLK
Encoding: 1114123 -1 269
Width: 600
GlyphClass: 2
Flags: MW
HStem: 0 77<186 453> 449 78<159 413 148 535>
VStem: 62 473
AnchorPoint: "Anchor-8" 0 0 basechar 0
AnchorPoint: "Anchor-7" 0 0 basechar 0
AnchorPoint: "Anchor-6" 384 527 basechar 0
LayerCount: 2
Fore
SplineSet
499 730 m 1
 347 577 l 1
 305 605 l 1
 432 777 l 1
 499 730 l 1
475 77 m 1
 453 0 l 1
 62 0 l 1
 71 69 l 1
 413 449 l 1
 148 449 l 1
 159 527 l 1
 535 527 l 1
 526 457 l 1
 186 77 l 1
 475 77 l 1
EndSplineSet
EndChar

StartChar: fi
Encoding: 64257 64257 270
Width: 600
GlyphClass: 3
Flags: MW
HStem: 0 71<287 377 469 550 277 377> 456 71<56 135 46 145 237 431> 676 74<334 391>
VStem: 46 514<71 456> 149.5 91.5
LayerCount: 2
Fore
SplineSet
277 0 m 1xf0
 287 71 l 1
 377 71 l 1
 431 456 l 1
 227 456 l 1
 163 0 l 1
 71 0 l 1
 135 456 l 1
 46 456 l 1
 56 527 l 1
 145 527 l 1
 154 592 l 2
 168 690 258 750 369 750 c 0
 430 750 475 738 515 720 c 1
 480 655 l 1
 448 670 410 676 372 676 c 0
 296 676 254 645 245 587 c 2
 237 527 l 1xe8
 533 527 l 1
 469 71 l 1
 560 71 l 1
 550 0 l 1
 277 0 l 1xf0
EndSplineSet
EndChar

StartChar: fl
Encoding: 64258 64258 271
Width: 600
GlyphClass: 3
Flags: MW
HStem: -12 76<479.5 495.5> 456 71<50 129 40 139 231 332> 676 74<328 378.5>
VStem: 143.5 91.5 361.99 94.01
LayerCount: 2
Fore
SplineSet
568 8 m 1
 541 -4 515 -12 476 -12 c 0
 401 -12 351 31 364 123 c 2
 443 667 l 1
 418 674 391 676 366 676 c 0
 290 676 248 645 239 587 c 2
 231 527 l 1
 353 527 l 1
 332 456 l 1
 221 456 l 1
 157 0 l 1
 65 0 l 1
 129 456 l 1
 40 456 l 1
 50 527 l 1
 139 527 l 1
 148 592 l 2
 162 690 252 750 363 750 c 0
 403 750 432 742 462 731 c 1
 544 748 l 1
 456 121 l 2
 450 75 465 64 494 64 c 0
 515 64 531 69 549 76 c 1
 568 8 l 1
EndSplineSet
EndChar

StartChar: ordfeminine
Encoding: 170 170 272
Width: 600
GlyphClass: 2
Flags: MW
HStem: 0 79<79 463 68 474> 307 63<259 286.5> 519 59<312.5 419 359 411> 682 68<332.5 371>
VStem: 68 440.94
LayerCount: 2
Fore
SplineSet
354 750 m 0
 471 750 520 694 507 606 c 2
 480 412 l 2
 476 382 483 371 505 364 c 1
 480 307 l 1
 438 312 411 331 402 366 c 1
 363 326 311 307 262 307 c 0
 169 307 114 363 126 445 c 0
 138 532 223 578 359 578 c 2
 419 578 l 1
 424 609 l 2
 431 664 401 682 341 682 c 0
 311 682 265 674 215 657 c 1
 195 721 l 1
 257 743 311 750 354 750 c 0
358 519 m 2
 267 519 223 489 216 439 c 0
 209 392 234 370 284 370 c 0
 325 370 367 393 397 427 c 1
 411 519 l 1
 358 519 l 2
463 0 m 1
 68 0 l 1
 79 79 l 1
 474 79 l 1
 463 0 l 1
EndSplineSet
EndChar

StartChar: ordmasculine
Encoding: 186 186 273
Width: 600
GlyphClass: 2
Flags: MW
HStem: 0 79<77 461 66 472> 307 68<277.5 348.5 277.5 371.5> 682 68<326.5 397.5>
VStem: 128.93 88.84 455.97 89.08
LayerCount: 2
Fore
SplineSet
364 750 m 0
 492 750 561 660 542 524 c 0
 523 395 433 307 310 307 c 0
 182 307 113 398 132 534 c 0
 150 662 241 750 364 750 c 0
363 682 m 0
 290 682 236 631 221 524 c 0
 206 420 243 375 312 375 c 0
 385 375 438 426 453 534 c 0
 467 637 432 682 363 682 c 0
461 0 m 1
 66 0 l 1
 77 79 l 1
 472 79 l 1
 461 0 l 1
EndSplineSet
EndChar

StartChar: nsuperior
Encoding: 8319 8319 274
Width: 600
GlyphClass: 2
Flags: MW
HStem: 663 60<380 393>
VStem: 407.9 77.1
AnchorPoint: "Anchor-8" 227 0 basechar 0
AnchorPoint: "Anchor-7" 0 0 basechar 0
AnchorPoint: "Anchor-6" 373 518 basechar 0
LayerCount: 2
Fore
SplineSet
395 723 m 0
 467 723 494 682 485 617 c 2
 451 378 l 1
 375 378 l 1
 404 586 l 2
 412 643 411 663 375 663 c 0
 345 663 313 638 292 615 c 1
 258 378 l 1
 182 378 l 1
 230 716 l 1
 298 716 l 1
 295 688 l 1
 325 711 365 723 395 723 c 0
EndSplineSet
EndChar

StartChar: uni0410
Encoding: 1040 1040 275
Width: 600
GlyphClass: 2
Flags: MW
HStem: 173 77<153 406 187 406 187 418> 611 78<348 348>
VStem: -21 566<0 0>
AnchorPoint: "Anchor-2" 0 0 basechar 0
AnchorPoint: "Anchor-1" 316 689 basechar 0
AnchorPoint: "Anchor-0" 420 689 basechar 0
LayerCount: 2
Fore
SplineSet
153 173 m 1
 76 0 l 1
 -21 0 l 1
 299 689 l 1
 419 689 l 1
 545 0 l 1
 447 0 l 1
 418 173 l 1
 153 173 l 1
406 250 m 1
 348 611 l 1
 187 250 l 1
 406 250 l 1
EndSplineSet
EndChar

StartChar: uni0411
Encoding: 1041 1041 276
Width: 600
GlyphClass: 2
Flags: MW
HStem: 0 76<165 243> 349 74<203 296 213 296 296 300> 611 78<240 526 240 240>
VStem: 59 487
LayerCount: 2
Fore
SplineSet
526 611 m 1
 240 611 l 1
 213 423 l 1
 296 423 l 2
 463 423 558 358 538 211 c 0
 516 56 399 0 243 0 c 2
 59 0 l 1
 156 689 l 1
 546 689 l 1
 526 611 l 1
203 349 m 1
 165 76 l 1
 258 76 l 2
 351 76 424 106 440 220 c 0
 453 316 394 349 300 349 c 2
 203 349 l 1
EndSplineSet
EndChar

StartChar: uni0412
Encoding: 1042 1042 277
Width: 600
GlyphClass: 2
Flags: MW
HStem: 0 77<161 247> 322 76<206 309 206 309 195 309> 614 75<236 325 325 335 236 236>
VStem: 55 494.97
LayerCount: 2
Fore
SplineSet
533 192 m 0
 512 43 376 0 247 0 c 2
 55 0 l 1
 152 689 l 1
 325 689 l 2
 448 689 567 647 548 510 c 0
 536 424 469 379 399 364 c 1
 471 352 550 310 533 192 c 0
451 514 m 0
 462 588 417 614 335 614 c 2
 236 614 l 1
 206 398 l 1
 309 398 l 2
 389 398 440 434 451 514 c 0
434 200 m 0
 448 299 388 322 309 322 c 2
 195 322 l 1
 161 77 l 1
 267 77 l 2
 334 77 420 99 434 200 c 0
EndSplineSet
EndChar

StartChar: uni0413
Encoding: 1043 1043 278
Width: 600
GlyphClass: 2
Flags: MW
HStem: 607 82<274 584 274 274>
VStem: 94 512
AnchorPoint: "Anchor-2" 0 0 basechar 0
AnchorPoint: "Anchor-1" 0 0 basechar 0
AnchorPoint: "Anchor-0" 467 689 basechar 0
LayerCount: 2
Fore
SplineSet
584 607 m 1
 274 607 l 1
 189 0 l 1
 94 0 l 1
 191 689 l 1
 606 689 l 1
 584 607 l 1
EndSplineSet
EndChar

StartChar: uni0403
Encoding: 1027 1027 279
Width: 600
GlyphClass: 2
Flags: MW
HStem: 607 82<274 584 274 274>
VStem: 94 512
AnchorPoint: "Anchor-2" 0 0 basechar 0
AnchorPoint: "Anchor-1" 0 0 basechar 0
AnchorPoint: "Anchor-0" 467 689 basechar 0
LayerCount: 2
Fore
SplineSet
548 834 m 1
 323 755 l 1
 305 804 l 1
 519 911 l 1
 548 834 l 1
584 607 m 1
 274 607 l 1
 189 0 l 1
 94 0 l 1
 191 689 l 1
 606 689 l 1
 584 607 l 1
EndSplineSet
EndChar

StartChar: uni0490
Encoding: 1168 1168 280
Width: 600
GlyphClass: 2
Flags: MW
HStem: 607 82<237 513 154 547 237 237> 687 149
VStem: 57 569
AnchorPoint: "Anchor-2" 0 0 basechar 0
AnchorPoint: "Anchor-1" 0 0 basechar 0
AnchorPoint: "Anchor-0" 430 689 basechar 0
LayerCount: 2
Fore
SplineSet
606 689 m 1x60
 568 685 l 1x60
 547 607 l 1
 237 607 l 1
 152 0 l 1
 57 0 l 1
 154 689 l 1
 513 689 l 1xa0
 534 836 l 1
 626 836 l 1
 606 689 l 1x60
EndSplineSet
EndChar

StartChar: uni0414
Encoding: 1044 1044 281
Width: 600
GlyphClass: 2
Flags: MW
HStem: 0 77 611 78<297 469 297 297>
VStem: -12 587
LayerCount: 2
Fore
SplineSet
490 78 m 1
 503 78 l 1
 471 -150 l 1
 396 -150 l 1
 402 0 l 1
 89 0 l 1
 95 -150 l 1
 20 -150 l 1
 -12 78 l 1
 15 78 l 1
 14 80 l 1
 76 133 95 204 171 492 c 2
 225 689 l 1
 575 689 l 1
 490 78 l 1
394 78 m 1
 469 611 l 1
 297 611 l 1
 265 482 l 2
 195 210 174 131 106 76 c 1
 394 78 l 1
EndSplineSet
EndChar

StartChar: uni0415
Encoding: 1045 1045 282
Width: 600
GlyphClass: 2
Flags: MW
HStem: 0 75<191 491> 312 76<234 478 224 488> 613 76<266 558 266 266>
VStem: 85 495
AnchorPoint: "Anchor-2" 251 0 basechar 0
AnchorPoint: "Anchor-1" 232 689 basechar 0
AnchorPoint: "Anchor-0" 441 689 basechar 0
LayerCount: 2
Fore
SplineSet
234 388 m 1
 488 388 l 1
 478 312 l 1
 224 312 l 1
 191 75 l 1
 502 75 l 1
 491 0 l 1
 85 0 l 1
 182 689 l 1
 580 689 l 1
 558 613 l 1
 266 613 l 1
 234 388 l 1
EndSplineSet
EndChar

StartChar: uni0400
Encoding: 1024 1024 283
Width: 600
GlyphClass: 2
Flags: MW
HStem: 0 75<191 491> 312 76<234 478 224 488> 613 76<266 558 266 266>
VStem: 85 495
AnchorPoint: "Anchor-2" 251 0 basechar 0
AnchorPoint: "Anchor-1" 232 689 basechar 0
AnchorPoint: "Anchor-0" 441 689 basechar 0
LayerCount: 2
Fore
SplineSet
515 804 m 1
 482 755 l 1
 283 837 l 1
 341 914 l 1
 515 804 l 1
234 388 m 1
 488 388 l 1
 478 312 l 1
 224 312 l 1
 191 75 l 1
 502 75 l 1
 491 0 l 1
 85 0 l 1
 182 689 l 1
 580 689 l 1
 558 613 l 1
 266 613 l 1
 234 388 l 1
EndSplineSet
EndChar

StartChar: uni0401
Encoding: 1025 1025 284
Width: 600
GlyphClass: 2
Flags: MW
HStem: 0 75<191 491> 312 76<234 478 224 488> 613 76<266 558 266 266> 767 113<246.5 269 456 478.5>
VStem: 200 114 410 114
AnchorPoint: "Anchor-2" 251 0 basechar 0
AnchorPoint: "Anchor-1" 232 689 basechar 0
AnchorPoint: "Anchor-0" 425 822 basechar 0
LayerCount: 2
Fore
SplineSet
254 767 m 0
 219 767 196 794 200 828 c 0
 205 859 231 880 262 880 c 0
 296 880 319 853 314 818 c 0
 310 788 284 767 254 767 c 0
463 767 m 0
 429 767 406 794 410 828 c 0
 415 859 441 880 471 880 c 0
 506 880 529 853 524 818 c 0
 520 788 494 767 463 767 c 0
234 388 m 1
 488 388 l 1
 478 312 l 1
 224 312 l 1
 191 75 l 1
 502 75 l 1
 491 0 l 1
 85 0 l 1
 182 689 l 1
 580 689 l 1
 558 613 l 1
 266 613 l 1
 234 388 l 1
EndSplineSet
EndChar

StartChar: uni0416
Encoding: 1046 1046 285
Width: 600
GlyphClass: 2
Flags: MW
HStem: 326 72<212 279 221 269 221 349 359 407>
VStem: -27 663
AnchorPoint: "Anchor-2" 0 0 basechar 0
AnchorPoint: "Anchor-1" 0 0 basechar 0
AnchorPoint: "Anchor-0" 420 689 basechar 0
LayerCount: 2
Fore
SplineSet
212 326 m 1
 65 0 l 1
 -27 0 l 1
 146 366 l 1
 86 689 l 1
 173 689 l 1
 221 398 l 1
 279 398 l 1
 320 689 l 1
 400 689 l 1
 359 398 l 1
 415 398 l 1
 546 689 l 1
 636 689 l 1
 482 366 l 1
 551 0 l 1
 461 0 l 1
 407 326 l 1
 349 326 l 1
 303 0 l 1
 223 0 l 1
 269 326 l 1
 212 326 l 1
EndSplineSet
EndChar

StartChar: uni0417
Encoding: 1047 1047 286
Width: 600
GlyphClass: 2
Flags: MW
HStem: -12 78<209.5 298.5 209.5 324.5> 330 78<194 295 172 296> 625 76<294.5 373.5>
VStem: 8 548.82
AnchorPoint: "Anchor-2" 219 0 basechar 0
AnchorPoint: "Anchor-1" 0 0 basechar 0
AnchorPoint: "Anchor-0" 417 689 basechar 0
LayerCount: 2
Fore
SplineSet
338 701 m 0
 487 701 571 624 555 516 c 0
 544 433 475 386 391 373 c 1
 476 366 549 307 534 199 c 0
 517 77 405 -12 244 -12 c 0
 141 -12 56 24 8 88 c 1
 73 136 l 1
 111 90 174 66 245 66 c 0
 352 66 422 121 434 207 c 0
 446 295 386 330 295 330 c 2
 172 330 l 1
 194 408 l 1
 296 408 l 2
 372 408 448 444 459 523 c 0
 469 592 414 625 333 625 c 0
 256 625 195 598 142 556 c 1
 94 617 l 1
 166 674 248 701 338 701 c 0
EndSplineSet
EndChar

StartChar: uni0418
Encoding: 1048 1048 287
Width: 600
GlyphClass: 2
Flags: MW
HStem: 0 689<140 165 43 233 460 483 140 390>
VStem: 43 537
AnchorPoint: "Anchor-2" 0 0 basechar 0
AnchorPoint: "Anchor-1" 0 0 basechar 0
AnchorPoint: "Anchor-0" 420 689 basechar 0
LayerCount: 2
Fore
SplineSet
140 689 m 1
 233 689 l 1
 185 350 l 2
 168 226 151 157 137 98 c 1
 140 101 l 1
 460 689 l 1
 580 689 l 1
 483 0 l 1
 390 0 l 1
 438 339 l 2
 453 447 474 538 486 588 c 1
 482 585 l 1
 165 0 l 1
 43 0 l 1
 140 689 l 1
EndSplineSet
EndChar

StartChar: uni0419
Encoding: 1049 1049 288
Width: 600
GlyphClass: 2
Flags: MW
HStem: 769 70<315.5 362.5 315.5 375.5>
VStem: 43 537
AnchorPoint: "Anchor-2" 0 0 basechar 0
AnchorPoint: "Anchor-1" 0 0 basechar 0
AnchorPoint: "Anchor-0" 420 689 basechar 0
LayerCount: 2
Fore
SplineSet
336 769 m 0
 254 769 197 815 199 889 c 1
 260 897 l 1
 268 854 293 839 338 839 c 0
 387 839 422 858 442 901 c 1
 501 883 l 1
 483 809 415 769 336 769 c 0
140 689 m 1
 233 689 l 1
 185 350 l 2
 168 226 151 157 137 98 c 1
 140 101 l 1
 460 689 l 1
 580 689 l 1
 483 0 l 1
 390 0 l 1
 438 339 l 2
 453 447 474 538 486 588 c 1
 482 585 l 1
 165 0 l 1
 43 0 l 1
 140 689 l 1
EndSplineSet
EndChar

StartChar: uni040D
Encoding: 1037 1037 289
Width: 600
GlyphClass: 2
Flags: MW
HStem: 0 914<43 320 43 320 320 483 320 390>
VStem: 43 537
AnchorPoint: "Anchor-2" 0 0 basechar 0
AnchorPoint: "Anchor-1" 0 0 basechar 0
AnchorPoint: "Anchor-0" 452 680 basechar 0
LayerCount: 2
Fore
SplineSet
494 804 m 1
 461 755 l 1
 262 837 l 1
 320 914 l 1
 494 804 l 1
140 689 m 1
 233 689 l 1
 185 350 l 2
 168 226 151 157 137 98 c 1
 140 101 l 1
 460 689 l 1
 580 689 l 1
 483 0 l 1
 390 0 l 1
 438 339 l 2
 453 447 474 538 486 588 c 1
 482 585 l 1
 165 0 l 1
 43 0 l 1
 140 689 l 1
EndSplineSet
EndChar

StartChar: uni041A
Encoding: 1050 1050 290
Width: 600
GlyphClass: 2
Flags: MW
HStem: 323 78<193 282 204 272>
VStem: 53 578
AnchorPoint: "Anchor-2" 0 0 basechar 0
AnchorPoint: "Anchor-1" 0 0 basechar 0
AnchorPoint: "Anchor-0" 440 689 basechar 0
LayerCount: 2
Fore
SplineSet
193 323 m 1
 148 0 l 1
 53 0 l 1
 150 689 l 1
 245 689 l 1
 204 401 l 1
 282 401 l 1
 528 689 l 1
 631 689 l 1
 358 366 l 1
 551 0 l 1
 440 0 l 1
 272 323 l 1
 193 323 l 1
EndSplineSet
EndChar

StartChar: uni040C
Encoding: 1036 1036 291
Width: 600
GlyphClass: 2
Flags: MW
HStem: 323 78<193 282 204 272>
VStem: 53 578
AnchorPoint: "Anchor-2" 0 0 basechar 0
AnchorPoint: "Anchor-1" 0 0 basechar 0
AnchorPoint: "Anchor-0" 440 689 basechar 0
LayerCount: 2
Fore
SplineSet
521 834 m 1
 296 755 l 1
 278 804 l 1
 492 911 l 1
 521 834 l 1
193 323 m 1
 148 0 l 1
 53 0 l 1
 150 689 l 1
 245 689 l 1
 204 401 l 1
 282 401 l 1
 528 689 l 1
 631 689 l 1
 358 366 l 1
 551 0 l 1
 440 0 l 1
 272 323 l 1
 193 323 l 1
EndSplineSet
EndChar

StartChar: uni041B
Encoding: 1051 1051 292
Width: 600
GlyphClass: 2
Flags: MW
HStem: 609 80<297 474 297 297>
VStem: -19 599
LayerCount: 2
Fore
SplineSet
483 0 m 1
 388 0 l 1
 474 609 l 1
 297 609 l 1
 246 412 l 2
 163 92 120 49 17 -13 c 1
 -19 59 l 1
 34 98 75 129 146 398 c 2
 225 689 l 1
 580 689 l 1
 483 0 l 1
EndSplineSet
EndChar

StartChar: uni041C
Encoding: 1052 1052 293
Width: 600
GlyphClass: 2
Flags: MW
HStem: 0 689<-8 254 -8 254 465 534 128 444>
VStem: -8 600
LayerCount: 2
Fore
SplineSet
534 0 m 1
 444 0 l 1
 474 356 l 2
 483 453 498 565 502 587 c 1
 499 584 l 1
 325 123 l 1
 234 123 l 1
 186 584 l 1
 181 581 l 1
 178 557 163 439 146 350 c 2
 80 0 l 1
 -8 0 l 1
 128 689 l 1
 254 689 l 1
 295 220 l 1
 465 689 l 1
 592 689 l 1
 534 0 l 1
EndSplineSet
EndChar

StartChar: uni041D
Encoding: 1053 1053 294
Width: 600
GlyphClass: 2
Flags: MW
HStem: 323 78<194 433 183 444>
VStem: 43 537
AnchorPoint: "Anchor-2" 0 0 basechar 0
AnchorPoint: "Anchor-1" 0 0 basechar 0
AnchorPoint: "Anchor-0" 420 689 basechar 0
LayerCount: 2
Fore
SplineSet
433 323 m 1
 183 323 l 1
 138 0 l 1
 43 0 l 1
 140 689 l 1
 235 689 l 1
 194 401 l 1
 444 401 l 1
 485 689 l 1
 580 689 l 1
 483 0 l 1
 388 0 l 1
 433 323 l 1
EndSplineSet
EndChar

StartChar: uni041E
Encoding: 1054 1054 295
Width: 600
GlyphClass: 2
Flags: MW
HStem: -12 78<214.5 325 214.5 348.5> 623 78<298 410>
VStem: 49.35 96.02 477.2 96.39
AnchorPoint: "Anchor-2" 0 0 basechar 0
AnchorPoint: "Anchor-1" 0 0 basechar 0
AnchorPoint: "Anchor-0" 420 689 basechar 0
LayerCount: 2
Fore
SplineSet
567 339 m 0
 537 131 432 -12 265 -12 c 0
 94 -12 26 132 56 348 c 0
 85 556 190 701 357 701 c 0
 528 701 597 555 567 339 c 0
469 349 m 0
 494 529 465 623 355 623 c 0
 241 623 179 522 153 338 c 0
 128 158 161 66 268 66 c 0
 382 66 443 165 469 349 c 0
EndSplineSet
EndChar

StartChar: uni041F
Encoding: 1055 1055 296
Width: 600
GlyphClass: 2
Flags: MW
HStem: 608 81<223 473 223 223>
VStem: 43 537
LayerCount: 2
Fore
SplineSet
473 608 m 1
 223 608 l 1
 138 0 l 1
 43 0 l 1
 140 689 l 1
 580 689 l 1
 483 0 l 1
 388 0 l 1
 473 608 l 1
EndSplineSet
EndChar

StartChar: uni0420
Encoding: 1056 1056 297
Width: 600
GlyphClass: 2
Flags: MW
HStem: 253 75<214 293 204 305> 615 74<254 348 348 351 254 254>
VStem: 490.18 100.41
LayerCount: 2
Fore
SplineSet
588 471 m 0
 566 312 449 253 293 253 c 2
 204 253 l 1
 168 0 l 1
 73 0 l 1
 170 689 l 1
 348 689 l 2
 515 689 609 618 588 471 c 0
488 480 m 0
 503 581 443 615 351 615 c 2
 254 615 l 1
 214 328 l 1
 305 328 l 2
 398 328 472 364 488 480 c 0
EndSplineSet
EndChar

StartChar: uni0421
Encoding: 1057 1057 298
Width: 600
GlyphClass: 2
Flags: MW
HStem: -12 80<275.5 371 275.5 374.5> 623 78<363 444.5>
VStem: 66.38 97.9
AnchorPoint: "Anchor-2" 276 0 basechar 0
AnchorPoint: "Anchor-1" 0 0 basechar 0
AnchorPoint: "Anchor-0" 485 689 basechar 0
LayerCount: 2
Fore
SplineSet
415 701 m 0
 508 701 561 675 611 631 c 1
 554 574 l 1
 516 610 470 623 419 623 c 0
 307 623 199 548 170 340 c 0
 142 141 219 68 332 68 c 0
 410 68 460 98 501 128 c 1
 543 63 l 1
 494 21 423 -12 326 -12 c 0
 154 -12 39 116 72 350 c 0
 104 580 255 701 415 701 c 0
EndSplineSet
EndChar

StartChar: uni0422
Encoding: 1058 1058 299
Width: 600
GlyphClass: 2
Flags: MW
HStem: 609 80<98 300 87 622 395 395 395 601>
VStem: 87 535<609 689>
AnchorPoint: "Anchor-2" 225 0 basechar 0
AnchorPoint: "Anchor-1" 0 0 basechar 0
AnchorPoint: "Anchor-0" 419 689 basechar 0
LayerCount: 2
Fore
SplineSet
309 0 m 1
 214 0 l 1
 300 609 l 1
 87 609 l 1
 98 689 l 1
 622 689 l 1
 601 609 l 1
 395 609 l 1
 309 0 l 1
EndSplineSet
EndChar

StartChar: uni0423
Encoding: 1059 1059 300
Width: 600
GlyphClass: 2
Flags: MW
HStem: -12 701<83 181>
VStem: 76 568
AnchorPoint: "Anchor-2" 0 0 basechar 0
AnchorPoint: "Anchor-1" 0 0 basechar 0
AnchorPoint: "Anchor-0" 430 689 basechar 0
LayerCount: 2
Fore
SplineSet
366 184 m 2
 299 63 236 6 83 -12 c 1
 76 62 l 1
 199 79 238 117 277 191 c 1
 240 189 l 1
 84 689 l 1
 181 689 l 1
 310 249 l 1
 546 689 l 1
 644 689 l 1
 366 184 l 2
EndSplineSet
EndChar

StartChar: uni040E
Encoding: 1038 1038 301
Width: 600
GlyphClass: 2
Flags: MW
HStem: 758 70<360.5 407.5 360.5 420.5>
VStem: 76 568
AnchorPoint: "Anchor-2" 0 0 basechar 0
AnchorPoint: "Anchor-1" 0 0 basechar 0
AnchorPoint: "Anchor-0" 430 689 basechar 0
LayerCount: 2
Fore
SplineSet
381 758 m 0
 299 758 243 810 245 884 c 1
 306 892 l 1
 315 852 338 828 383 828 c 0
 432 828 468 856 488 896 c 1
 547 878 l 1
 529 804 460 758 381 758 c 0
366 184 m 2
 299 63 236 6 83 -12 c 1
 76 62 l 1
 199 79 238 117 277 191 c 1
 240 189 l 1
 84 689 l 1
 181 689 l 1
 310 249 l 1
 546 689 l 1
 644 689 l 1
 366 184 l 2
EndSplineSet
EndChar

StartChar: uni0424
Encoding: 1060 1060 302
Width: 600
GlyphClass: 2
Flags: MW
HStem: -30 129<233 233 233 303 215 233> 592 127<306 408 390 390>
VStem: 17.86 93.49 512.06 93.06
LayerCount: 2
Fore
SplineSet
398 659 m 1
 562 647 627 541 599 342 c 0
 571 141 472 40 313 32 c 1
 303 -30 l 1
 215 -30 l 1
 225 32 l 1
 68 39 -5 146 24 352 c 0
 52 547 142 647 310 659 c 1
 320 719 l 1
 408 719 l 1
 398 659 l 1
306 592 m 1
 203 588 143 520 118 342 c 0
 95 177 127 108 233 99 c 1
 306 592 l 1
317 99 m 1
 425 108 482 183 505 352 c 0
 530 526 493 588 390 592 c 1
 317 99 l 1
EndSplineSet
EndChar

StartChar: uni0425
Encoding: 1061 1061 303
Width: 600
GlyphClass: 2
Flags: MW
HStem: 0 689<-10 213 -10 213 506 534 107 428>
VStem: -10 620
LayerCount: 2
Fore
SplineSet
213 689 m 1
 321 429 l 1
 506 689 l 1
 610 689 l 1
 370 372 l 1
 534 0 l 1
 428 0 l 1
 306 306 l 1
 94 0 l 1
 -10 0 l 1
 257 367 l 1
 107 689 l 1
 213 689 l 1
EndSplineSet
EndChar

StartChar: uni0427
Encoding: 1063 1063 304
Width: 600
GlyphClass: 2
Flags: MW
HStem: 217 81<234 281.5>
VStem: 68.3 95.28
AnchorPoint: "Anchor-2" 0 0 basechar 0
AnchorPoint: "Anchor-1" 0 0 basechar 0
AnchorPoint: "Anchor-0" 409 689 basechar 0
LayerCount: 2
Fore
SplineSet
580 689 m 1
 483 0 l 1
 388 0 l 1
 427 274 l 1
 364 234 316 217 247 217 c 0
 123 217 53 300 71 427 c 2
 108 689 l 1
 203 689 l 1
 166 428 l 2
 153 336 193 298 275 298 c 0
 348 298 401 326 439 359 c 1
 485 689 l 1
 580 689 l 1
EndSplineSet
EndChar

StartChar: uni0426
Encoding: 1062 1062 305
Width: 600
GlyphClass: 2
Flags: MW
HStem: 0 78<112 181 271 362 112 446 271 271>
VStem: 6 537
AnchorPoint: "Anchor-2" 189 0 basechar 0
AnchorPoint: "Anchor-1" 0 0 basechar 0
AnchorPoint: "Anchor-0" 0 0 basechar 0
LayerCount: 2
Fore
SplineSet
446 0 m 1
 271 0 l 1
 250 -150 l 1
 175 -150 l 1
 181 0 l 1
 6 0 l 1
 103 689 l 1
 198 689 l 1
 112 78 l 1
 362 78 l 1
 448 689 l 1
 543 689 l 1
 446 0 l 1
EndSplineSet
EndChar

